SplineFontDB: 3.2
FontName: Kilroy3W75-8ptRegular
FullName: Kilroy3W75 8pt Regular
FamilyName: Kilroy3W75 8pt
Weight: Regular
Copyright: Copyright 2020 The Roboto Serif Project Authors (https://github.com/googlefonts/RobotoSerif) OFL
Version: 1.008
ItalicAngle: 0
UnderlinePosition: -200
UnderlineWidth: 100
Ascent: 800
Descent: 200
InvalidEm: 0
sfntRevision: 0x0001020c
LayerCount: 2
Layer: 0 1 "Back" 1
Layer: 1 1 "Fore" 0
XUID: [1021 1018 -1064020043 2934]
StyleMap: 0x0040
FSType: 0
OS2Version: 4
OS2_WeightWidthSlopeOnly: 0
OS2_UseTypoMetrics: 1
CreationTime: 1586430965
ModificationTime: 1751860396
PfmFamily: 81
TTFWeight: 450
TTFWidth: 3
LineGap: 0
VLineGap: 0
Panose: 0 0 0 0 0 0 0 0 0 0
OS2TypoAscent: 927
OS2TypoAOffset: 0
OS2TypoDescent: -244
OS2TypoDOffset: 0
OS2TypoLinegap: 0
OS2WinAscent: 1048
OS2WinAOffset: 0
OS2WinDescent: 251
OS2WinDOffset: 0
HheadAscent: 927
HheadAOffset: 0
HheadDescent: -244
HheadDOffset: 0
OS2SubXSize: 650
OS2SubYSize: 600
OS2SubXOff: 0
OS2SubYOff: 75
OS2SupXSize: 650
OS2SupYSize: 600
OS2SupXOff: 0
OS2SupYOff: 350
OS2StrikeYSize: 100
OS2StrikeYPos: 311
OS2CapHeight: 710
OS2XHeight: 518
OS2Vendor: 'COMM'
OS2CodePages: 20000193.00000000
OS2UnicodeRanges: a10000ef.4000267a.00000000.00000000
Lookup: 5 0 0 "'locl' Localized Forms in Latin lookup 0" { "'locl' Localized Forms in Latin lookup 0 subtable"  } ['locl' ('latn' <'AZE ' 'CRT ' 'TRK ' > ) ]
Lookup: 1 0 0 "Single Substitution lookup 1" { "Single Substitution lookup 1 subtable"  } []
Lookup: 5 0 0 "'locl' Localized Forms in Latin lookup 2" { "'locl' Localized Forms in Latin lookup 2 subtable"  } ['locl' ('latn' <'PLK ' > ) ]
Lookup: 1 0 0 "Single Substitution lookup 3" { "Single Substitution lookup 3 subtable"  } []
Lookup: 6 0 0 "'locl' Localized Forms in Latin lookup 4" { "'locl' Localized Forms in Latin lookup 4 subtable"  } ['locl' ('latn' <'CAT ' > ) ]
Lookup: 4 0 0 "Ligature Substitution lookup 5" { "Ligature Substitution lookup 5 subtable"  } []

StartChar: .notdef
Encoding: 65536 -1 0
Width: 400
GlyphClass: 1
Flags: W
LayerCount: 2
Fore
SplineSet
0 0 m 1,0,-1
 0 700 l 1,1,-1
 400 700 l 1,2,-1
 400 0 l 1,3,-1
 0 0 l 1,0,-1
50 650 m 1,4,-1
 50 50 l 1,5,-1
 350 50 l 1,6,-1
 350 650 l 1,7,-1
 50 650 l 1,4,-1
EndSplineSet
EndChar

StartChar: A
Encoding: 65 65 6
Width: 681
GlyphClass: 2
Flags: W
AnchorPoint: "Anchor-2" 539 0 basechar 0
AnchorPoint: "Anchor-1" 340 0 basechar 0
AnchorPoint: "Anchor-0" 340 721 basechar 0
LayerCount: 2
Fore
SplineSet
198 305 m 1,0,-1
 446 305 l 1,1,-1
 461 220 l 1,2,-1
 182 220 l 1,3,-1
 198 305 l 1,0,-1
308 684 m 1,4,-1
 344 678 l 1,5,-1
 171 107 l 2,6,7
 171 101 171 101 179.5 95.5 c 128,-1,8
 188 90 188 90 202.5 87 c 128,-1,9
 217 84 217 84 236 84 c 2,10,-1
 245 84 l 1,11,-1
 245 0 l 1,12,-1
 18 0 l 1,13,-1
 18 84 l 1,14,-1
 24 84 l 2,15,16
 43 84 43 84 60.5 96 c 128,-1,17
 78 108 78 108 89 148 c 2,18,-1
 267 722 l 1,19,-1
 407 722 l 1,20,-1
 586 148 l 2,21,22
 598 108 598 108 616.5 96 c 128,-1,23
 635 84 635 84 659 84 c 2,24,-1
 664 84 l 1,25,-1
 664 0 l 1,26,-1
 406 0 l 1,27,-1
 406 84 l 1,28,-1
 415 84 l 2,29,30
 438 84 438 84 453.5 85.5 c 128,-1,31
 469 87 469 87 477.5 89.5 c 128,-1,32
 486 92 486 92 486 95 c 2,33,-1
 308 684 l 1,4,-1
EndSplineSet
EndChar

StartChar: Aogonek
Encoding: 260 260 15
Width: 681
GlyphClass: 1
Flags: W
LayerCount: 2
Fore
SplineSet
198 303 m 1,0,-1
 445 303 l 1,1,-1
 461 223 l 1,2,-1
 182 223 l 1,3,-1
 198 303 l 1,0,-1
538 41 m 1,4,-1
 569 5 l 1,5,6
 526 -34 526 -34 501.5 -57.5 c 128,-1,7
 477 -81 477 -81 467.5 -100 c 128,-1,8
 458 -119 458 -119 458 -142 c 0,9,10
 458 -160 458 -160 467.5 -172 c 128,-1,11
 477 -184 477 -184 498 -184 c 0,12,13
 524 -184 524 -184 542.5 -170 c 128,-1,14
 561 -156 561 -156 573 -139 c 1,15,-1
 618 -179 l 1,16,17
 594 -212 594 -212 560 -232 c 128,-1,18
 526 -252 526 -252 474 -252 c 0,19,20
 418 -252 418 -252 380.5 -230 c 128,-1,21
 343 -208 343 -208 343 -155 c 0,22,23
 343 -129 343 -129 351 -108.5 c 128,-1,24
 359 -88 359 -88 380.5 -68 c 128,-1,25
 402 -48 402 -48 440.5 -22.5 c 128,-1,26
 479 3 479 3 538 41 c 1,4,-1
664 0 m 1,27,-1
 517 0 l 1,28,-1
 308 684 l 1,29,-1
 340 658 l 1,30,-1
 174 107 l 2,31,32
 174 101 174 101 182 95.5 c 128,-1,33
 190 90 190 90 204.5 87 c 128,-1,34
 219 84 219 84 239 84 c 2,35,-1
 247 84 l 1,36,-1
 247 0 l 1,37,-1
 18 0 l 1,38,-1
 18 84 l 1,39,-1
 24 84 l 2,40,41
 43 84 43 84 60 96.5 c 128,-1,42
 77 109 77 109 89 148 c 2,43,-1
 267 722 l 1,44,-1
 407 722 l 1,45,-1
 586 148 l 2,46,47
 599 108 599 108 617 96 c 128,-1,48
 635 84 635 84 659 84 c 2,49,-1
 664 84 l 1,50,-1
 664 0 l 1,27,-1
EndSplineSet
EndChar

StartChar: Acaron
Encoding: 461 461 16
Width: 681
GlyphClass: 1
Flags: W
LayerCount: 2
Fore
SplineSet
294 804 m 1,0,-1
 372 804 l 1,1,-1
 498 959 l 1,2,-1
 498 983 l 1,3,-1
 441 983 l 1,4,-1
 273 845 l 1,5,-1
 399 848 l 1,6,-1
 233 983 l 1,7,-1
 168 983 l 1,8,-1
 168 959 l 1,9,-1
 294 804 l 1,0,-1
198 305 m 1,10,-1
 446 305 l 1,11,-1
 461 220 l 1,12,-1
 182 220 l 1,13,-1
 198 305 l 1,10,-1
308 684 m 1,14,-1
 344 678 l 1,15,-1
 171 107 l 2,16,17
 171 101 171 101 179.5 95.5 c 128,-1,18
 188 90 188 90 202.5 87 c 128,-1,19
 217 84 217 84 236 84 c 2,20,-1
 245 84 l 1,21,-1
 245 0 l 1,22,-1
 18 0 l 1,23,-1
 18 84 l 1,24,-1
 24 84 l 2,25,26
 43 84 43 84 60 96 c 128,-1,27
 77 108 77 108 89 148 c 2,28,-1
 267 722 l 1,29,-1
 407 722 l 1,30,-1
 586 148 l 2,31,32
 599 108 599 108 617 96 c 128,-1,33
 635 84 635 84 659 84 c 2,34,-1
 664 84 l 1,35,-1
 664 0 l 1,36,-1
 406 0 l 1,37,-1
 406 84 l 1,38,-1
 415 84 l 2,39,40
 437 84 437 84 453 85.5 c 128,-1,41
 469 87 469 87 477.5 89.5 c 128,-1,42
 486 92 486 92 486 95 c 2,43,-1
 308 684 l 1,14,-1
EndSplineSet
EndChar

StartChar: Adblgrave
Encoding: 512 512 18
Width: 681
GlyphClass: 1
Flags: W
LayerCount: 2
Fore
SplineSet
435 928 m 2,0,-1
 477 829 l 1,1,-1
 477 792 l 1,2,-1
 431 792 l 1,3,-1
 362 853 l 2,4,5
 340 872 340 872 328.5 890.5 c 128,-1,6
 317 909 317 909 317 932 c 0,7,8
 317 951 317 951 331 964.5 c 128,-1,9
 345 978 345 978 369 978 c 0,10,11
 387 978 387 978 399.5 971 c 128,-1,12
 412 964 412 964 421 952.5 c 128,-1,13
 430 941 430 941 435 928 c 2,0,-1
246 928 m 2,14,-1
 285 829 l 1,15,-1
 285 792 l 1,16,-1
 240 792 l 1,17,-1
 170 853 l 2,18,19
 149 872 149 872 137 890.5 c 128,-1,20
 125 909 125 909 125 932 c 0,21,22
 125 951 125 951 139.5 964.5 c 128,-1,23
 154 978 154 978 178 978 c 0,24,25
 195 978 195 978 208.5 971 c 128,-1,26
 222 964 222 964 231.5 952.5 c 128,-1,27
 241 941 241 941 246 928 c 2,14,-1
198 305 m 1,28,-1
 446 305 l 1,29,-1
 461 220 l 1,30,-1
 182 220 l 1,31,-1
 198 305 l 1,28,-1
308 684 m 1,32,-1
 344 678 l 1,33,-1
 171 107 l 2,34,35
 171 101 171 101 179.5 95.5 c 128,-1,36
 188 90 188 90 202.5 87 c 128,-1,37
 217 84 217 84 236 84 c 2,38,-1
 245 84 l 1,39,-1
 245 0 l 1,40,-1
 18 0 l 1,41,-1
 18 84 l 1,42,-1
 24 84 l 2,43,44
 43 84 43 84 60 96 c 128,-1,45
 77 108 77 108 89 148 c 2,46,-1
 267 722 l 1,47,-1
 407 722 l 1,48,-1
 586 148 l 2,49,50
 599 108 599 108 617 96 c 128,-1,51
 635 84 635 84 659 84 c 2,52,-1
 664 84 l 1,53,-1
 664 0 l 1,54,-1
 406 0 l 1,55,-1
 406 84 l 1,56,-1
 415 84 l 2,57,58
 437 84 437 84 453 85.5 c 128,-1,59
 469 87 469 87 477.5 89.5 c 128,-1,60
 486 92 486 92 486 95 c 2,61,-1
 308 684 l 1,32,-1
EndSplineSet
EndChar

StartChar: Ainvertedbreve
Encoding: 514 514 19
Width: 681
GlyphClass: 1
Flags: W
LayerCount: 2
Fore
SplineSet
340 934 m 0,0,1
 283 934 283 934 245 917 c 128,-1,2
 207 900 207 900 187.5 862.5 c 128,-1,3
 168 825 168 825 167 763 c 1,4,-1
 246 763 l 1,5,6
 249 798 249 798 257 817 c 128,-1,7
 265 836 265 836 285 843 c 128,-1,8
 305 850 305 850 340 850 c 0,9,10
 371 850 371 850 390.5 843 c 128,-1,11
 410 836 410 836 419 817.5 c 128,-1,12
 428 799 428 799 429 763 c 1,13,-1
 514 763 l 1,14,15
 513 825 513 825 492 862.5 c 128,-1,16
 471 900 471 900 432.5 917 c 128,-1,17
 394 934 394 934 340 934 c 0,0,1
198 305 m 1,18,-1
 446 305 l 1,19,-1
 461 220 l 1,20,-1
 182 220 l 1,21,-1
 198 305 l 1,18,-1
308 684 m 1,22,-1
 344 678 l 1,23,-1
 171 107 l 2,24,25
 171 101 171 101 179.5 95.5 c 128,-1,26
 188 90 188 90 202.5 87 c 128,-1,27
 217 84 217 84 236 84 c 2,28,-1
 245 84 l 1,29,-1
 245 0 l 1,30,-1
 18 0 l 1,31,-1
 18 84 l 1,32,-1
 24 84 l 2,33,34
 43 84 43 84 60 96 c 128,-1,35
 77 108 77 108 89 148 c 2,36,-1
 267 722 l 1,37,-1
 407 722 l 1,38,-1
 586 148 l 2,39,40
 599 108 599 108 617 96 c 128,-1,41
 635 84 635 84 659 84 c 2,42,-1
 664 84 l 1,43,-1
 664 0 l 1,44,-1
 406 0 l 1,45,-1
 406 84 l 1,46,-1
 415 84 l 2,47,48
 437 84 437 84 453 85.5 c 128,-1,49
 469 87 469 87 477.5 89.5 c 128,-1,50
 486 92 486 92 486 95 c 2,51,-1
 308 684 l 1,22,-1
EndSplineSet
EndChar

StartChar: B
Encoding: 66 66 32
Width: 670
GlyphClass: 2
Flags: W
AnchorPoint: "Anchor-0" 319 741 basechar 0
LayerCount: 2
Fore
SplineSet
368 710 m 2,0,1
 421 710 421 710 461 699.5 c 128,-1,2
 501 689 501 689 528.5 667 c 128,-1,3
 556 645 556 645 570 611.5 c 128,-1,4
 584 578 584 578 584 533 c 256,5,6
 584 488 584 488 564 452.5 c 128,-1,7
 544 417 544 417 505 396.5 c 128,-1,8
 466 376 466 376 406 375 c 1,9,-1
 415 392 l 1,10,-1
 415 351 l 1,11,-1
 406 371 l 1,12,13
 473 368 473 368 518.5 346 c 128,-1,14
 564 324 564 324 588 287 c 128,-1,15
 612 250 612 250 612 197 c 0,16,17
 612 147 612 147 596.5 110 c 128,-1,18
 581 73 581 73 551 48.5 c 128,-1,19
 521 24 521 24 477.5 12 c 128,-1,20
 434 0 434 0 377 0 c 2,21,-1
 53 0 l 1,22,-1
 53 84 l 1,23,-1
 63 84 l 2,24,25
 87 84 87 84 106.5 91 c 128,-1,26
 126 98 126 98 126 120 c 2,27,-1
 126 590 l 2,28,29
 126 612 126 612 106.5 619 c 128,-1,30
 87 626 87 626 63 626 c 2,31,-1
 53 626 l 1,32,-1
 53 710 l 1,33,-1
 368 710 l 2,0,1
200 412 m 1,34,-1
 357 412 l 2,35,36
 397 412 397 412 421 424.5 c 128,-1,37
 445 437 445 437 456 462 c 128,-1,38
 467 487 467 487 467 525 c 0,39,40
 467 558 467 558 456.5 580.5 c 128,-1,41
 446 603 446 603 422 615 c 128,-1,42
 398 627 398 627 358 627 c 2,43,-1
 240 627 l 1,44,-1
 240 83 l 1,45,-1
 365 83 l 2,46,47
 411 83 411 83 438.5 97 c 128,-1,48
 466 111 466 111 479.5 138.5 c 128,-1,49
 493 166 493 166 493 205 c 0,50,51
 493 245 493 245 478.5 273.5 c 128,-1,52
 464 302 464 302 434 317 c 128,-1,53
 404 332 404 332 355 332 c 2,54,-1
 200 332 l 1,55,-1
 200 412 l 1,34,-1
EndSplineSet
EndChar

StartChar: C
Encoding: 67 67 33
Width: 712
GlyphClass: 2
Flags: W
AnchorPoint: "Anchor-1" 377 0 basechar 0
AnchorPoint: "Anchor-0" 377 741 basechar 0
LayerCount: 2
Fore
SplineSet
366 649 m 0,0,1
 316 649 316 649 280 632 c 128,-1,2
 244 615 244 615 221 579.5 c 128,-1,3
 198 544 198 544 187 488.5 c 128,-1,4
 176 433 176 433 176 356 c 256,5,6
 176 279 176 279 187.5 222.5 c 128,-1,7
 199 166 199 166 223 130 c 128,-1,8
 247 94 247 94 285 77 c 128,-1,9
 323 60 323 60 376 60 c 0,10,11
 438 60 438 60 478 85 c 128,-1,12
 518 110 518 110 542.5 151 c 128,-1,13
 567 192 567 192 581 237 c 1,14,-1
 658 207 l 1,15,16
 637 136 637 136 598.5 84 c 128,-1,17
 560 32 560 32 502.5 4 c 128,-1,18
 445 -24 445 -24 368 -24 c 0,19,20
 297 -24 297 -24 239.5 0 c 128,-1,21
 182 24 182 24 140 72 c 128,-1,22
 98 120 98 120 76 191 c 128,-1,23
 54 262 54 262 54 356 c 256,24,25
 54 450 54 450 76.5 521 c 128,-1,26
 99 592 99 592 140 639.5 c 128,-1,27
 181 687 181 687 237 710.5 c 128,-1,28
 293 734 293 734 360 734 c 0,29,30
 422 734 422 734 468 708 c 128,-1,31
 514 682 514 682 541.5 630 c 128,-1,32
 569 578 569 578 576 501 c 1,33,-1
 552 540 l 1,34,-1
 567 720 l 1,35,-1
 647 720 l 1,36,-1
 647 466 l 1,37,-1
 557 466 l 1,38,39
 542 522 542 522 516.5 563 c 128,-1,40
 491 604 491 604 454 626.5 c 128,-1,41
 417 649 417 649 366 649 c 0,0,1
EndSplineSet
EndChar

StartChar: Ccaron
Encoding: 268 268 38
Width: 712
GlyphClass: 1
Flags: W
LayerCount: 2
Fore
SplineSet
320 804 m 1,0,-1
 399 804 l 1,1,-1
 524 959 l 1,2,-1
 524 983 l 1,3,-1
 467 983 l 1,4,-1
 300 845 l 1,5,-1
 426 848 l 1,6,-1
 260 983 l 1,7,-1
 195 983 l 1,8,-1
 195 959 l 1,9,-1
 320 804 l 1,0,-1
366 649 m 0,10,11
 316 649 316 649 280 632 c 128,-1,12
 244 615 244 615 221 579.5 c 128,-1,13
 198 544 198 544 187 488.5 c 128,-1,14
 176 433 176 433 176 356 c 256,15,16
 176 279 176 279 187.5 222.5 c 128,-1,17
 199 166 199 166 223 130 c 128,-1,18
 247 94 247 94 285 77 c 128,-1,19
 323 60 323 60 376 60 c 0,20,21
 438 60 438 60 478 85 c 128,-1,22
 518 110 518 110 542.5 151 c 128,-1,23
 567 192 567 192 581 237 c 1,24,-1
 658 207 l 1,25,26
 637 136 637 136 598.5 84 c 128,-1,27
 560 32 560 32 502.5 4 c 128,-1,28
 445 -24 445 -24 368 -24 c 0,29,30
 297 -24 297 -24 239.5 0 c 128,-1,31
 182 24 182 24 140 72 c 128,-1,32
 98 120 98 120 76 191 c 128,-1,33
 54 262 54 262 54 356 c 256,34,35
 54 450 54 450 76.5 521 c 128,-1,36
 99 592 99 592 140 639.5 c 128,-1,37
 181 687 181 687 237 710.5 c 128,-1,38
 293 734 293 734 360 734 c 0,39,40
 422 734 422 734 468 708 c 128,-1,41
 514 682 514 682 541.5 630 c 128,-1,42
 569 578 569 578 576 501 c 1,43,-1
 552 540 l 1,44,-1
 567 720 l 1,45,-1
 647 720 l 1,46,-1
 647 466 l 1,47,-1
 557 466 l 1,48,49
 542 522 542 522 516.5 563 c 128,-1,50
 491 604 491 604 454 626.5 c 128,-1,51
 417 649 417 649 366 649 c 0,10,11
EndSplineSet
EndChar

StartChar: D
Encoding: 68 68 40
Width: 741
GlyphClass: 2
Flags: W
AnchorPoint: "Anchor-1" 373 0 basechar 0
AnchorPoint: "Anchor-0" 373 741 basechar 0
LayerCount: 2
Fore
SplineSet
53 626 m 1,0,-1
 53 710 l 1,1,-1
 341 710 l 2,2,3
 422 710 422 710 486.5 689 c 128,-1,4
 551 668 551 668 596 624.5 c 128,-1,5
 641 581 641 581 664 515 c 128,-1,6
 687 449 687 449 687 359 c 0,7,8
 687 270 687 270 664 202.5 c 128,-1,9
 641 135 641 135 596 90 c 128,-1,10
 551 45 551 45 486.5 22.5 c 128,-1,11
 422 0 422 0 341 0 c 2,12,-1
 53 0 l 1,13,-1
 53 84 l 1,14,-1
 63 84 l 2,15,16
 87 84 87 84 106.5 91 c 128,-1,17
 126 98 126 98 126 120 c 2,18,-1
 126 590 l 2,19,20
 126 612 126 612 106.5 619 c 128,-1,21
 87 626 87 626 63 626 c 2,22,-1
 53 626 l 1,0,-1
336 627 m 2,23,-1
 240 627 l 1,24,-1
 240 83 l 1,25,-1
 336 83 l 2,26,27
 395 83 395 83 438.5 100 c 128,-1,28
 482 117 482 117 510.5 151 c 128,-1,29
 539 185 539 185 552.5 237 c 128,-1,30
 566 289 566 289 566 359 c 256,31,32
 566 429 566 429 552.5 479.5 c 128,-1,33
 539 530 539 530 510.5 562.5 c 128,-1,34
 482 595 482 595 438.5 611 c 128,-1,35
 395 627 395 627 336 627 c 2,23,-1
EndSplineSet
EndChar

StartChar: Dcaron
Encoding: 270 270 41
Width: 741
GlyphClass: 1
Flags: W
LayerCount: 2
Fore
SplineSet
325 804 m 1,0,-1
 403 804 l 1,1,-1
 529 959 l 1,2,-1
 529 983 l 1,3,-1
 472 983 l 1,4,-1
 304 845 l 1,5,-1
 430 848 l 1,6,-1
 264 983 l 1,7,-1
 199 983 l 1,8,-1
 199 959 l 1,9,-1
 325 804 l 1,0,-1
53 626 m 1,10,-1
 53 710 l 1,11,-1
 341 710 l 2,12,13
 422 710 422 710 486.5 689 c 128,-1,14
 551 668 551 668 596 624.5 c 128,-1,15
 641 581 641 581 664 515 c 128,-1,16
 687 449 687 449 687 359 c 0,17,18
 687 270 687 270 664 202.5 c 128,-1,19
 641 135 641 135 596 90 c 128,-1,20
 551 45 551 45 486.5 22.5 c 128,-1,21
 422 0 422 0 341 0 c 2,22,-1
 53 0 l 1,23,-1
 53 84 l 1,24,-1
 63 84 l 2,25,26
 87 84 87 84 106.5 91 c 128,-1,27
 126 98 126 98 126 120 c 2,28,-1
 126 590 l 2,29,30
 126 612 126 612 106.5 619 c 128,-1,31
 87 626 87 626 63 626 c 2,32,-1
 53 626 l 1,10,-1
336 627 m 2,33,-1
 240 627 l 1,34,-1
 240 83 l 1,35,-1
 336 83 l 2,36,37
 395 83 395 83 438.5 100 c 128,-1,38
 482 117 482 117 510.5 151 c 128,-1,39
 539 185 539 185 552.5 237 c 128,-1,40
 566 289 566 289 566 359 c 256,41,42
 566 429 566 429 552.5 479.5 c 128,-1,43
 539 530 539 530 510.5 562.5 c 128,-1,44
 482 595 482 595 438.5 611 c 128,-1,45
 395 627 395 627 336 627 c 2,33,-1
EndSplineSet
EndChar

StartChar: E
Encoding: 69 69 44
Width: 658
GlyphClass: 2
Flags: W
AnchorPoint: "Anchor-2" 455 0 basechar 0
AnchorPoint: "Anchor-1" 389 0 basechar 0
AnchorPoint: "Anchor-0" 389 741 basechar 0
LayerCount: 2
Fore
SplineSet
593 225 m 1,0,-1
 593 0 l 1,1,-1
 53 0 l 1,2,-1
 53 84 l 1,3,-1
 63 84 l 2,4,5
 87 84 87 84 106.5 91 c 128,-1,6
 126 98 126 98 126 121 c 2,7,-1
 126 590 l 2,8,9
 126 612 126 612 106.5 619 c 128,-1,10
 87 626 87 626 63 626 c 2,11,-1
 53 626 l 1,12,-1
 53 710 l 1,13,-1
 575 710 l 1,14,-1
 575 510 l 1,15,-1
 493 510 l 1,16,-1
 482 582 l 2,17,18
 479 600 479 600 468 609.5 c 128,-1,19
 457 619 457 619 434 623 c 128,-1,20
 411 627 411 627 376 627 c 2,21,-1
 240 627 l 1,22,-1
 240 83 l 1,23,-1
 388 83 l 2,24,25
 416 83 416 83 436 85 c 128,-1,26
 456 87 456 87 469 92.5 c 128,-1,27
 482 98 482 98 488.5 106.5 c 128,-1,28
 495 115 495 115 496 128 c 2,29,-1
 509 225 l 1,30,-1
 593 225 l 1,0,-1
225 403 m 1,31,32
 269 406 269 406 312.5 408.5 c 128,-1,33
 356 411 356 411 399.5 414 c 128,-1,34
 443 417 443 417 486 419 c 1,35,-1
 486 311 l 1,36,37
 443 314 443 314 399.5 316.5 c 128,-1,38
 356 319 356 319 312.5 321.5 c 128,-1,39
 269 324 269 324 225 326 c 1,40,-1
 225 403 l 1,31,32
EndSplineSet
Substitution2: "'ss01' Style Set 1 lookup 61 subtable" E.alt
EndChar

StartChar: Ecaron
Encoding: 282 282 53
Width: 658
GlyphClass: 1
Flags: W
LayerCount: 2
Fore
SplineSet
299 804 m 1,0,-1
 378 804 l 1,1,-1
 503 959 l 1,2,-1
 503 983 l 1,3,-1
 446 983 l 1,4,-1
 279 845 l 1,5,-1
 404 848 l 1,6,-1
 239 983 l 1,7,-1
 173 983 l 1,8,-1
 173 959 l 1,9,-1
 299 804 l 1,0,-1
593 225 m 1,10,-1
 593 0 l 1,11,-1
 53 0 l 1,12,-1
 53 84 l 1,13,-1
 63 84 l 2,14,15
 87 84 87 84 106.5 91 c 128,-1,16
 126 98 126 98 126 121 c 2,17,-1
 126 590 l 2,18,19
 126 612 126 612 106.5 619 c 128,-1,20
 87 626 87 626 63 626 c 2,21,-1
 53 626 l 1,22,-1
 53 710 l 1,23,-1
 575 710 l 1,24,-1
 575 510 l 1,25,-1
 493 510 l 1,26,-1
 482 582 l 2,27,28
 479 600 479 600 468 609.5 c 128,-1,29
 457 619 457 619 434 623 c 128,-1,30
 411 627 411 627 376 627 c 2,31,-1
 240 627 l 1,32,-1
 240 83 l 1,33,-1
 388 83 l 2,34,35
 416 83 416 83 436 85 c 128,-1,36
 456 87 456 87 469 92.5 c 128,-1,37
 482 98 482 98 488.5 106.5 c 128,-1,38
 495 115 495 115 496 128 c 2,39,-1
 509 225 l 1,40,-1
 593 225 l 1,10,-1
225 403 m 1,41,42
 269 406 269 406 312.5 408.5 c 128,-1,43
 356 411 356 411 399.5 414 c 128,-1,44
 443 417 443 417 486 419 c 1,45,-1
 486 311 l 1,46,47
 443 314 443 314 399.5 316.5 c 128,-1,48
 356 319 356 319 312.5 321.5 c 128,-1,49
 269 324 269 324 225 326 c 1,50,-1
 225 403 l 1,41,42
EndSplineSet
Substitution2: "'ss01' Style Set 1 lookup 61 subtable" Ecaron.alt
EndChar

StartChar: Edblgrave
Encoding: 516 516 54
Width: 658
GlyphClass: 1
Flags: W
LayerCount: 2
Fore
SplineSet
418 928 m 2,0,-1
 460 829 l 1,1,-1
 460 792 l 1,2,-1
 414 792 l 1,3,-1
 344 853 l 2,4,5
 323 872 323 872 311.5 890.5 c 128,-1,6
 300 909 300 909 300 932 c 0,7,8
 300 951 300 951 314 964.5 c 128,-1,9
 328 978 328 978 352 978 c 0,10,11
 370 978 370 978 382.5 971 c 128,-1,12
 395 964 395 964 404 952.5 c 128,-1,13
 413 941 413 941 418 928 c 2,0,-1
229 928 m 2,14,-1
 268 829 l 1,15,-1
 268 792 l 1,16,-1
 223 792 l 1,17,-1
 153 853 l 2,18,19
 132 872 132 872 120 890.5 c 128,-1,20
 108 909 108 909 108 932 c 0,21,22
 108 951 108 951 122 964.5 c 128,-1,23
 136 978 136 978 161 978 c 0,24,25
 178 978 178 978 191.5 971 c 128,-1,26
 205 964 205 964 214.5 952.5 c 128,-1,27
 224 941 224 941 229 928 c 2,14,-1
593 225 m 1,28,-1
 593 0 l 1,29,-1
 53 0 l 1,30,-1
 53 84 l 1,31,-1
 63 84 l 2,32,33
 87 84 87 84 106.5 91 c 128,-1,34
 126 98 126 98 126 120 c 2,35,-1
 126 590 l 2,36,37
 126 612 126 612 106.5 619 c 128,-1,38
 87 626 87 626 63 626 c 2,39,-1
 53 626 l 1,40,-1
 53 710 l 1,41,-1
 575 710 l 1,42,-1
 575 510 l 1,43,-1
 493 510 l 1,44,-1
 482 582 l 2,45,46
 479 600 479 600 468 609.5 c 128,-1,47
 457 619 457 619 434.5 623 c 128,-1,48
 412 627 412 627 376 627 c 2,49,-1
 240 627 l 1,50,-1
 240 83 l 1,51,-1
 388 83 l 2,52,53
 416 83 416 83 436 85 c 128,-1,54
 456 87 456 87 469 92 c 128,-1,55
 482 97 482 97 488.5 106 c 128,-1,56
 495 115 495 115 496 128 c 2,57,-1
 509 225 l 1,58,-1
 593 225 l 1,28,-1
225 403 m 1,59,60
 269 406 269 406 312.5 408.5 c 128,-1,61
 356 411 356 411 399.5 414 c 128,-1,62
 443 417 443 417 486 419 c 1,63,-1
 486 311 l 1,64,65
 443 314 443 314 399.5 316.5 c 128,-1,66
 356 319 356 319 312.5 321.5 c 128,-1,67
 269 324 269 324 225 326 c 1,68,-1
 225 403 l 1,59,60
EndSplineSet
Substitution2: "'ss01' Style Set 1 lookup 61 subtable" Edblgrave.alt
EndChar

StartChar: Einvertedbreve
Encoding: 518 518 55
Width: 658
GlyphClass: 1
Flags: W
LayerCount: 2
Fore
SplineSet
323 934 m 0,0,1
 266 934 266 934 228.5 917 c 128,-1,2
 191 900 191 900 171 862.5 c 128,-1,3
 151 825 151 825 150 763 c 1,4,-1
 230 763 l 1,5,6
 232 798 232 798 240 817 c 128,-1,7
 248 836 248 836 268 843 c 128,-1,8
 288 850 288 850 323 850 c 0,9,10
 355 850 355 850 374 843 c 128,-1,11
 393 836 393 836 402 817.5 c 128,-1,12
 411 799 411 799 413 763 c 1,13,-1
 497 763 l 1,14,15
 496 825 496 825 475 862.5 c 128,-1,16
 454 900 454 900 415.5 917 c 128,-1,17
 377 934 377 934 323 934 c 0,0,1
593 225 m 1,18,-1
 593 0 l 1,19,-1
 53 0 l 1,20,-1
 53 84 l 1,21,-1
 63 84 l 2,22,23
 87 84 87 84 106.5 91 c 128,-1,24
 126 98 126 98 126 121 c 2,25,-1
 126 590 l 2,26,27
 126 612 126 612 106.5 619 c 128,-1,28
 87 626 87 626 63 626 c 2,29,-1
 53 626 l 1,30,-1
 53 710 l 1,31,-1
 575 710 l 1,32,-1
 575 510 l 1,33,-1
 493 510 l 1,34,-1
 482 582 l 2,35,36
 479 600 479 600 468 609.5 c 128,-1,37
 457 619 457 619 434.5 623 c 128,-1,38
 412 627 412 627 376 627 c 2,39,-1
 240 627 l 1,40,-1
 240 83 l 1,41,-1
 388 83 l 2,42,43
 416 83 416 83 436 85 c 128,-1,44
 456 87 456 87 469 92 c 128,-1,45
 482 97 482 97 488.5 106 c 128,-1,46
 495 115 495 115 496 128 c 2,47,-1
 509 225 l 1,48,-1
 593 225 l 1,18,-1
225 403 m 1,49,50
 269 406 269 406 312.5 408.5 c 128,-1,51
 356 411 356 411 400 414 c 128,-1,52
 444 417 444 417 486 419 c 1,53,-1
 486 311 l 1,54,55
 443 314 443 314 399.5 316.5 c 128,-1,56
 356 319 356 319 312.5 321.5 c 128,-1,57
 269 324 269 324 225 326 c 1,58,-1
 225 403 l 1,49,50
EndSplineSet
Substitution2: "'ss01' Style Set 1 lookup 61 subtable" Einvertedbreve.alt
EndChar

StartChar: F
Encoding: 70 70 67
Width: 632
GlyphClass: 2
Flags: W
AnchorPoint: "Anchor-0" 312 741 basechar 0
LayerCount: 2
Fore
SplineSet
240 627 m 1,0,-1
 240 94 l 2,1,2
 240 92 240 92 247 90 c 128,-1,3
 254 88 254 88 265.5 86.5 c 128,-1,4
 277 85 277 85 292 84.5 c 128,-1,5
 307 84 307 84 323 84 c 2,6,-1
 340 84 l 1,7,-1
 340 0 l 1,8,-1
 53 0 l 1,9,-1
 53 84 l 1,10,-1
 63 84 l 2,11,12
 87 84 87 84 106.5 91 c 128,-1,13
 126 98 126 98 126 121 c 2,14,-1
 126 590 l 2,15,16
 126 612 126 612 106.5 619 c 128,-1,17
 87 626 87 626 63 626 c 2,18,-1
 53 626 l 1,19,-1
 53 710 l 1,20,-1
 575 710 l 1,21,-1
 575 506 l 1,22,-1
 493 506 l 1,23,-1
 481 582 l 2,24,25
 479 600 479 600 467.5 609.5 c 128,-1,26
 456 619 456 619 433.5 623 c 128,-1,27
 411 627 411 627 375 627 c 2,28,-1
 240 627 l 1,0,-1
225 395 m 1,29,30
 269 397 269 397 312.5 399.5 c 128,-1,31
 356 402 356 402 399.5 405 c 128,-1,32
 443 408 443 408 486 410 c 1,33,-1
 486 302 l 1,34,35
 443 305 443 305 400 307.5 c 128,-1,36
 357 310 357 310 313 312.5 c 128,-1,37
 269 315 269 315 225 317 c 1,38,-1
 225 395 l 1,29,30
EndSplineSet
Substitution2: "'ss01' Style Set 1 lookup 61 subtable" F.alt
EndChar

StartChar: G
Encoding: 71 71 68
Width: 757
GlyphClass: 2
Flags: W
AnchorPoint: "Anchor-1" 386 0 basechar 0
AnchorPoint: "Anchor-0" 386 741 basechar 0
LayerCount: 2
Fore
SplineSet
645 226 m 2,0,-1
 645 91 l 1,1,2
 628 70 628 70 602 50 c 128,-1,3
 576 30 576 30 542 13 c 128,-1,4
 508 -4 508 -4 466.5 -14 c 128,-1,5
 425 -24 425 -24 378 -24 c 0,6,7
 304 -24 304 -24 244 0 c 128,-1,8
 184 24 184 24 141.5 72 c 128,-1,9
 99 120 99 120 76.5 191 c 128,-1,10
 54 262 54 262 54 356 c 256,11,12
 54 450 54 450 77.5 521 c 128,-1,13
 101 592 101 592 144 639 c 128,-1,14
 187 686 187 686 244 710 c 128,-1,15
 301 734 301 734 368 734 c 0,16,17
 430 734 430 734 473 710.5 c 128,-1,18
 516 687 516 687 542 641 c 128,-1,19
 568 595 568 595 578 526 c 1,20,-1
 554 565 l 1,21,-1
 568 720 l 1,22,-1
 648 720 l 1,23,-1
 648 494 l 1,24,-1
 564 494 l 1,25,26
 549 538 549 538 523 573.5 c 128,-1,27
 497 609 497 609 460.5 629.5 c 128,-1,28
 424 650 424 650 374 650 c 0,29,30
 325 650 325 650 288 632.5 c 128,-1,31
 251 615 251 615 226 579 c 128,-1,32
 201 543 201 543 188.5 487.5 c 128,-1,33
 176 432 176 432 176 356 c 0,34,35
 176 279 176 279 188.5 222.5 c 128,-1,36
 201 166 201 166 226.5 130 c 128,-1,37
 252 94 252 94 291 77 c 128,-1,38
 330 60 330 60 381 60 c 0,39,40
 422 60 422 60 452 69.5 c 128,-1,41
 482 79 482 79 503 93 c 128,-1,42
 524 107 524 107 536 120 c 1,43,-1
 536 226 l 2,44,45
 536 251 536 251 512 258.5 c 128,-1,46
 488 266 488 266 454 266 c 2,47,-1
 426 266 l 1,48,-1
 426 350 l 1,49,-1
 730 350 l 1,50,-1
 730 266 l 1,51,-1
 708 266 l 2,52,53
 677 266 677 266 661 258.5 c 128,-1,54
 645 251 645 251 645 226 c 2,0,-1
EndSplineSet
EndChar

StartChar: Gcaron
Encoding: 486 486 73
Width: 757
GlyphClass: 1
Flags: W
LayerCount: 2
Fore
SplineSet
339 804 m 1,0,-1
 418 804 l 1,1,-1
 543 959 l 1,2,-1
 543 983 l 1,3,-1
 486 983 l 1,4,-1
 319 845 l 1,5,-1
 445 848 l 1,6,-1
 279 983 l 1,7,-1
 213 983 l 1,8,-1
 213 959 l 1,9,-1
 339 804 l 1,0,-1
645 226 m 2,10,-1
 645 91 l 1,11,12
 628 70 628 70 602 50 c 128,-1,13
 576 30 576 30 542 13 c 128,-1,14
 508 -4 508 -4 466.5 -14 c 128,-1,15
 425 -24 425 -24 378 -24 c 0,16,17
 304 -24 304 -24 244 0 c 128,-1,18
 184 24 184 24 141.5 72 c 128,-1,19
 99 120 99 120 76.5 191 c 128,-1,20
 54 262 54 262 54 356 c 256,21,22
 54 450 54 450 77.5 521 c 128,-1,23
 101 592 101 592 144 639 c 128,-1,24
 187 686 187 686 244 710 c 128,-1,25
 301 734 301 734 368 734 c 0,26,27
 430 734 430 734 473 710.5 c 128,-1,28
 516 687 516 687 542 641 c 128,-1,29
 568 595 568 595 578 526 c 1,30,-1
 554 565 l 1,31,-1
 568 720 l 1,32,-1
 648 720 l 1,33,-1
 648 494 l 1,34,-1
 564 494 l 1,35,36
 549 538 549 538 523 573.5 c 128,-1,37
 497 609 497 609 460.5 629.5 c 128,-1,38
 424 650 424 650 374 650 c 0,39,40
 325 650 325 650 288 632.5 c 128,-1,41
 251 615 251 615 226 579 c 128,-1,42
 201 543 201 543 188.5 487.5 c 128,-1,43
 176 432 176 432 176 356 c 0,44,45
 176 279 176 279 188.5 222.5 c 128,-1,46
 201 166 201 166 226.5 130 c 128,-1,47
 252 94 252 94 291 77 c 128,-1,48
 330 60 330 60 381 60 c 0,49,50
 422 60 422 60 452 69.5 c 128,-1,51
 482 79 482 79 503 93 c 128,-1,52
 524 107 524 107 536 120 c 1,53,-1
 536 226 l 2,54,55
 536 251 536 251 512 258.5 c 128,-1,56
 488 266 488 266 454 266 c 2,57,-1
 426 266 l 1,58,-1
 426 350 l 1,59,-1
 730 350 l 1,60,-1
 730 266 l 1,61,-1
 708 266 l 2,62,63
 677 266 677 266 661 258.5 c 128,-1,64
 645 251 645 251 645 226 c 2,10,-1
EndSplineSet
EndChar

StartChar: H
Encoding: 72 72 75
Width: 796
GlyphClass: 2
Flags: W
AnchorPoint: "Anchor-1" 398 0 basechar 0
AnchorPoint: "Anchor-0" 398 741 basechar 0
LayerCount: 2
Fore
SplineSet
206 408 m 1,0,-1
 584 408 l 1,1,-1
 584 323 l 1,2,-1
 206 323 l 1,3,-1
 206 408 l 1,0,-1
53 0 m 1,4,-1
 53 84 l 1,5,-1
 63 84 l 2,6,7
 87 84 87 84 106.5 91 c 128,-1,8
 126 98 126 98 126 121 c 2,9,-1
 126 590 l 2,10,11
 126 612 126 612 106.5 619 c 128,-1,12
 87 626 87 626 63 626 c 2,13,-1
 53 626 l 1,14,-1
 53 710 l 1,15,-1
 321 710 l 1,16,-1
 321 627 l 1,17,-1
 313 627 l 2,18,19
 302 627 302 627 289 626 c 128,-1,20
 276 625 276 625 265 623.5 c 128,-1,21
 254 622 254 622 247 620.5 c 128,-1,22
 240 619 240 619 240 616 c 2,23,-1
 240 93 l 2,24,25
 240 91 240 91 247 89.5 c 128,-1,26
 254 88 254 88 265 86.5 c 128,-1,27
 276 85 276 85 289 84.5 c 128,-1,28
 302 84 302 84 313 84 c 2,29,-1
 321 84 l 1,30,-1
 321 0 l 1,31,-1
 53 0 l 1,4,-1
475 0 m 1,32,-1
 475 83 l 1,33,-1
 483 83 l 2,34,35
 494 83 494 83 507 84 c 128,-1,36
 520 85 520 85 531 86.5 c 128,-1,37
 542 88 542 88 549 89.5 c 128,-1,38
 556 91 556 91 556 94 c 2,39,-1
 556 617 l 2,40,41
 556 619 556 619 549 620.5 c 128,-1,42
 542 622 542 622 531 623.5 c 128,-1,43
 520 625 520 625 507 625.5 c 128,-1,44
 494 626 494 626 483 626 c 2,45,-1
 475 626 l 1,46,-1
 475 710 l 1,47,-1
 743 710 l 1,48,-1
 743 626 l 1,49,-1
 733 626 l 2,50,51
 709 626 709 626 689.5 619 c 128,-1,52
 670 612 670 612 670 589 c 2,53,-1
 670 120 l 2,54,55
 670 98 670 98 689.5 91 c 128,-1,56
 709 84 709 84 733 84 c 2,57,-1
 743 84 l 1,58,-1
 743 0 l 1,59,-1
 475 0 l 1,32,-1
EndSplineSet
EndChar

StartChar: I
Encoding: 73 73 79
Width: 389
GlyphClass: 2
Flags: W
AnchorPoint: "Anchor-2" 256 0 basechar 0
AnchorPoint: "Anchor-1" 195 0 basechar 0
AnchorPoint: "Anchor-0" 195 741 basechar 0
LayerCount: 2
Fore
SplineSet
137 121 m 2,0,-1
 137 590 l 2,1,2
 137 612 137 612 117 619 c 128,-1,3
 97 626 97 626 69 626 c 2,4,-1
 51 626 l 1,5,-1
 51 710 l 1,6,-1
 337 710 l 1,7,-1
 337 626 l 1,8,-1
 319 626 l 2,9,10
 291 626 291 626 271.5 619 c 128,-1,11
 252 612 252 612 252 589 c 2,12,-1
 252 120 l 2,13,14
 252 98 252 98 271.5 91 c 128,-1,15
 291 84 291 84 319 84 c 2,16,-1
 337 84 l 1,17,-1
 337 0 l 1,18,-1
 51 0 l 1,19,-1
 51 84 l 1,20,-1
 69 84 l 2,21,22
 97 84 97 84 117 91 c 128,-1,23
 137 98 137 98 137 121 c 2,0,-1
EndSplineSet
EndChar

StartChar: Icaron
Encoding: 463 463 89
Width: 389
GlyphClass: 1
Flags: W
LayerCount: 2
Fore
SplineSet
155 804 m 1,0,-1
 234 804 l 1,1,-1
 359 959 l 1,2,-1
 359 983 l 1,3,-1
 302 983 l 1,4,-1
 135 845 l 1,5,-1
 261 848 l 1,6,-1
 95 983 l 1,7,-1
 29 983 l 1,8,-1
 29 959 l 1,9,-1
 155 804 l 1,0,-1
137 121 m 2,10,-1
 137 590 l 2,11,12
 137 612 137 612 117 619 c 128,-1,13
 97 626 97 626 69 626 c 2,14,-1
 51 626 l 1,15,-1
 51 710 l 1,16,-1
 337 710 l 1,17,-1
 337 626 l 1,18,-1
 319 626 l 2,19,20
 291 626 291 626 271.5 619 c 128,-1,21
 252 612 252 612 252 589 c 2,22,-1
 252 120 l 2,23,24
 252 98 252 98 271.5 91 c 128,-1,25
 291 84 291 84 319 84 c 2,26,-1
 337 84 l 1,27,-1
 337 0 l 1,28,-1
 51 0 l 1,29,-1
 51 84 l 1,30,-1
 69 84 l 2,31,32
 97 84 97 84 117 91 c 128,-1,33
 137 98 137 98 137 121 c 2,10,-1
EndSplineSet
EndChar

StartChar: Idblgrave
Encoding: 520 520 90
Width: 389
GlyphClass: 1
Flags: W
LayerCount: 2
Fore
SplineSet
289 928 m 2,0,-1
 330 829 l 1,1,-1
 330 792 l 1,2,-1
 285 792 l 1,3,-1
 215 853 l 2,4,5
 194 872 194 872 182 890.5 c 128,-1,6
 170 909 170 909 170 932 c 0,7,8
 170 951 170 951 184 964.5 c 128,-1,9
 198 978 198 978 222 978 c 0,10,11
 240 978 240 978 253 971 c 128,-1,12
 266 964 266 964 274.5 952.5 c 128,-1,13
 283 941 283 941 289 928 c 2,0,-1
100 928 m 2,14,-1
 139 829 l 1,15,-1
 139 792 l 1,16,-1
 93 792 l 1,17,-1
 24 853 l 2,18,19
 3 872 3 872 -9 890.5 c 128,-1,20
 -21 909 -21 909 -21 932 c 0,21,22
 -21 951 -21 951 -7 964.5 c 128,-1,23
 7 978 7 978 31 978 c 0,24,25
 49 978 49 978 62.5 971 c 128,-1,26
 76 964 76 964 85.5 952.5 c 128,-1,27
 95 941 95 941 100 928 c 2,14,-1
137 120 m 2,28,-1
 137 590 l 2,29,30
 137 612 137 612 117 619 c 128,-1,31
 97 626 97 626 69 626 c 2,32,-1
 51 626 l 1,33,-1
 51 710 l 1,34,-1
 337 710 l 1,35,-1
 337 626 l 1,36,-1
 319 626 l 2,37,38
 291 626 291 626 271.5 619 c 128,-1,39
 252 612 252 612 252 590 c 2,40,-1
 252 120 l 2,41,42
 252 98 252 98 271.5 91 c 128,-1,43
 291 84 291 84 319 84 c 2,44,-1
 337 84 l 1,45,-1
 337 0 l 1,46,-1
 51 0 l 1,47,-1
 51 84 l 1,48,-1
 69 84 l 2,49,50
 97 84 97 84 117 91 c 128,-1,51
 137 98 137 98 137 120 c 2,28,-1
EndSplineSet
EndChar

StartChar: Iinvertedbreve
Encoding: 522 522 91
Width: 389
GlyphClass: 1
Flags: W
LayerCount: 2
Fore
SplineSet
195 934 m 0,0,1
 138 934 138 934 100 917 c 128,-1,2
 62 900 62 900 42 862.5 c 128,-1,3
 22 825 22 825 21 763 c 1,4,-1
 101 763 l 1,5,6
 103 798 103 798 111.5 817 c 128,-1,7
 120 836 120 836 140 843 c 128,-1,8
 160 850 160 850 195 850 c 0,9,10
 226 850 226 850 245 843 c 128,-1,11
 264 836 264 836 273.5 817.5 c 128,-1,12
 283 799 283 799 284 763 c 1,13,-1
 369 763 l 1,14,15
 368 825 368 825 347 862.5 c 128,-1,16
 326 900 326 900 287.5 917 c 128,-1,17
 249 934 249 934 195 934 c 0,0,1
137 121 m 2,18,-1
 137 590 l 2,19,20
 137 612 137 612 117 619 c 128,-1,21
 97 626 97 626 69 626 c 2,22,-1
 51 626 l 1,23,-1
 51 710 l 1,24,-1
 337 710 l 1,25,-1
 337 626 l 1,26,-1
 319 626 l 2,27,28
 291 626 291 626 271.5 619 c 128,-1,29
 252 612 252 612 252 589 c 2,30,-1
 252 120 l 2,31,32
 252 98 252 98 271.5 91 c 128,-1,33
 291 84 291 84 319 84 c 2,34,-1
 337 84 l 1,35,-1
 337 0 l 1,36,-1
 51 0 l 1,37,-1
 51 84 l 1,38,-1
 69 84 l 2,39,40
 97 84 97 84 117 91 c 128,-1,41
 137 98 137 98 137 121 c 2,18,-1
EndSplineSet
EndChar

StartChar: J
Encoding: 74 74 94
Width: 619
GlyphClass: 2
Flags: W
AnchorPoint: "Anchor-0" 416 741 basechar 0
LayerCount: 2
Fore
SplineSet
285 710 m 1,0,-1
 577 710 l 1,1,-1
 577 626 l 1,2,-1
 559 626 l 2,3,4
 534 626 534 626 515 619 c 128,-1,5
 496 612 496 612 496 590 c 2,6,-1
 496 208 l 2,7,8
 496 145 496 145 477.5 100.5 c 128,-1,9
 459 56 459 56 426.5 29 c 128,-1,10
 394 2 394 2 349.5 -11 c 128,-1,11
 305 -24 305 -24 254 -24 c 0,12,13
 199 -24 199 -24 158.5 -11 c 128,-1,14
 118 2 118 2 91 19 c 128,-1,15
 64 36 64 36 48 49 c 1,16,-1
 48 223 l 1,17,-1
 169 223 l 1,18,-1
 169 39 l 1,19,20
 153 44 153 44 140.5 55.5 c 128,-1,21
 128 67 128 67 120.5 79 c 128,-1,22
 113 91 113 91 113 100.5 c 128,-1,23
 113 110 113 110 122 111 c 1,24,25
 135 100 135 100 153.5 88.5 c 128,-1,26
 172 77 172 77 196.5 69 c 128,-1,27
 221 61 221 61 252 61 c 0,28,29
 294 61 294 61 322.5 73.5 c 128,-1,30
 351 86 351 86 366 119 c 128,-1,31
 381 152 381 152 381 211 c 2,32,-1
 381 590 l 2,33,34
 381 605 381 605 371.5 612.5 c 128,-1,35
 362 620 362 620 345 623 c 128,-1,36
 328 626 328 626 308 626 c 2,37,-1
 285 626 l 1,38,-1
 285 710 l 1,0,-1
EndSplineSet
EndChar

StartChar: K
Encoding: 75 75 96
Width: 733
GlyphClass: 2
Flags: W
AnchorPoint: "Anchor-1" 378 0 basechar 0
AnchorPoint: "Anchor-0" 378 741 basechar 0
LayerCount: 2
Fore
SplineSet
53 0 m 1,0,-1
 53 84 l 1,1,-1
 63 84 l 2,2,3
 87 84 87 84 106.5 91 c 128,-1,4
 126 98 126 98 126 121 c 2,5,-1
 126 590 l 2,6,7
 126 612 126 612 106.5 619 c 128,-1,8
 87 626 87 626 63 626 c 2,9,-1
 53 626 l 1,10,-1
 53 710 l 1,11,-1
 319 710 l 1,12,-1
 319 626 l 1,13,-1
 311 626 l 2,14,15
 300 626 300 626 287 625.5 c 128,-1,16
 274 625 274 625 263.5 623.5 c 128,-1,17
 253 622 253 622 246.5 620.5 c 128,-1,18
 240 619 240 619 240 616 c 2,19,-1
 240 94 l 2,20,21
 240 91 240 91 246.5 89.5 c 128,-1,22
 253 88 253 88 263.5 86.5 c 128,-1,23
 274 85 274 85 286 84.5 c 128,-1,24
 298 84 298 84 308 84 c 2,25,-1
 316 84 l 1,26,-1
 316 0 l 1,27,-1
 53 0 l 1,0,-1
425 0 m 1,28,-1
 425 84 l 1,29,-1
 433 84 l 2,30,31
 451 84 451 84 466.5 85 c 128,-1,32
 482 86 482 86 492 88.5 c 128,-1,33
 502 91 502 91 502 94 c 2,34,-1
 282 346 l 1,35,-1
 282 372 l 1,36,-1
 515 615 l 2,37,38
 515 619 515 619 505 621 c 128,-1,39
 495 623 495 623 480 624.5 c 128,-1,40
 465 626 465 626 449 626 c 2,41,-1
 440 626 l 1,42,-1
 440 710 l 1,43,-1
 684 710 l 1,44,-1
 684 626 l 1,45,-1
 662 626 l 2,46,47
 652 626 652 626 643.5 623.5 c 128,-1,48
 635 621 635 621 625 615 c 128,-1,49
 615 609 615 609 605 597 c 2,50,-1
 371 354 l 1,51,-1
 373 405 l 1,52,-1
 633 107 l 2,53,54
 642 98 642 98 651.5 92.5 c 128,-1,55
 661 87 661 87 670.5 85.5 c 128,-1,56
 680 84 680 84 690 84 c 2,57,-1
 710 84 l 1,58,-1
 710 0 l 1,59,-1
 425 0 l 1,28,-1
EndSplineSet
EndChar

StartChar: L
Encoding: 76 76 98
Width: 615
GlyphClass: 2
Flags: W
AnchorPoint: "Anchor-2" 468 710 basechar 0
AnchorPoint: "Anchor-1" 377 0 basechar 0
AnchorPoint: "Anchor-0" 377 741 basechar 0
LayerCount: 2
Fore
SplineSet
334 710 m 1,0,-1
 53 710 l 1,1,-1
 53 626 l 1,2,-1
 63 626 l 2,3,4
 87 626 87 626 106.5 619 c 128,-1,5
 126 612 126 612 126 589 c 2,6,-1
 126 120 l 2,7,8
 126 98 126 98 106.5 91 c 128,-1,9
 87 84 87 84 63 84 c 2,10,-1
 53 84 l 1,11,-1
 53 0 l 1,12,-1
 569 0 l 1,13,-1
 569 238 l 1,14,-1
 485 238 l 1,15,-1
 471 128 l 2,16,17
 470 110 470 110 458.5 100 c 128,-1,18
 447 90 447 90 424 86.5 c 128,-1,19
 401 83 401 83 363 83 c 2,20,-1
 240 83 l 1,21,-1
 240 590 l 2,22,23
 240 612 240 612 262.5 619 c 128,-1,24
 285 626 285 626 319 626 c 2,25,-1
 334 626 l 1,26,-1
 334 710 l 1,0,-1
EndSplineSet
EndChar

StartChar: M
Encoding: 77 77 104
Width: 922
GlyphClass: 2
Flags: W
AnchorPoint: "Anchor-1" 450 0 basechar 0
LayerCount: 2
Fore
SplineSet
53 0 m 1,0,-1
 53 84 l 1,1,-1
 63 84 l 2,2,3
 79 84 79 84 93 87 c 128,-1,4
 107 90 107 90 116 98 c 128,-1,5
 125 106 125 106 125 121 c 2,6,-1
 125 590 l 2,7,8
 125 605 125 605 116 612.5 c 128,-1,9
 107 620 107 620 93 623 c 128,-1,10
 79 626 79 626 63 626 c 2,11,-1
 53 626 l 1,12,-1
 53 710 l 1,13,-1
 309 710 l 1,14,-1
 482 123 l 1,15,-1
 425 100 l 1,16,-1
 616 710 l 1,17,-1
 869 710 l 1,18,-1
 869 626 l 1,19,-1
 859 626 l 2,20,21
 835 626 835 626 814 619 c 128,-1,22
 793 612 793 612 793 589 c 2,23,-1
 793 120 l 2,24,25
 793 98 793 98 814 91 c 128,-1,26
 835 84 835 84 859 84 c 2,27,-1
 869 84 l 1,28,-1
 869 0 l 1,29,-1
 609 0 l 1,30,-1
 609 84 l 1,31,-1
 617 84 l 2,32,33
 629 84 629 84 643.5 85 c 128,-1,34
 658 86 658 86 669 88.5 c 128,-1,35
 680 91 680 91 680 94 c 2,36,-1
 680 693 l 1,37,-1
 703 700 l 1,38,-1
 476 -3 l 1,39,-1
 411 -3 l 1,40,-1
 196 701 l 1,41,-1
 216 690 l 1,42,-1
 216 94 l 2,43,44
 216 91 216 91 226 88.5 c 128,-1,45
 236 86 236 86 248.5 85 c 128,-1,46
 261 84 261 84 266 84 c 2,47,-1
 270 84 l 1,48,-1
 270 0 l 1,49,-1
 53 0 l 1,0,-1
EndSplineSet
EndChar

StartChar: N
Encoding: 78 78 106
Width: 769
GlyphClass: 2
Flags: W
AnchorPoint: "Anchor-1" 393 0 basechar 0
AnchorPoint: "Anchor-0" 393 741 basechar 0
LayerCount: 2
Fore
SplineSet
53 0 m 1,0,-1
 53 84 l 1,1,-1
 63 84 l 2,2,3
 80 84 80 84 94 87 c 128,-1,4
 108 90 108 90 117 98 c 128,-1,5
 126 106 126 106 126 121 c 2,6,-1
 126 590 l 2,7,8
 126 605 126 605 117 612.5 c 128,-1,9
 108 620 108 620 94 623 c 128,-1,10
 80 626 80 626 63 626 c 2,11,-1
 53 626 l 1,12,-1
 53 710 l 1,13,-1
 278 710 l 1,14,-1
 600 93 l 1,15,-1
 562 88 l 1,16,-1
 562 616 l 2,17,18
 562 620 562 620 551.5 622 c 128,-1,19
 541 624 541 624 527.5 625 c 128,-1,20
 514 626 514 626 504 626 c 2,21,-1
 492 626 l 1,22,-1
 492 710 l 1,23,-1
 726 710 l 1,24,-1
 726 626 l 1,25,-1
 716 626 l 2,26,27
 700 626 700 626 686 623 c 128,-1,28
 672 620 672 620 663.5 612.5 c 128,-1,29
 655 605 655 605 655 590 c 2,30,-1
 655 0 l 1,31,-1
 531 0 l 1,32,-1
 177 671 l 1,33,-1
 217 670 l 1,34,-1
 217 94 l 2,35,36
 217 91 217 91 227.5 88.5 c 128,-1,37
 238 86 238 86 252.5 85 c 128,-1,38
 267 84 267 84 276 84 c 2,39,-1
 288 84 l 1,40,-1
 288 0 l 1,41,-1
 53 0 l 1,0,-1
EndSplineSet
EndChar

StartChar: Ncaron
Encoding: 327 327 110
Width: 769
GlyphClass: 1
Flags: W
LayerCount: 2
Fore
SplineSet
355 804 m 1,0,-1
 433 804 l 1,1,-1
 558 959 l 1,2,-1
 558 983 l 1,3,-1
 502 983 l 1,4,-1
 334 845 l 1,5,-1
 460 848 l 1,6,-1
 294 983 l 1,7,-1
 229 983 l 1,8,-1
 229 959 l 1,9,-1
 355 804 l 1,0,-1
53 0 m 1,10,-1
 53 84 l 1,11,-1
 63 84 l 2,12,13
 80 84 80 84 94 87 c 128,-1,14
 108 90 108 90 117 98 c 128,-1,15
 126 106 126 106 126 121 c 2,16,-1
 126 590 l 2,17,18
 126 605 126 605 117 612.5 c 128,-1,19
 108 620 108 620 94 623 c 128,-1,20
 80 626 80 626 63 626 c 2,21,-1
 53 626 l 1,22,-1
 53 710 l 1,23,-1
 278 710 l 1,24,-1
 600 93 l 1,25,-1
 562 88 l 1,26,-1
 562 616 l 2,27,28
 562 620 562 620 551.5 622 c 128,-1,29
 541 624 541 624 527.5 625 c 128,-1,30
 514 626 514 626 504 626 c 2,31,-1
 492 626 l 1,32,-1
 492 710 l 1,33,-1
 726 710 l 1,34,-1
 726 626 l 1,35,-1
 716 626 l 2,36,37
 700 626 700 626 686 623 c 128,-1,38
 672 620 672 620 663.5 612.5 c 128,-1,39
 655 605 655 605 655 590 c 2,40,-1
 655 0 l 1,41,-1
 531 0 l 1,42,-1
 177 671 l 1,43,-1
 217 670 l 1,44,-1
 217 94 l 2,45,46
 217 91 217 91 227.5 88.5 c 128,-1,47
 238 86 238 86 252.5 85 c 128,-1,48
 267 84 267 84 276 84 c 2,49,-1
 288 84 l 1,50,-1
 288 0 l 1,51,-1
 53 0 l 1,10,-1
EndSplineSet
EndChar

StartChar: O
Encoding: 79 79 114
Width: 751
GlyphClass: 2
Flags: W
AnchorPoint: "Anchor-2" 413 0 basechar 0
AnchorPoint: "Anchor-1" 375 0 basechar 0
AnchorPoint: "Anchor-0" 375 741 basechar 0
LayerCount: 2
Fore
SplineSet
376 -24 m 256,0,1
 303 -24 303 -24 244 0.5 c 128,-1,2
 185 25 185 25 142.5 73.5 c 128,-1,3
 100 122 100 122 77 192.5 c 128,-1,4
 54 263 54 263 54 355 c 0,5,6
 54 448 54 448 77 518.5 c 128,-1,7
 100 589 100 589 142.5 637 c 128,-1,8
 185 685 185 685 244 709.5 c 128,-1,9
 303 734 303 734 376 734 c 256,10,11
 449 734 449 734 508 709.5 c 128,-1,12
 567 685 567 685 609 637 c 128,-1,13
 651 589 651 589 674 518.5 c 128,-1,14
 697 448 697 448 697 355 c 0,15,16
 697 263 697 263 674 192.5 c 128,-1,17
 651 122 651 122 609 73.5 c 128,-1,18
 567 25 567 25 508 0.5 c 128,-1,19
 449 -24 449 -24 376 -24 c 256,0,1
376 62 m 256,20,21
 426 62 426 62 463.5 79 c 128,-1,22
 501 96 501 96 525.5 131.5 c 128,-1,23
 550 167 550 167 562.5 222.5 c 128,-1,24
 575 278 575 278 575 355 c 256,25,26
 575 432 575 432 562.5 487.5 c 128,-1,27
 550 543 550 543 525.5 578.5 c 128,-1,28
 501 614 501 614 463.5 631 c 128,-1,29
 426 648 426 648 376 648 c 256,30,31
 326 648 326 648 288.5 631 c 128,-1,32
 251 614 251 614 226 578.5 c 128,-1,33
 201 543 201 543 188.5 487.5 c 128,-1,34
 176 432 176 432 176 355 c 256,35,36
 176 278 176 278 188.5 222.5 c 128,-1,37
 201 167 201 167 226 131.5 c 128,-1,38
 251 96 251 96 288.5 79 c 128,-1,39
 326 62 326 62 376 62 c 256,20,21
EndSplineSet
EndChar

StartChar: Ohorn
Encoding: 416 416 123
Width: 806
GlyphClass: 2
Flags: W
AnchorPoint: "Anchor-1" 400 -35 basechar 0
AnchorPoint: "Anchor-0" 400 742 basechar 0
LayerCount: 2
Fore
SplineSet
376 62 m 0,0,1
 426 62 426 62 464 78.5 c 128,-1,2
 502 95 502 95 526.5 130 c 128,-1,3
 551 165 551 165 563 221 c 128,-1,4
 575 277 575 277 575 355 c 0,5,6
 575 434 575 434 563 489.5 c 128,-1,7
 551 545 551 545 526.5 580 c 128,-1,8
 502 615 502 615 464 631.5 c 128,-1,9
 426 648 426 648 376 648 c 0,10,11
 325 648 325 648 287.5 631.5 c 128,-1,12
 250 615 250 615 225 580 c 128,-1,13
 200 545 200 545 188 489 c 128,-1,14
 176 433 176 433 176 355 c 0,15,16
 176 276 176 276 188 220.5 c 128,-1,17
 200 165 200 165 225 130 c 128,-1,18
 250 95 250 95 287.5 78.5 c 128,-1,19
 325 62 325 62 376 62 c 0,0,1
563 624 m 1,20,-1
 529 666 l 1,21,22
 566 646 566 646 596.5 617 c 128,-1,23
 627 588 627 588 649.5 550.5 c 128,-1,24
 672 513 672 513 684.5 464.5 c 128,-1,25
 697 416 697 416 697 354 c 0,26,27
 697 262 697 262 674 191 c 128,-1,28
 651 120 651 120 609 72.5 c 128,-1,29
 567 25 567 25 508 0.5 c 128,-1,30
 449 -24 449 -24 376 -24 c 0,31,32
 304 -24 304 -24 245 0.5 c 128,-1,33
 186 25 186 25 143 72.5 c 128,-1,34
 100 120 100 120 77 191 c 128,-1,35
 54 262 54 262 54 355 c 0,36,37
 54 449 54 449 77 519.5 c 128,-1,38
 100 590 100 590 143 638 c 128,-1,39
 186 686 186 686 245 710 c 128,-1,40
 304 734 304 734 376 734 c 0,41,42
 419 734 419 734 452 728.5 c 128,-1,43
 485 723 485 723 511 716 c 128,-1,44
 537 709 537 709 559.5 703.5 c 128,-1,45
 582 698 582 698 606 698 c 0,46,47
 633 698 633 698 652 710.5 c 128,-1,48
 671 723 671 723 683 748 c 128,-1,49
 695 773 695 773 702 810.5 c 128,-1,50
 709 848 709 848 713 898 c 1,51,-1
 818 898 l 1,52,53
 815 823 815 823 801 769 c 128,-1,54
 787 715 787 715 763.5 680.5 c 128,-1,55
 740 646 740 646 711 629.5 c 128,-1,56
 682 613 682 613 651 613 c 0,57,58
 634 613 634 613 618 617 c 128,-1,59
 602 621 602 621 586 627.5 c 128,-1,60
 570 634 570 634 553.5 643.5 c 128,-1,61
 537 653 537 653 519 663 c 1,62,-1
 563 662 l 1,63,-1
 563 624 l 1,20,-1
EndSplineSet
EndChar

StartChar: Ocaron
Encoding: 465 465 124
Width: 750
GlyphClass: 1
Flags: W
LayerCount: 2
Fore
SplineSet
336 804 m 1,0,-1
 414 804 l 1,1,-1
 540 959 l 1,2,-1
 540 983 l 1,3,-1
 483 983 l 1,4,-1
 316 845 l 1,5,-1
 441 848 l 1,6,-1
 276 983 l 1,7,-1
 210 983 l 1,8,-1
 210 959 l 1,9,-1
 336 804 l 1,0,-1
376 -24 m 256,10,11
 303 -24 303 -24 244 0.5 c 128,-1,12
 185 25 185 25 142.5 73.5 c 128,-1,13
 100 122 100 122 77 192.5 c 128,-1,14
 54 263 54 263 54 355 c 0,15,16
 54 448 54 448 77 518.5 c 128,-1,17
 100 589 100 589 142.5 637 c 128,-1,18
 185 685 185 685 244 709.5 c 128,-1,19
 303 734 303 734 376 734 c 256,20,21
 449 734 449 734 508 709.5 c 128,-1,22
 567 685 567 685 609 637 c 128,-1,23
 651 589 651 589 674 518.5 c 128,-1,24
 697 448 697 448 697 355 c 0,25,26
 697 263 697 263 674 192.5 c 128,-1,27
 651 122 651 122 609 73.5 c 128,-1,28
 567 25 567 25 508 0.5 c 128,-1,29
 449 -24 449 -24 376 -24 c 256,10,11
376 62 m 256,30,31
 426 62 426 62 463.5 79 c 128,-1,32
 501 96 501 96 525.5 131.5 c 128,-1,33
 550 167 550 167 562.5 222.5 c 128,-1,34
 575 278 575 278 575 355 c 256,35,36
 575 432 575 432 562.5 487.5 c 128,-1,37
 550 543 550 543 525.5 578.5 c 128,-1,38
 501 614 501 614 463.5 631 c 128,-1,39
 426 648 426 648 376 648 c 256,40,41
 326 648 326 648 288.5 631 c 128,-1,42
 251 614 251 614 226 578.5 c 128,-1,43
 201 543 201 543 188.5 487.5 c 128,-1,44
 176 432 176 432 176 355 c 256,45,46
 176 278 176 278 188.5 222.5 c 128,-1,47
 201 167 201 167 226 131.5 c 128,-1,48
 251 96 251 96 288.5 79 c 128,-1,49
 326 62 326 62 376 62 c 256,30,31
EndSplineSet
EndChar

StartChar: Oogonek
Encoding: 490 490 125
Width: 751
GlyphClass: 1
Flags: W
LayerCount: 2
Fore
SplineSet
376 62 m 256,0,1
 427 62 427 62 464.5 78.5 c 128,-1,2
 502 95 502 95 526.5 130 c 128,-1,3
 551 165 551 165 563 220.5 c 128,-1,4
 575 276 575 276 575 355 c 256,5,6
 575 434 575 434 563 489.5 c 128,-1,7
 551 545 551 545 526.5 580 c 128,-1,8
 502 615 502 615 464.5 631.5 c 128,-1,9
 427 648 427 648 376 648 c 256,10,11
 325 648 325 648 288 631.5 c 128,-1,12
 251 615 251 615 226 580 c 128,-1,13
 201 545 201 545 188.5 489.5 c 128,-1,14
 176 434 176 434 176 355 c 256,15,16
 176 276 176 276 188.5 220.5 c 128,-1,17
 201 165 201 165 225.5 130 c 128,-1,18
 250 95 250 95 287.5 78.5 c 128,-1,19
 325 62 325 62 376 62 c 256,0,1
604 70 m 0,20,21
 585 49 585 49 560 27 c 128,-1,22
 535 5 535 5 510 -17 c 128,-1,23
 485 -39 485 -39 463.5 -61.5 c 128,-1,24
 442 -84 442 -84 429 -105 c 128,-1,25
 416 -126 416 -126 416 -147 c 0,26,27
 416 -163 416 -163 425.5 -173.5 c 128,-1,28
 435 -184 435 -184 457 -184 c 0,29,30
 482 -184 482 -184 500 -169.5 c 128,-1,31
 518 -155 518 -155 530 -139 c 1,32,-1
 576 -182 l 1,33,34
 560 -201 560 -201 540 -217 c 128,-1,35
 520 -233 520 -233 493.5 -242.5 c 128,-1,36
 467 -252 467 -252 430 -252 c 0,37,38
 391 -252 391 -252 360.5 -242 c 128,-1,39
 330 -232 330 -232 313 -211.5 c 128,-1,40
 296 -191 296 -191 296 -160 c 0,41,42
 296 -136 296 -136 305.5 -116 c 128,-1,43
 315 -96 315 -96 338 -75 c 128,-1,44
 361 -54 361 -54 400 -27.5 c 128,-1,45
 439 -1 439 -1 498 37 c 1,46,-1
 488 -5 l 1,47,48
 470 -11 470 -11 452 -15.5 c 128,-1,49
 434 -20 434 -20 415.5 -22 c 128,-1,50
 397 -24 397 -24 376 -24 c 0,51,52
 304 -24 304 -24 245 0.5 c 128,-1,53
 186 25 186 25 143 72.5 c 128,-1,54
 100 120 100 120 77 191 c 128,-1,55
 54 262 54 262 54 355 c 0,56,57
 54 449 54 449 77 519.5 c 128,-1,58
 100 590 100 590 143 638 c 128,-1,59
 186 686 186 686 245 710 c 128,-1,60
 304 734 304 734 376 734 c 256,61,62
 448 734 448 734 507 710 c 128,-1,63
 566 686 566 686 608.5 638 c 128,-1,64
 651 590 651 590 674 519.5 c 128,-1,65
 697 449 697 449 697 355 c 0,66,67
 697 294 697 294 686 241.5 c 128,-1,68
 675 189 675 189 654.5 146 c 128,-1,69
 634 103 634 103 604 70 c 0,20,21
EndSplineSet
EndChar

StartChar: Odblgrave
Encoding: 524 524 126
Width: 751
GlyphClass: 1
Flags: W
LayerCount: 2
Fore
SplineSet
475 928 m 2,0,-1
 517 829 l 1,1,-1
 517 792 l 1,2,-1
 471 792 l 1,3,-1
 401 853 l 2,4,5
 380 872 380 872 368.5 890.5 c 128,-1,6
 357 909 357 909 357 932 c 0,7,8
 357 951 357 951 371 964.5 c 128,-1,9
 385 978 385 978 409 978 c 0,10,11
 427 978 427 978 439.5 971 c 128,-1,12
 452 964 452 964 461 952.5 c 128,-1,13
 470 941 470 941 475 928 c 2,0,-1
286 928 m 2,14,-1
 325 829 l 1,15,-1
 325 792 l 1,16,-1
 280 792 l 1,17,-1
 210 853 l 2,18,19
 189 872 189 872 177 890.5 c 128,-1,20
 165 909 165 909 165 932 c 0,21,22
 165 951 165 951 179.5 964.5 c 128,-1,23
 194 978 194 978 218 978 c 0,24,25
 235 978 235 978 248.5 971 c 128,-1,26
 262 964 262 964 271.5 952.5 c 128,-1,27
 281 941 281 941 286 928 c 2,14,-1
376 -24 m 256,28,29
 303 -24 303 -24 244 0.5 c 128,-1,30
 185 25 185 25 142.5 73.5 c 128,-1,31
 100 122 100 122 77 192.5 c 128,-1,32
 54 263 54 263 54 355 c 0,33,34
 54 448 54 448 77 518.5 c 128,-1,35
 100 589 100 589 142.5 637 c 128,-1,36
 185 685 185 685 244 709.5 c 128,-1,37
 303 734 303 734 376 734 c 256,38,39
 449 734 449 734 508 709.5 c 128,-1,40
 567 685 567 685 609 637 c 128,-1,41
 651 589 651 589 674 518.5 c 128,-1,42
 697 448 697 448 697 355 c 0,43,44
 697 263 697 263 674 192.5 c 128,-1,45
 651 122 651 122 609 73.5 c 128,-1,46
 567 25 567 25 508 0.5 c 128,-1,47
 449 -24 449 -24 376 -24 c 256,28,29
376 62 m 256,48,49
 426 62 426 62 463.5 79 c 128,-1,50
 501 96 501 96 525.5 131.5 c 128,-1,51
 550 167 550 167 562.5 222.5 c 128,-1,52
 575 278 575 278 575 355 c 256,53,54
 575 432 575 432 562.5 487.5 c 128,-1,55
 550 543 550 543 525.5 578.5 c 128,-1,56
 501 614 501 614 463.5 631 c 128,-1,57
 426 648 426 648 376 648 c 256,58,59
 326 648 326 648 288.5 631 c 128,-1,60
 251 614 251 614 226 578.5 c 128,-1,61
 201 543 201 543 188.5 487.5 c 128,-1,62
 176 432 176 432 176 355 c 256,63,64
 176 278 176 278 188.5 222.5 c 128,-1,65
 201 167 201 167 226 131.5 c 128,-1,66
 251 96 251 96 288.5 79 c 128,-1,67
 326 62 326 62 376 62 c 256,48,49
EndSplineSet
EndChar

StartChar: Oinvertedbreve
Encoding: 526 526 127
Width: 751
GlyphClass: 1
Flags: W
LayerCount: 2
Fore
SplineSet
376 934 m 0,0,1
 319 934 319 934 281 917 c 128,-1,2
 243 900 243 900 223 862.5 c 128,-1,3
 203 825 203 825 202 763 c 1,4,-1
 282 763 l 1,5,6
 284 798 284 798 292.5 817 c 128,-1,7
 301 836 301 836 321 843 c 128,-1,8
 341 850 341 850 375 850 c 0,9,10
 407 850 407 850 426 843 c 128,-1,11
 445 836 445 836 454.5 817.5 c 128,-1,12
 464 799 464 799 465 763 c 1,13,-1
 550 763 l 1,14,15
 549 825 549 825 528 862.5 c 128,-1,16
 507 900 507 900 468.5 917 c 128,-1,17
 430 934 430 934 376 934 c 0,0,1
376 -24 m 256,18,19
 303 -24 303 -24 244 0.5 c 128,-1,20
 185 25 185 25 142.5 73.5 c 128,-1,21
 100 122 100 122 77 192.5 c 128,-1,22
 54 263 54 263 54 355 c 0,23,24
 54 448 54 448 77 518.5 c 128,-1,25
 100 589 100 589 142.5 637 c 128,-1,26
 185 685 185 685 244 709.5 c 128,-1,27
 303 734 303 734 376 734 c 256,28,29
 449 734 449 734 508 709.5 c 128,-1,30
 567 685 567 685 609 637 c 128,-1,31
 651 589 651 589 674 518.5 c 128,-1,32
 697 448 697 448 697 355 c 0,33,34
 697 263 697 263 674 192.5 c 128,-1,35
 651 122 651 122 609 73.5 c 128,-1,36
 567 25 567 25 508 0.5 c 128,-1,37
 449 -24 449 -24 376 -24 c 256,18,19
376 62 m 256,38,39
 426 62 426 62 463.5 79 c 128,-1,40
 501 96 501 96 525.5 131.5 c 128,-1,41
 550 167 550 167 562.5 222.5 c 128,-1,42
 575 278 575 278 575 355 c 256,43,44
 575 432 575 432 562.5 487.5 c 128,-1,45
 550 543 550 543 525.5 578.5 c 128,-1,46
 501 614 501 614 463.5 631 c 128,-1,47
 426 648 426 648 376 648 c 256,48,49
 326 648 326 648 288.5 631 c 128,-1,50
 251 614 251 614 226 578.5 c 128,-1,51
 201 543 201 543 188.5 487.5 c 128,-1,52
 176 432 176 432 176 355 c 256,53,54
 176 278 176 278 188.5 222.5 c 128,-1,55
 201 167 201 167 226 131.5 c 128,-1,56
 251 96 251 96 288.5 79 c 128,-1,57
 326 62 326 62 376 62 c 256,38,39
EndSplineSet
EndChar

StartChar: P
Encoding: 80 80 147
Width: 647
GlyphClass: 2
Flags: W
AnchorPoint: "Anchor-0" 319 741 basechar 0
LayerCount: 2
Fore
SplineSet
240 94 m 2,0,-1
 240 627 l 1,1,-1
 358 627 l 2,2,3
 399 627 399 627 426.5 611.5 c 128,-1,4
 454 596 454 596 468 566 c 128,-1,5
 482 536 482 536 482 494 c 0,6,7
 482 451 482 451 468 420 c 128,-1,8
 454 389 454 389 427 372.5 c 128,-1,9
 400 356 400 356 358 356 c 2,10,-1
 225 356 l 1,11,-1
 225 273 l 1,12,-1
 365 273 l 2,13,14
 434 273 434 273 487 298.5 c 128,-1,15
 540 324 540 324 570 374.5 c 128,-1,16
 600 425 600 425 600 499 c 0,17,18
 600 605 600 605 536.5 657.5 c 128,-1,19
 473 710 473 710 366 710 c 2,20,-1
 53 710 l 1,21,-1
 53 627 l 1,22,-1
 62 627 l 2,23,24
 87 627 87 627 106.5 620 c 128,-1,25
 126 613 126 613 126 590 c 2,26,-1
 126 120 l 2,27,28
 126 97 126 97 106.5 90 c 128,-1,29
 87 83 87 83 63 83 c 2,30,-1
 53 83 l 1,31,-1
 53 0 l 1,32,-1
 340 0 l 1,33,-1
 340 84 l 1,34,-1
 321 84 l 2,35,36
 305 84 305 84 290.5 84.5 c 128,-1,37
 276 85 276 85 265 86.5 c 128,-1,38
 254 88 254 88 247 89.5 c 128,-1,39
 240 91 240 91 240 94 c 2,0,-1
EndSplineSet
EndChar

StartChar: Q
Encoding: 81 81 148
Width: 751
GlyphClass: 1
Flags: W
LayerCount: 2
Fore
SplineSet
331 -3 m 1,0,-1
 421 12 l 1,1,2
 423 -46 423 -46 435 -80.5 c 128,-1,3
 447 -115 447 -115 474 -130 c 128,-1,4
 501 -145 501 -145 545 -145 c 0,5,6
 574 -145 574 -145 599 -140.5 c 128,-1,7
 624 -136 624 -136 647 -130 c 128,-1,8
 670 -124 670 -124 691 -118 c 1,9,-1
 691 -227 l 1,10,11
 664 -233 664 -233 626.5 -238 c 128,-1,12
 589 -243 589 -243 554 -243 c 0,13,14
 479 -243 479 -243 429 -216 c 128,-1,15
 379 -189 379 -189 355 -135.5 c 128,-1,16
 331 -82 331 -82 331 -3 c 1,0,-1
376 -24 m 256,17,18
 303 -24 303 -24 244 0.5 c 128,-1,19
 185 25 185 25 142.5 73.5 c 128,-1,20
 100 122 100 122 77 192.5 c 128,-1,21
 54 263 54 263 54 355 c 0,22,23
 54 448 54 448 77 518.5 c 128,-1,24
 100 589 100 589 142.5 637 c 128,-1,25
 185 685 185 685 244 709.5 c 128,-1,26
 303 734 303 734 376 734 c 256,27,28
 449 734 449 734 508 709.5 c 128,-1,29
 567 685 567 685 609 637 c 128,-1,30
 651 589 651 589 674 518.5 c 128,-1,31
 697 448 697 448 697 355 c 0,32,33
 697 263 697 263 674 192.5 c 128,-1,34
 651 122 651 122 609 73.5 c 128,-1,35
 567 25 567 25 508 0.5 c 128,-1,36
 449 -24 449 -24 376 -24 c 256,17,18
376 62 m 0,37,38
 425 62 425 62 464 79 c 128,-1,39
 503 96 503 96 529.5 131.5 c 128,-1,40
 556 167 556 167 570 222.5 c 128,-1,41
 584 278 584 278 584 355 c 0,42,43
 585 432 585 432 571 487.5 c 128,-1,44
 557 543 557 543 530.5 578.5 c 128,-1,45
 504 614 504 614 464.5 631 c 128,-1,46
 425 648 425 648 376 648 c 0,47,48
 326 648 326 648 288.5 631 c 128,-1,49
 251 614 251 614 226 578.5 c 128,-1,50
 201 543 201 543 188.5 487.5 c 128,-1,51
 176 432 176 432 176 355 c 256,52,53
 176 278 176 278 188.5 222.5 c 128,-1,54
 201 167 201 167 226 131.5 c 128,-1,55
 251 96 251 96 288.5 79 c 128,-1,56
 326 62 326 62 376 62 c 0,37,38
EndSplineSet
EndChar

StartChar: R
Encoding: 82 82 149
Width: 709
GlyphClass: 2
Flags: W
AnchorPoint: "Anchor-1" 397 0 basechar 0
AnchorPoint: "Anchor-0" 397 741 basechar 0
LayerCount: 2
Fore
SplineSet
361 322 m 1,0,-1
 526 0 l 1,1,-1
 682 0 l 1,2,-1
 682 84 l 1,3,-1
 673 84 l 2,4,5
 653 84 653 84 636.5 89 c 128,-1,6
 620 94 620 94 605.5 107.5 c 128,-1,7
 591 121 591 121 577 146 c 2,8,-1
 456 371 l 1,9,-1
 361 322 l 1,0,-1
240 94 m 2,10,-1
 240 627 l 1,11,-1
 362 627 l 2,12,13
 406 627 406 627 435 613.5 c 128,-1,14
 464 600 464 600 478 574 c 128,-1,15
 492 548 492 548 492 509 c 0,16,17
 492 469 492 469 478.5 438 c 128,-1,18
 465 407 465 407 435.5 389 c 128,-1,19
 406 371 406 371 356 371 c 2,20,-1
 227 371 l 1,21,-1
 227 291 l 1,22,-1
 398 291 l 2,23,24
 403 292 403 292 406 294 c 128,-1,25
 409 296 409 296 414 300 c 128,-1,26
 419 304 419 304 426 309 c 0,27,28
 480 321 480 321 519.5 348 c 128,-1,29
 559 375 559 375 580.5 418 c 128,-1,30
 602 461 602 461 602 519 c 0,31,32
 602 583 602 583 574.5 625.5 c 128,-1,33
 547 668 547 668 495 689 c 128,-1,34
 443 710 443 710 369 710 c 2,35,-1
 53 710 l 1,36,-1
 53 626 l 1,37,-1
 63 626 l 2,38,39
 87 626 87 626 106.5 619 c 128,-1,40
 126 612 126 612 126 589 c 2,41,-1
 126 120 l 2,42,43
 126 98 126 98 106.5 91 c 128,-1,44
 87 84 87 84 63 84 c 2,45,-1
 53 84 l 1,46,-1
 53 0 l 1,47,-1
 338 0 l 1,48,-1
 338 84 l 1,49,-1
 321 84 l 2,50,51
 305 84 305 84 290.5 84.5 c 128,-1,52
 276 85 276 85 265 86.5 c 128,-1,53
 254 88 254 88 247 89.5 c 128,-1,54
 240 91 240 91 240 94 c 2,10,-1
EndSplineSet
EndChar

StartChar: Rcaron
Encoding: 344 344 152
Width: 709
GlyphClass: 1
Flags: W
LayerCount: 2
Fore
SplineSet
306 804 m 1,0,-1
 385 804 l 1,1,-1
 510 959 l 1,2,-1
 510 983 l 1,3,-1
 453 983 l 1,4,-1
 286 845 l 1,5,-1
 411 848 l 1,6,-1
 246 983 l 1,7,-1
 180 983 l 1,8,-1
 180 959 l 1,9,-1
 306 804 l 1,0,-1
361 322 m 1,10,-1
 526 0 l 1,11,-1
 682 0 l 1,12,-1
 682 84 l 1,13,-1
 673 84 l 2,14,15
 653 84 653 84 636.5 89 c 128,-1,16
 620 94 620 94 605.5 107.5 c 128,-1,17
 591 121 591 121 577 146 c 2,18,-1
 456 371 l 1,19,-1
 361 322 l 1,10,-1
240 94 m 2,20,-1
 240 627 l 1,21,-1
 362 627 l 2,22,23
 406 627 406 627 435 613.5 c 128,-1,24
 464 600 464 600 478 574 c 128,-1,25
 492 548 492 548 492 509 c 0,26,27
 492 469 492 469 478.5 438 c 128,-1,28
 465 407 465 407 435.5 389 c 128,-1,29
 406 371 406 371 356 371 c 2,30,-1
 227 371 l 1,31,-1
 227 291 l 1,32,-1
 398 291 l 2,33,34
 403 292 403 292 406 294 c 128,-1,35
 409 296 409 296 414 300 c 128,-1,36
 419 304 419 304 426 309 c 0,37,38
 480 321 480 321 519.5 348 c 128,-1,39
 559 375 559 375 580.5 418 c 128,-1,40
 602 461 602 461 602 519 c 0,41,42
 602 583 602 583 574.5 625.5 c 128,-1,43
 547 668 547 668 495 689 c 128,-1,44
 443 710 443 710 369 710 c 2,45,-1
 53 710 l 1,46,-1
 53 626 l 1,47,-1
 63 626 l 2,48,49
 87 626 87 626 106.5 619 c 128,-1,50
 126 612 126 612 126 589 c 2,51,-1
 126 120 l 2,52,53
 126 98 126 98 106.5 91 c 128,-1,54
 87 84 87 84 63 84 c 2,55,-1
 53 84 l 1,56,-1
 53 0 l 1,57,-1
 338 0 l 1,58,-1
 338 84 l 1,59,-1
 321 84 l 2,60,61
 305 84 305 84 290.5 84.5 c 128,-1,62
 276 85 276 85 265 86.5 c 128,-1,63
 254 88 254 88 247 89.5 c 128,-1,64
 240 91 240 91 240 94 c 2,20,-1
EndSplineSet
EndChar

StartChar: Rdblgrave
Encoding: 528 528 153
Width: 709
GlyphClass: 1
Flags: W
LayerCount: 2
Fore
SplineSet
444 928 m 2,0,-1
 485 829 l 1,1,-1
 485 792 l 1,2,-1
 439 792 l 1,3,-1
 370 853 l 2,4,5
 348 872 348 872 336.5 890.5 c 128,-1,6
 325 909 325 909 325 932 c 0,7,8
 325 951 325 951 339 964.5 c 128,-1,9
 353 978 353 978 377 978 c 0,10,11
 395 978 395 978 407.5 971 c 128,-1,12
 420 964 420 964 429 952.5 c 128,-1,13
 438 941 438 941 444 928 c 2,0,-1
255 928 m 2,14,-1
 293 829 l 1,15,-1
 293 792 l 1,16,-1
 248 792 l 1,17,-1
 179 853 l 2,18,19
 157 872 157 872 145 890.5 c 128,-1,20
 133 909 133 909 133 932 c 0,21,22
 133 951 133 951 147.5 964.5 c 128,-1,23
 162 978 162 978 186 978 c 0,24,25
 204 978 204 978 217 971 c 128,-1,26
 230 964 230 964 239.5 952.5 c 128,-1,27
 249 941 249 941 255 928 c 2,14,-1
361 322 m 1,28,-1
 526 0 l 1,29,-1
 682 0 l 1,30,-1
 682 84 l 1,31,-1
 673 84 l 2,32,33
 653 84 653 84 636.5 89 c 128,-1,34
 620 94 620 94 605.5 107.5 c 128,-1,35
 591 121 591 121 577 146 c 2,36,-1
 456 371 l 1,37,-1
 361 322 l 1,28,-1
240 94 m 2,38,-1
 240 627 l 1,39,-1
 362 627 l 2,40,41
 406 627 406 627 435 613.5 c 128,-1,42
 464 600 464 600 478 574 c 128,-1,43
 492 548 492 548 492 509 c 0,44,45
 492 469 492 469 478.5 438 c 128,-1,46
 465 407 465 407 435.5 389 c 128,-1,47
 406 371 406 371 356 371 c 2,48,-1
 227 371 l 1,49,-1
 227 291 l 1,50,-1
 398 291 l 2,51,52
 403 292 403 292 406 294 c 128,-1,53
 409 296 409 296 414 300 c 128,-1,54
 419 304 419 304 426 309 c 0,55,56
 480 321 480 321 519.5 348 c 128,-1,57
 559 375 559 375 580.5 418 c 128,-1,58
 602 461 602 461 602 520 c 0,59,60
 602 583 602 583 574.5 625.5 c 128,-1,61
 547 668 547 668 495 689 c 128,-1,62
 443 710 443 710 369 710 c 2,63,-1
 53 710 l 1,64,-1
 53 626 l 1,65,-1
 63 626 l 2,66,67
 87 626 87 626 106.5 619 c 128,-1,68
 126 612 126 612 126 590 c 2,69,-1
 126 120 l 2,70,71
 126 98 126 98 106.5 91 c 128,-1,72
 87 84 87 84 63 84 c 2,73,-1
 53 84 l 1,74,-1
 53 0 l 1,75,-1
 338 0 l 1,76,-1
 338 84 l 1,77,-1
 321 84 l 2,78,79
 305 84 305 84 290.5 84.5 c 128,-1,80
 276 85 276 85 265 86.5 c 128,-1,81
 254 88 254 88 247 89.5 c 128,-1,82
 240 91 240 91 240 94 c 2,38,-1
EndSplineSet
EndChar

StartChar: Rinvertedbreve
Encoding: 530 530 154
Width: 709
GlyphClass: 1
Flags: W
LayerCount: 2
Fore
SplineSet
346 934 m 0,0,1
 290 934 290 934 252 917 c 128,-1,2
 214 900 214 900 194 862.5 c 128,-1,3
 174 825 174 825 173 763 c 1,4,-1
 253 763 l 1,5,6
 255 798 255 798 263.5 817 c 128,-1,7
 272 836 272 836 291.5 843 c 128,-1,8
 311 850 311 850 346 850 c 0,9,10
 378 850 378 850 397 843 c 128,-1,11
 416 836 416 836 425 817.5 c 128,-1,12
 434 799 434 799 436 763 c 1,13,-1
 520 763 l 1,14,15
 519 825 519 825 498 862.5 c 128,-1,16
 477 900 477 900 438.5 917 c 128,-1,17
 400 934 400 934 346 934 c 0,0,1
361 322 m 1,18,-1
 526 0 l 1,19,-1
 682 0 l 1,20,-1
 682 84 l 1,21,-1
 673 84 l 2,22,23
 653 84 653 84 636.5 89 c 128,-1,24
 620 94 620 94 605.5 107.5 c 128,-1,25
 591 121 591 121 577 146 c 2,26,-1
 456 371 l 1,27,-1
 361 322 l 1,18,-1
240 94 m 2,28,-1
 240 627 l 1,29,-1
 362 627 l 2,30,31
 406 627 406 627 435 613.5 c 128,-1,32
 464 600 464 600 478 574 c 128,-1,33
 492 548 492 548 492 509 c 0,34,35
 492 469 492 469 478.5 438 c 128,-1,36
 465 407 465 407 435.5 389 c 128,-1,37
 406 371 406 371 356 371 c 2,38,-1
 227 371 l 1,39,-1
 227 291 l 1,40,-1
 398 291 l 2,41,42
 403 292 403 292 406 294 c 128,-1,43
 409 296 409 296 414 300 c 128,-1,44
 419 304 419 304 426 309 c 0,45,46
 480 321 480 321 519.5 348 c 128,-1,47
 559 375 559 375 580.5 418 c 128,-1,48
 602 461 602 461 602 519 c 0,49,50
 602 583 602 583 574.5 625.5 c 128,-1,51
 547 668 547 668 495 689 c 128,-1,52
 443 710 443 710 369 710 c 2,53,-1
 53 710 l 1,54,-1
 53 626 l 1,55,-1
 63 626 l 2,56,57
 87 626 87 626 106.5 619 c 128,-1,58
 126 612 126 612 126 589 c 2,59,-1
 126 120 l 2,60,61
 126 98 126 98 106.5 91 c 128,-1,62
 87 84 87 84 63 84 c 2,63,-1
 53 84 l 1,64,-1
 53 0 l 1,65,-1
 338 0 l 1,66,-1
 338 84 l 1,67,-1
 321 84 l 2,68,69
 305 84 305 84 290.5 84.5 c 128,-1,70
 276 85 276 85 265 86.5 c 128,-1,71
 254 88 254 88 247 89.5 c 128,-1,72
 240 91 240 91 240 94 c 2,28,-1
EndSplineSet
EndChar

StartChar: S
Encoding: 83 83 157
Width: 613
GlyphClass: 2
Flags: W
AnchorPoint: "Anchor-1" 336 0 basechar 0
AnchorPoint: "Anchor-0" 336 741 basechar 0
LayerCount: 2
Fore
SplineSet
335 57 m 0,0,1
 379 57 379 57 406.5 68 c 128,-1,2
 434 79 434 79 446.5 103.5 c 128,-1,3
 459 128 459 128 459 171 c 0,4,5
 459 208 459 208 445.5 231.5 c 128,-1,6
 432 255 432 255 407.5 270.5 c 128,-1,7
 383 286 383 286 351 296.5 c 128,-1,8
 319 307 319 307 282 316 c 0,9,10
 239 328 239 328 201 342 c 128,-1,11
 163 356 163 356 134.5 379 c 128,-1,12
 106 402 106 402 89.5 441 c 128,-1,13
 73 480 73 480 73 542 c 0,14,15
 73 603 73 603 97 646 c 128,-1,16
 121 689 121 689 168 711.5 c 128,-1,17
 215 734 215 734 284 734 c 0,18,19
 342 734 342 734 382.5 714 c 128,-1,20
 423 694 423 694 444 650.5 c 128,-1,21
 465 607 465 607 466 537 c 1,22,-1
 442 586 l 1,23,-1
 457 720 l 1,24,-1
 533 720 l 1,25,-1
 533 506 l 1,26,-1
 452 506 l 1,27,28
 440 552 440 552 420 585 c 128,-1,29
 400 618 400 618 368 636 c 128,-1,30
 336 654 336 654 287 654 c 0,31,32
 249 654 249 654 224.5 642.5 c 128,-1,33
 200 631 200 631 188.5 608 c 128,-1,34
 177 585 177 585 177 549 c 0,35,36
 177 515 177 515 188 494 c 128,-1,37
 199 473 199 473 220.5 460 c 128,-1,38
 242 447 242 447 273 437.5 c 128,-1,39
 304 428 304 428 345 416 c 0,40,41
 385 405 385 405 424.5 391 c 128,-1,42
 464 377 464 377 496.5 353.5 c 128,-1,43
 529 330 529 330 548 290.5 c 128,-1,44
 567 251 567 251 567 191 c 0,45,46
 567 115 567 115 538.5 68 c 128,-1,47
 510 21 510 21 459 -1.5 c 128,-1,48
 408 -24 408 -24 339 -24 c 0,49,50
 274 -24 274 -24 226.5 -2.5 c 128,-1,51
 179 19 179 19 151.5 68.5 c 128,-1,52
 124 118 124 118 119 200 c 1,53,-1
 146 154 l 1,54,-1
 132 -7 l 1,55,-1
 58 -7 l 1,56,-1
 58 233 l 1,57,-1
 142 233 l 1,58,59
 155 173 155 173 178.5 134.5 c 128,-1,60
 202 96 202 96 240.5 76.5 c 128,-1,61
 279 57 279 57 335 57 c 0,0,1
EndSplineSet
EndChar

StartChar: Scaron
Encoding: 352 352 161
Width: 613
GlyphClass: 1
Flags: W
LayerCount: 2
Fore
SplineSet
273 804 m 1,0,-1
 351 804 l 1,1,-1
 476 959 l 1,2,-1
 476 983 l 1,3,-1
 420 983 l 1,4,-1
 252 845 l 1,5,-1
 378 848 l 1,6,-1
 212 983 l 1,7,-1
 147 983 l 1,8,-1
 147 959 l 1,9,-1
 273 804 l 1,0,-1
335 57 m 0,10,11
 379 57 379 57 406.5 68 c 128,-1,12
 434 79 434 79 446.5 103.5 c 128,-1,13
 459 128 459 128 459 171 c 0,14,15
 459 208 459 208 445.5 231.5 c 128,-1,16
 432 255 432 255 407.5 270.5 c 128,-1,17
 383 286 383 286 351 296.5 c 128,-1,18
 319 307 319 307 282 316 c 0,19,20
 239 328 239 328 201 342 c 128,-1,21
 163 356 163 356 134.5 379 c 128,-1,22
 106 402 106 402 89.5 441 c 128,-1,23
 73 480 73 480 73 542 c 0,24,25
 73 603 73 603 97 646 c 128,-1,26
 121 689 121 689 168 711.5 c 128,-1,27
 215 734 215 734 284 734 c 0,28,29
 342 734 342 734 382.5 714 c 128,-1,30
 423 694 423 694 444 650.5 c 128,-1,31
 465 607 465 607 466 537 c 1,32,-1
 442 586 l 1,33,-1
 457 720 l 1,34,-1
 533 720 l 1,35,-1
 533 506 l 1,36,-1
 452 506 l 1,37,38
 440 552 440 552 420 585 c 128,-1,39
 400 618 400 618 368 636 c 128,-1,40
 336 654 336 654 287 654 c 0,41,42
 249 654 249 654 224.5 642.5 c 128,-1,43
 200 631 200 631 188.5 608 c 128,-1,44
 177 585 177 585 177 549 c 0,45,46
 177 515 177 515 188 494 c 128,-1,47
 199 473 199 473 220.5 460 c 128,-1,48
 242 447 242 447 273 437.5 c 128,-1,49
 304 428 304 428 345 416 c 0,50,51
 385 405 385 405 424.5 391 c 128,-1,52
 464 377 464 377 496.5 353.5 c 128,-1,53
 529 330 529 330 548 290.5 c 128,-1,54
 567 251 567 251 567 191 c 0,55,56
 567 115 567 115 538.5 68 c 128,-1,57
 510 21 510 21 459 -1.5 c 128,-1,58
 408 -24 408 -24 339 -24 c 0,59,60
 274 -24 274 -24 226.5 -2.5 c 128,-1,61
 179 19 179 19 151.5 68.5 c 128,-1,62
 124 118 124 118 119 200 c 1,63,-1
 146 154 l 1,64,-1
 132 -7 l 1,65,-1
 58 -7 l 1,66,-1
 58 233 l 1,67,-1
 142 233 l 1,68,69
 155 173 155 173 178.5 134.5 c 128,-1,70
 202 96 202 96 240.5 76.5 c 128,-1,71
 279 57 279 57 335 57 c 0,10,11
EndSplineSet
EndChar

StartChar: Scarondotaccent
Encoding: 7782 7782 166
Width: 613
GlyphClass: 1
Flags: W
LayerCount: 2
Fore
SplineSet
270 804 m 1,0,-1
 349 804 l 1,1,-1
 474 959 l 1,2,-1
 474 983 l 1,3,-1
 417 983 l 1,4,-1
 250 845 l 1,5,-1
 376 848 l 1,6,-1
 210 983 l 1,7,-1
 144 983 l 1,8,-1
 144 959 l 1,9,-1
 270 804 l 1,0,-1
335 57 m 0,10,11
 379 57 379 57 406.5 68 c 128,-1,12
 434 79 434 79 446.5 103.5 c 128,-1,13
 459 128 459 128 459 171 c 0,14,15
 459 208 459 208 445.5 231.5 c 128,-1,16
 432 255 432 255 407.5 270.5 c 128,-1,17
 383 286 383 286 351 296.5 c 128,-1,18
 319 307 319 307 282 316 c 0,19,20
 239 328 239 328 201 342 c 128,-1,21
 163 356 163 356 134.5 379 c 128,-1,22
 106 402 106 402 89.5 441 c 128,-1,23
 73 480 73 480 73 542 c 0,24,25
 73 603 73 603 97 646 c 128,-1,26
 121 689 121 689 168 711.5 c 128,-1,27
 215 734 215 734 284 734 c 0,28,29
 342 734 342 734 382.5 714 c 128,-1,30
 423 694 423 694 444 650.5 c 128,-1,31
 465 607 465 607 466 537 c 1,32,-1
 442 586 l 1,33,-1
 457 720 l 1,34,-1
 533 720 l 1,35,-1
 533 506 l 1,36,-1
 452 506 l 1,37,38
 440 552 440 552 420 585 c 128,-1,39
 400 618 400 618 368 636 c 128,-1,40
 336 654 336 654 287 654 c 0,41,42
 249 654 249 654 224.5 642.5 c 128,-1,43
 200 631 200 631 188.5 608 c 128,-1,44
 177 585 177 585 177 549 c 0,45,46
 177 515 177 515 188 494 c 128,-1,47
 199 473 199 473 220.5 460 c 128,-1,48
 242 447 242 447 273 437.5 c 128,-1,49
 304 428 304 428 345 416 c 0,50,51
 385 405 385 405 424.5 391 c 128,-1,52
 464 377 464 377 496.5 353.5 c 128,-1,53
 529 330 529 330 548 290.5 c 128,-1,54
 567 251 567 251 567 191 c 0,55,56
 567 115 567 115 538.5 68 c 128,-1,57
 510 21 510 21 459 -1.5 c 128,-1,58
 408 -24 408 -24 339 -24 c 0,59,60
 274 -24 274 -24 226.5 -2.5 c 128,-1,61
 179 19 179 19 151.5 68.5 c 128,-1,62
 124 118 124 118 119 200 c 1,63,-1
 146 154 l 1,64,-1
 132 -7 l 1,65,-1
 58 -7 l 1,66,-1
 58 233 l 1,67,-1
 142 233 l 1,68,69
 155 173 155 173 178.5 134.5 c 128,-1,70
 202 96 202 96 240.5 76.5 c 128,-1,71
 279 57 279 57 335 57 c 0,10,11
310 1007 m 0,72,73
 271 1007 271 1007 250 1026.5 c 128,-1,74
 229 1046 229 1046 229 1084 c 0,75,76
 229 1120 229 1120 250 1140.5 c 128,-1,77
 271 1161 271 1161 310 1161 c 0,78,79
 348 1161 348 1161 369 1140.5 c 128,-1,80
 390 1120 390 1120 390 1084 c 0,81,82
 390 1046 390 1046 369 1026.5 c 128,-1,83
 348 1007 348 1007 310 1007 c 0,72,73
EndSplineSet
EndChar

StartChar: T
Encoding: 84 84 168
Width: 680
GlyphClass: 2
Flags: W
AnchorPoint: "Anchor-1" 345 0 basechar 0
AnchorPoint: "Anchor-0" 345 741 basechar 0
LayerCount: 2
Fore
SplineSet
283 121 m 2,0,-1
 283 627 l 1,1,-1
 228 627 l 2,2,3
 190 627 190 627 172 620.5 c 128,-1,4
 154 614 154 614 148 601 c 128,-1,5
 142 588 142 588 139 568 c 2,6,-1
 128 468 l 1,7,-1
 47 468 l 1,8,-1
 47 710 l 1,9,-1
 633 710 l 1,10,-1
 633 468 l 1,11,-1
 552 468 l 1,12,-1
 541 568 l 2,13,14
 539 588 539 588 532.5 601 c 128,-1,15
 526 614 526 614 508 620.5 c 128,-1,16
 490 627 490 627 452 627 c 2,17,-1
 397 627 l 1,18,-1
 397 120 l 2,19,20
 397 98 397 98 419.5 91 c 128,-1,21
 442 84 442 84 470 84 c 2,22,-1
 488 84 l 1,23,-1
 488 0 l 1,24,-1
 193 0 l 1,25,-1
 193 84 l 1,26,-1
 211 84 l 2,27,28
 239 84 239 84 261 91 c 128,-1,29
 283 98 283 98 283 121 c 2,0,-1
EndSplineSet
EndChar

StartChar: Tcaron
Encoding: 356 356 170
Width: 680
GlyphClass: 1
Flags: W
LayerCount: 2
Fore
SplineSet
295 804 m 1,0,-1
 373 804 l 1,1,-1
 499 959 l 1,2,-1
 499 983 l 1,3,-1
 442 983 l 1,4,-1
 274 845 l 1,5,-1
 400 848 l 1,6,-1
 235 983 l 1,7,-1
 169 983 l 1,8,-1
 169 959 l 1,9,-1
 295 804 l 1,0,-1
283 120 m 2,10,-1
 283 627 l 1,11,-1
 228 627 l 2,12,13
 190 627 190 627 172 620.5 c 128,-1,14
 154 614 154 614 148 601 c 128,-1,15
 142 588 142 588 139 568 c 2,16,-1
 128 468 l 1,17,-1
 47 468 l 1,18,-1
 47 710 l 1,19,-1
 633 710 l 1,20,-1
 633 468 l 1,21,-1
 552 468 l 1,22,-1
 541 568 l 2,23,24
 539 588 539 588 532.5 601 c 128,-1,25
 526 614 526 614 507.5 620.5 c 128,-1,26
 489 627 489 627 452 627 c 2,27,-1
 397 627 l 1,28,-1
 397 120 l 2,29,30
 397 98 397 98 419.5 91 c 128,-1,31
 442 84 442 84 470 84 c 2,32,-1
 488 84 l 1,33,-1
 488 0 l 1,34,-1
 193 0 l 1,35,-1
 193 84 l 1,36,-1
 211 84 l 2,37,38
 239 84 239 84 261 91 c 128,-1,39
 283 98 283 98 283 120 c 2,10,-1
EndSplineSet
EndChar

StartChar: U
Encoding: 85 85 174
Width: 751
GlyphClass: 2
Flags: W
AnchorPoint: "Anchor-2" 430 0 basechar 0
AnchorPoint: "Anchor-1" 380 0 basechar 0
AnchorPoint: "Anchor-0" 380 741 basechar 0
LayerCount: 2
Fore
SplineSet
232 254 m 2,0,1
 232 201 232 201 244 165 c 128,-1,2
 256 129 256 129 277 107 c 128,-1,3
 298 85 298 85 327.5 75.5 c 128,-1,4
 357 66 357 66 391 66 c 0,5,6
 427 66 427 66 455.5 76 c 128,-1,7
 484 86 484 86 504.5 107.5 c 128,-1,8
 525 129 525 129 535.5 165 c 128,-1,9
 546 201 546 201 546 254 c 2,10,-1
 546 607 l 2,11,12
 546 612 546 612 539 615.5 c 128,-1,13
 532 619 532 619 522.5 621 c 128,-1,14
 513 623 513 623 502 624.5 c 128,-1,15
 491 626 491 626 481 626 c 2,16,-1
 473 626 l 1,17,-1
 473 710 l 1,18,-1
 707 710 l 1,19,-1
 707 626 l 1,20,-1
 697 626 l 2,21,22
 682 626 682 626 668 622 c 128,-1,23
 654 618 654 618 645.5 608 c 128,-1,24
 637 598 637 598 637 582 c 2,25,-1
 637 234 l 2,26,27
 637 165 637 165 616.5 115.5 c 128,-1,28
 596 66 596 66 560 35 c 128,-1,29
 524 4 524 4 478 -10 c 128,-1,30
 432 -24 432 -24 382 -24 c 0,31,32
 326 -24 326 -24 278 -9.5 c 128,-1,33
 230 5 230 5 193.5 36 c 128,-1,34
 157 67 157 67 137.5 116 c 128,-1,35
 118 165 118 165 118 235 c 2,36,-1
 118 590 l 2,37,38
 118 612 118 612 98.5 619 c 128,-1,39
 79 626 79 626 54 626 c 2,40,-1
 44 626 l 1,41,-1
 44 710 l 1,42,-1
 314 710 l 1,43,-1
 314 626 l 1,44,-1
 305 626 l 2,45,46
 294 626 294 626 280.5 625.5 c 128,-1,47
 267 625 267 625 256 623.5 c 128,-1,48
 245 622 245 622 238.5 620.5 c 128,-1,49
 232 619 232 619 232 616 c 2,50,-1
 232 254 l 2,0,1
EndSplineSet
EndChar

StartChar: Uogonek
Encoding: 370 370 184
Width: 751
GlyphClass: 1
Flags: W
LayerCount: 2
Fore
SplineSet
489 41 m 1,0,-1
 488 -3 l 1,1,2
 464 -14 464 -14 437.5 -19 c 128,-1,3
 411 -24 411 -24 382 -24 c 0,4,5
 324 -24 324 -24 276 -9.5 c 128,-1,6
 228 5 228 5 191.5 36 c 128,-1,7
 155 67 155 67 136.5 116 c 128,-1,8
 118 165 118 165 118 235 c 2,9,-1
 118 590 l 2,10,11
 118 612 118 612 101.5 619 c 128,-1,12
 85 626 85 626 54 626 c 2,13,-1
 44 626 l 1,14,-1
 44 710 l 1,15,-1
 314 710 l 1,16,-1
 314 627 l 1,17,-1
 306 627 l 2,18,19
 294 627 294 627 280.5 626 c 128,-1,20
 267 625 267 625 256 623.5 c 128,-1,21
 245 622 245 622 238.5 620.5 c 128,-1,22
 232 619 232 619 232 616 c 2,23,-1
 232 240 l 2,24,25
 232 191 232 191 243.5 158 c 128,-1,26
 255 125 255 125 276.5 105 c 128,-1,27
 298 85 298 85 328 76.5 c 128,-1,28
 358 68 358 68 394 68 c 256,29,30
 430 68 430 68 458 76.5 c 128,-1,31
 486 85 486 85 506 105 c 128,-1,32
 526 125 526 125 536.5 158 c 128,-1,33
 547 191 547 191 547 240 c 2,34,-1
 547 607 l 2,35,36
 547 612 547 612 541 615.5 c 128,-1,37
 535 619 535 619 526.5 621 c 128,-1,38
 518 623 518 623 506 624.5 c 128,-1,39
 494 626 494 626 481 626 c 2,40,-1
 473 626 l 1,41,-1
 473 710 l 1,42,-1
 707 710 l 1,43,-1
 707 626 l 1,44,-1
 697 626 l 2,45,46
 677 626 677 626 663.5 622 c 128,-1,47
 650 618 650 618 643 608 c 128,-1,48
 636 598 636 598 636 582 c 2,49,-1
 636 234 l 2,50,51
 636 189 636 189 626 152.5 c 128,-1,52
 616 116 616 116 600 87.5 c 128,-1,53
 584 59 584 59 565 38 c 0,54,55
 544 16 544 16 517.5 -5.5 c 128,-1,56
 491 -27 491 -27 466.5 -48.5 c 128,-1,57
 442 -70 442 -70 426 -94 c 128,-1,58
 410 -118 410 -118 410 -147 c 0,59,60
 410 -158 410 -158 417.5 -168.5 c 128,-1,61
 425 -179 425 -179 447 -179 c 0,62,63
 475 -179 475 -179 491.5 -166 c 128,-1,64
 508 -153 508 -153 520 -138 c 1,65,-1
 565 -182 l 1,66,67
 541 -213 541 -213 507.5 -232.5 c 128,-1,68
 474 -252 474 -252 420 -252 c 0,69,70
 384 -252 384 -252 354.5 -242.5 c 128,-1,71
 325 -233 325 -233 308.5 -212.5 c 128,-1,72
 292 -192 292 -192 292 -160 c 0,73,74
 292 -136 292 -136 301 -116 c 128,-1,75
 310 -96 310 -96 331.5 -75 c 128,-1,76
 353 -54 353 -54 391.5 -26 c 128,-1,77
 430 2 430 2 489 41 c 1,0,-1
EndSplineSet
EndChar

StartChar: Uhorn
Encoding: 431 431 185
Width: 860
GlyphClass: 2
Flags: W
AnchorPoint: "Anchor-1" 434 -35 basechar 0
AnchorPoint: "Anchor-0" 434 663 basechar 0
LayerCount: 2
Fore
SplineSet
118 235 m 2,0,-1
 118 590 l 2,1,2
 118 612 118 612 101.5 619 c 128,-1,3
 85 626 85 626 54 626 c 2,4,-1
 44 626 l 1,5,-1
 44 710 l 1,6,-1
 314 710 l 1,7,-1
 314 627 l 1,8,-1
 306 627 l 2,9,10
 294 627 294 627 280.5 626 c 128,-1,11
 267 625 267 625 256 623.5 c 128,-1,12
 245 622 245 622 238.5 620.5 c 128,-1,13
 232 619 232 619 232 616 c 2,14,-1
 232 240 l 2,15,16
 232 191 232 191 244 157.5 c 128,-1,17
 256 124 256 124 277.5 104.5 c 128,-1,18
 299 85 299 85 328.5 76 c 128,-1,19
 358 67 358 67 395 67 c 0,20,21
 439 67 439 67 473 83 c 128,-1,22
 507 99 507 99 527 137 c 128,-1,23
 547 175 547 175 547 240 c 2,24,-1
 547 607 l 2,25,26
 547 612 547 612 541 615.5 c 128,-1,27
 535 619 535 619 526.5 621 c 128,-1,28
 518 623 518 623 506 624.5 c 128,-1,29
 494 626 494 626 481 626 c 2,30,-1
 473 626 l 1,31,-1
 473 710 l 1,32,-1
 674 710 l 2,33,34
 706 710 706 710 728 722 c 128,-1,35
 750 734 750 734 763.5 758 c 128,-1,36
 777 782 777 782 783.5 817 c 128,-1,37
 790 852 790 852 793 898 c 1,38,-1
 895 898 l 1,39,40
 893 844 893 844 886 802 c 128,-1,41
 879 760 879 760 865 729 c 128,-1,42
 851 698 851 698 828 677.5 c 128,-1,43
 805 657 805 657 771 644.5 c 128,-1,44
 737 632 737 632 690 627 c 0,45,46
 673 626 673 626 661 622 c 128,-1,47
 649 618 649 618 642.5 609 c 128,-1,48
 636 600 636 600 636 584 c 2,49,-1
 636 234 l 2,50,51
 636 164 636 164 616.5 115 c 128,-1,52
 597 66 597 66 562 35 c 128,-1,53
 527 4 527 4 480.5 -10 c 128,-1,54
 434 -24 434 -24 382 -24 c 0,55,56
 324 -24 324 -24 276 -9.5 c 128,-1,57
 228 5 228 5 191.5 36 c 128,-1,58
 155 67 155 67 136.5 116 c 128,-1,59
 118 165 118 165 118 235 c 2,0,-1
EndSplineSet
EndChar

StartChar: Ucaron
Encoding: 467 467 186
Width: 751
GlyphClass: 1
Flags: W
LayerCount: 2
Fore
SplineSet
348 804 m 1,0,-1
 427 804 l 1,1,-1
 552 959 l 1,2,-1
 552 983 l 1,3,-1
 495 983 l 1,4,-1
 328 845 l 1,5,-1
 453 848 l 1,6,-1
 288 983 l 1,7,-1
 222 983 l 1,8,-1
 222 959 l 1,9,-1
 348 804 l 1,0,-1
232 254 m 2,10,11
 232 201 232 201 244 165 c 128,-1,12
 256 129 256 129 277 107 c 128,-1,13
 298 85 298 85 327.5 75.5 c 128,-1,14
 357 66 357 66 391 66 c 0,15,16
 427 66 427 66 455.5 76 c 128,-1,17
 484 86 484 86 504.5 107.5 c 128,-1,18
 525 129 525 129 535.5 165 c 128,-1,19
 546 201 546 201 546 254 c 2,20,-1
 546 607 l 2,21,22
 546 612 546 612 539.5 615.5 c 128,-1,23
 533 619 533 619 523 621 c 128,-1,24
 513 623 513 623 502 624.5 c 128,-1,25
 491 626 491 626 481 626 c 2,26,-1
 473 626 l 1,27,-1
 473 710 l 1,28,-1
 707 710 l 1,29,-1
 707 626 l 1,30,-1
 697 626 l 2,31,32
 682 626 682 626 668 622 c 128,-1,33
 654 618 654 618 645.5 608 c 128,-1,34
 637 598 637 598 637 582 c 2,35,-1
 637 234 l 2,36,37
 637 165 637 165 616.5 115.5 c 128,-1,38
 596 66 596 66 560 35 c 128,-1,39
 524 4 524 4 478 -10 c 128,-1,40
 432 -24 432 -24 382 -24 c 0,41,42
 326 -24 326 -24 278 -9.5 c 128,-1,43
 230 5 230 5 193.5 36 c 128,-1,44
 157 67 157 67 137.5 116 c 128,-1,45
 118 165 118 165 118 235 c 2,46,-1
 118 590 l 2,47,48
 118 612 118 612 98 619 c 128,-1,49
 78 626 78 626 54 626 c 2,50,-1
 44 626 l 1,51,-1
 44 710 l 1,52,-1
 314 710 l 1,53,-1
 314 626 l 1,54,-1
 306 626 l 2,55,56
 294 626 294 626 280.5 625.5 c 128,-1,57
 267 625 267 625 256 623.5 c 128,-1,58
 245 622 245 622 238.5 620.5 c 128,-1,59
 232 619 232 619 232 616 c 2,60,-1
 232 254 l 2,10,11
EndSplineSet
EndChar

StartChar: Udieresiscaron
Encoding: 473 473 187
Width: 754
GlyphClass: 1
Flags: W
LayerCount: 2
Fore
SplineSet
347 982 m 1,0,-1
 426 982 l 1,1,-1
 551 1136 l 1,2,-1
 551 1161 l 1,3,-1
 494 1161 l 1,4,-1
 327 1023 l 1,5,-1
 452 1026 l 1,6,-1
 287 1161 l 1,7,-1
 221 1161 l 1,8,-1
 221 1136 l 1,9,-1
 347 982 l 1,0,-1
232 254 m 2,10,11
 232 201 232 201 244 165 c 128,-1,12
 256 129 256 129 277 107 c 128,-1,13
 298 85 298 85 327.5 75.5 c 128,-1,14
 357 66 357 66 391 66 c 0,15,16
 427 66 427 66 455.5 76 c 128,-1,17
 484 86 484 86 504.5 107.5 c 128,-1,18
 525 129 525 129 535.5 165 c 128,-1,19
 546 201 546 201 546 254 c 2,20,-1
 546 607 l 2,21,22
 546 612 546 612 539.5 615.5 c 128,-1,23
 533 619 533 619 523 621 c 128,-1,24
 513 623 513 623 502 624.5 c 128,-1,25
 491 626 491 626 481 626 c 2,26,-1
 473 626 l 1,27,-1
 473 710 l 1,28,-1
 707 710 l 1,29,-1
 707 626 l 1,30,-1
 697 626 l 2,31,32
 682 626 682 626 668 622 c 128,-1,33
 654 618 654 618 645.5 608 c 128,-1,34
 637 598 637 598 637 582 c 2,35,-1
 637 234 l 2,36,37
 637 165 637 165 616.5 115.5 c 128,-1,38
 596 66 596 66 560 35 c 128,-1,39
 524 4 524 4 478 -10 c 128,-1,40
 432 -24 432 -24 382 -24 c 0,41,42
 326 -24 326 -24 278 -9.5 c 128,-1,43
 230 5 230 5 193.5 36 c 128,-1,44
 157 67 157 67 137.5 116 c 128,-1,45
 118 165 118 165 118 235 c 2,46,-1
 118 590 l 2,47,48
 118 612 118 612 98 619 c 128,-1,49
 78 626 78 626 54 626 c 2,50,-1
 44 626 l 1,51,-1
 44 710 l 1,52,-1
 314 710 l 1,53,-1
 314 626 l 1,54,-1
 306 626 l 2,55,56
 294 626 294 626 280.5 625.5 c 128,-1,57
 267 625 267 625 256 623.5 c 128,-1,58
 245 622 245 622 238.5 620.5 c 128,-1,59
 232 619 232 619 232 616 c 2,60,-1
 232 254 l 2,10,11
339 875 m 256,61,62
 339 837 339 837 318 820 c 128,-1,63
 297 803 297 803 263 803 c 0,64,65
 228 803 228 803 207.5 820 c 128,-1,66
 187 837 187 837 187 875 c 256,67,68
 187 913 187 913 207.5 930 c 128,-1,69
 228 947 228 947 263 947 c 0,70,71
 297 947 297 947 318 930 c 128,-1,72
 339 913 339 913 339 875 c 256,61,62
584 875 m 256,73,74
 584 837 584 837 563 820 c 128,-1,75
 542 803 542 803 508 803 c 0,76,77
 473 803 473 803 452.5 820 c 128,-1,78
 432 837 432 837 432 875 c 256,79,80
 432 913 432 913 452.5 930 c 128,-1,81
 473 947 473 947 508 947 c 0,82,83
 542 947 542 947 563 930 c 128,-1,84
 584 913 584 913 584 875 c 256,73,74
EndSplineSet
EndChar

StartChar: Udblgrave
Encoding: 532 532 188
Width: 751
GlyphClass: 1
Flags: W
LayerCount: 2
Fore
SplineSet
472 928 m 2,0,-1
 513 829 l 1,1,-1
 513 792 l 1,2,-1
 467 792 l 1,3,-1
 398 853 l 2,4,5
 376 872 376 872 364.5 890.5 c 128,-1,6
 353 909 353 909 353 932 c 0,7,8
 353 951 353 951 367 964.5 c 128,-1,9
 381 978 381 978 405 978 c 0,10,11
 423 978 423 978 435.5 971 c 128,-1,12
 448 964 448 964 457 952.5 c 128,-1,13
 466 941 466 941 472 928 c 2,0,-1
283 928 m 2,14,-1
 321 829 l 1,15,-1
 321 792 l 1,16,-1
 276 792 l 1,17,-1
 207 853 l 2,18,19
 185 872 185 872 173 890.5 c 128,-1,20
 161 909 161 909 161 932 c 0,21,22
 161 951 161 951 175.5 964.5 c 128,-1,23
 190 978 190 978 214 978 c 0,24,25
 231 978 231 978 244.5 971 c 128,-1,26
 258 964 258 964 267.5 952.5 c 128,-1,27
 277 941 277 941 283 928 c 2,14,-1
232 254 m 2,28,29
 232 201 232 201 244 165 c 128,-1,30
 256 129 256 129 277 107 c 128,-1,31
 298 85 298 85 327.5 75.5 c 128,-1,32
 357 66 357 66 391 66 c 0,33,34
 427 66 427 66 455.5 76 c 128,-1,35
 484 86 484 86 504.5 107.5 c 128,-1,36
 525 129 525 129 535.5 165 c 128,-1,37
 546 201 546 201 546 254 c 2,38,-1
 546 607 l 2,39,40
 546 612 546 612 539.5 615.5 c 128,-1,41
 533 619 533 619 523 621 c 128,-1,42
 513 623 513 623 502 624.5 c 128,-1,43
 491 626 491 626 481 626 c 2,44,-1
 473 626 l 1,45,-1
 473 710 l 1,46,-1
 707 710 l 1,47,-1
 707 626 l 1,48,-1
 697 626 l 2,49,50
 682 626 682 626 668 622 c 128,-1,51
 654 618 654 618 645.5 608 c 128,-1,52
 637 598 637 598 637 582 c 2,53,-1
 637 234 l 2,54,55
 637 165 637 165 616.5 115.5 c 128,-1,56
 596 66 596 66 560 35 c 128,-1,57
 524 4 524 4 478 -10 c 128,-1,58
 432 -24 432 -24 382 -24 c 0,59,60
 326 -24 326 -24 278 -9.5 c 128,-1,61
 230 5 230 5 193.5 36 c 128,-1,62
 157 67 157 67 137.5 116 c 128,-1,63
 118 165 118 165 118 235 c 2,64,-1
 118 590 l 2,65,66
 118 612 118 612 98 619 c 128,-1,67
 78 626 78 626 54 626 c 2,68,-1
 44 626 l 1,69,-1
 44 710 l 1,70,-1
 314 710 l 1,71,-1
 314 626 l 1,72,-1
 306 626 l 2,73,74
 294 626 294 626 280.5 625.5 c 128,-1,75
 267 625 267 625 256 623.5 c 128,-1,76
 245 622 245 622 238.5 620.5 c 128,-1,77
 232 619 232 619 232 616 c 2,78,-1
 232 254 l 2,28,29
EndSplineSet
EndChar

StartChar: Uinvertedbreve
Encoding: 534 534 189
Width: 751
GlyphClass: 1
Flags: W
LayerCount: 2
Fore
SplineSet
380 934 m 0,0,1
 323 934 323 934 285 917 c 128,-1,2
 247 900 247 900 227.5 862.5 c 128,-1,3
 208 825 208 825 207 763 c 1,4,-1
 287 763 l 1,5,6
 289 798 289 798 297 817 c 128,-1,7
 305 836 305 836 325 843 c 128,-1,8
 345 850 345 850 380 850 c 0,9,10
 411 850 411 850 430.5 843 c 128,-1,11
 450 836 450 836 459 817.5 c 128,-1,12
 468 799 468 799 470 763 c 1,13,-1
 554 763 l 1,14,15
 553 825 553 825 532 862.5 c 128,-1,16
 511 900 511 900 472.5 917 c 128,-1,17
 434 934 434 934 380 934 c 0,0,1
232 254 m 2,18,19
 232 201 232 201 244 165 c 128,-1,20
 256 129 256 129 277 107 c 128,-1,21
 298 85 298 85 327.5 75.5 c 128,-1,22
 357 66 357 66 391 66 c 0,23,24
 427 66 427 66 455.5 76 c 128,-1,25
 484 86 484 86 504.5 107.5 c 128,-1,26
 525 129 525 129 535.5 165 c 128,-1,27
 546 201 546 201 546 254 c 2,28,-1
 546 607 l 2,29,30
 546 612 546 612 539.5 615.5 c 128,-1,31
 533 619 533 619 523 621 c 128,-1,32
 513 623 513 623 502 624.5 c 128,-1,33
 491 626 491 626 481 626 c 2,34,-1
 473 626 l 1,35,-1
 473 710 l 1,36,-1
 707 710 l 1,37,-1
 707 626 l 1,38,-1
 697 626 l 2,39,40
 682 626 682 626 668 622 c 128,-1,41
 654 618 654 618 645.5 608 c 128,-1,42
 637 598 637 598 637 582 c 2,43,-1
 637 234 l 2,44,45
 637 165 637 165 616.5 115.5 c 128,-1,46
 596 66 596 66 560 35 c 128,-1,47
 524 4 524 4 478 -10 c 128,-1,48
 432 -24 432 -24 382 -24 c 0,49,50
 326 -24 326 -24 278 -9.5 c 128,-1,51
 230 5 230 5 193.5 36 c 128,-1,52
 157 67 157 67 137.5 116 c 128,-1,53
 118 165 118 165 118 235 c 2,54,-1
 118 590 l 2,55,56
 118 612 118 612 98 619 c 128,-1,57
 78 626 78 626 54 626 c 2,58,-1
 44 626 l 1,59,-1
 44 710 l 1,60,-1
 314 710 l 1,61,-1
 314 626 l 1,62,-1
 306 626 l 2,63,64
 294 626 294 626 280.5 625.5 c 128,-1,65
 267 625 267 625 256 623.5 c 128,-1,66
 245 622 245 622 238.5 620.5 c 128,-1,67
 232 619 232 619 232 616 c 2,68,-1
 232 254 l 2,18,19
EndSplineSet
EndChar

StartChar: V
Encoding: 86 86 199
Width: 693
GlyphClass: 2
Flags: W
AnchorPoint: "Anchor-0" 360 741 basechar 0
LayerCount: 2
Fore
SplineSet
375 27 m 1,0,-1
 345 38 l 1,1,-1
 520 603 l 2,2,3
 520 610 520 610 512 615 c 128,-1,4
 504 620 504 620 488.5 623 c 128,-1,5
 473 626 473 626 454 626 c 2,6,-1
 443 626 l 1,7,-1
 443 710 l 1,8,-1
 674 710 l 1,9,-1
 674 626 l 1,10,-1
 669 626 l 2,11,12
 649 626 649 626 631.5 614 c 128,-1,13
 614 602 614 602 602 562 c 2,14,-1
 420 -11 l 1,15,-1
 276 -11 l 1,16,-1
 92 562 l 2,17,18
 80 602 80 602 62 614 c 128,-1,19
 44 626 44 626 24 626 c 2,20,-1
 19 626 l 1,21,-1
 19 710 l 1,22,-1
 279 710 l 1,23,-1
 279 626 l 1,24,-1
 268 626 l 2,25,26
 243 626 243 626 226 624.5 c 128,-1,27
 209 623 209 623 200.5 621 c 128,-1,28
 192 619 192 619 192 615 c 2,29,-1
 375 27 l 1,0,-1
EndSplineSet
EndChar

StartChar: W
Encoding: 87 87 200
Width: 967
GlyphClass: 2
Flags: W
AnchorPoint: "Anchor-0" 497 741 basechar 0
LayerCount: 2
Fore
SplineSet
20 710 m 1,0,-1
 266 710 l 1,1,-1
 266 626 l 1,2,-1
 252 626 l 2,3,4
 240 626 240 626 225.5 624.5 c 128,-1,5
 211 623 211 623 200.5 621 c 128,-1,6
 190 619 190 619 190 615 c 2,7,-1
 324 48 l 1,8,-1
 278 48 l 1,9,-1
 442 710 l 1,10,-1
 562 710 l 1,11,-1
 723 51 l 1,12,-1
 679 49 l 1,13,-1
 812 603 l 2,14,15
 812 610 812 610 803.5 615 c 128,-1,16
 795 620 795 620 783.5 623 c 128,-1,17
 772 626 772 626 760 626 c 2,18,-1
 747 626 l 1,19,-1
 747 710 l 1,20,-1
 948 710 l 1,21,-1
 948 626 l 1,22,-1
 942 626 l 2,23,24
 925 626 925 626 910.5 615 c 128,-1,25
 896 604 896 604 890 577 c 2,26,-1
 751 -3 l 1,27,-1
 630 -3 l 1,28,-1
 468 647 l 1,29,-1
 513 650 l 1,30,-1
 352 -3 l 1,31,-1
 230 -3 l 1,32,-1
 82 587 l 2,33,34
 76 614 76 614 62 620 c 128,-1,35
 48 626 48 626 26 626 c 2,36,-1
 20 626 l 1,37,-1
 20 710 l 1,0,-1
EndSplineSet
EndChar

StartChar: X
Encoding: 88 88 205
Width: 702
GlyphClass: 2
Flags: W
AnchorPoint: "Anchor-1" 355 0 basechar 0
AnchorPoint: "Anchor-0" 378 741 basechar 0
LayerCount: 2
Fore
SplineSet
37 626 m 1,0,-1
 37 710 l 1,1,-1
 307 710 l 1,2,-1
 307 626 l 1,3,-1
 292 626 l 2,4,5
 276 626 276 626 262 625 c 128,-1,6
 248 624 248 624 239.5 622 c 128,-1,7
 231 620 231 620 231 616 c 2,8,-1
 390 392 l 1,9,-1
 404 388 l 1,10,-1
 594 118 l 2,11,12
 610 96 610 96 625.5 90 c 128,-1,13
 641 84 641 84 659 84 c 2,14,-1
 676 84 l 1,15,-1
 676 0 l 1,16,-1
 402 0 l 1,17,-1
 402 84 l 1,18,-1
 417 84 l 2,19,20
 433 84 433 84 447 85 c 128,-1,21
 461 86 461 86 469.5 88.5 c 128,-1,22
 478 91 478 91 478 94 c 2,23,-1
 306 339 l 1,24,-1
 292 343 l 1,25,-1
 115 592 l 2,26,27
 100 615 100 615 83.5 620.5 c 128,-1,28
 67 626 67 626 49 626 c 2,29,-1
 37 626 l 1,0,-1
26 0 m 1,30,-1
 26 84 l 1,31,-1
 44 84 l 2,32,33
 59 84 59 84 73.5 93.5 c 128,-1,34
 88 103 88 103 106 130 c 2,35,-1
 281 381 l 1,36,-1
 353 339 l 1,37,-1
 189 101 l 2,38,39
 189 97 189 97 198.5 93 c 128,-1,40
 208 89 208 89 220.5 86.5 c 128,-1,41
 233 84 233 84 244 84 c 2,42,-1
 261 84 l 1,43,-1
 261 0 l 1,44,-1
 26 0 l 1,30,-1
415 350 m 1,45,-1
 346 395 l 1,46,-1
 501 609 l 2,47,48
 501 614 501 614 491 618 c 128,-1,49
 481 622 481 622 468 624 c 128,-1,50
 455 626 455 626 442 626 c 2,51,-1
 430 626 l 1,52,-1
 430 710 l 1,53,-1
 661 710 l 1,54,-1
 661 626 l 1,55,-1
 648 626 l 2,56,57
 633 626 633 626 618 617 c 128,-1,58
 603 608 603 608 583 581 c 2,59,-1
 415 350 l 1,45,-1
EndSplineSet
EndChar

StartChar: Y
Encoding: 89 89 206
Width: 660
GlyphClass: 2
Flags: W
AnchorPoint: "Anchor-1" 334 0 basechar 0
AnchorPoint: "Anchor-0" 334 741 basechar 0
LayerCount: 2
Fore
SplineSet
275 300 m 1,0,-1
 282 259 l 1,1,-1
 95 583 l 2,2,3
 85 600 85 600 76.5 609.5 c 128,-1,4
 68 619 68 619 58 622.5 c 128,-1,5
 48 626 48 626 36 626 c 2,6,-1
 25 626 l 1,7,-1
 25 710 l 1,8,-1
 271 710 l 1,9,-1
 271 626 l 1,10,-1
 256 626 l 2,11,12
 241 626 241 626 228 624.5 c 128,-1,13
 215 623 215 623 206.5 621 c 128,-1,14
 198 619 198 619 198 615 c 2,15,-1
 373 302 l 1,16,-1
 319 302 l 1,17,-1
 481 603 l 2,18,19
 481 611 481 611 472.5 615.5 c 128,-1,20
 464 620 464 620 453.5 623 c 128,-1,21
 443 626 443 626 434 626 c 2,22,-1
 423 626 l 1,23,-1
 423 710 l 1,24,-1
 633 710 l 1,25,-1
 633 626 l 1,26,-1
 622 626 l 2,27,28
 612 626 612 626 602 621 c 128,-1,29
 592 616 592 616 581.5 605 c 128,-1,30
 571 594 571 594 560 574 c 2,31,-1
 382 258 l 1,32,-1
 390 300 l 1,33,-1
 390 120 l 2,34,35
 390 98 390 98 410.5 91 c 128,-1,36
 431 84 431 84 460 84 c 2,37,-1
 479 84 l 1,38,-1
 479 0 l 1,39,-1
 186 0 l 1,40,-1
 186 84 l 1,41,-1
 205 84 l 2,42,43
 234 84 234 84 254.5 91 c 128,-1,44
 275 98 275 98 275 120 c 2,45,-1
 275 300 l 1,0,-1
EndSplineSet
EndChar

StartChar: Z
Encoding: 90 90 216
Width: 628
GlyphClass: 2
Flags: W
AnchorPoint: "Anchor-1" 332 0 basechar 0
AnchorPoint: "Anchor-0" 332 741 basechar 0
LayerCount: 2
Fore
SplineSet
250 627 m 2,0,1
 223 627 223 627 206.5 625 c 128,-1,2
 190 623 190 623 181.5 618 c 128,-1,3
 173 613 173 613 169 604.5 c 128,-1,4
 165 596 165 596 163 582 c 2,5,-1
 152 502 l 1,6,-1
 70 502 l 1,7,-1
 70 710 l 1,8,-1
 557 710 l 1,9,-1
 557 621 l 1,10,-1
 140 22 l 1,11,-1
 119 83 l 1,12,-1
 385 83 l 2,13,14
 423 83 423 83 441.5 86.5 c 128,-1,15
 460 90 460 90 467 100 c 128,-1,16
 474 110 474 110 476 128 c 2,17,-1
 489 234 l 1,18,-1
 573 234 l 1,19,-1
 573 0 l 1,20,-1
 56 0 l 1,21,-1
 56 92 l 1,22,-1
 463 676 l 1,23,-1
 486 627 l 1,24,-1
 250 627 l 2,0,1
EndSplineSet
EndChar

StartChar: Zcaron
Encoding: 381 381 219
Width: 628
GlyphClass: 1
Flags: W
LayerCount: 2
Fore
SplineSet
271 804 m 1,0,-1
 350 804 l 1,1,-1
 475 959 l 1,2,-1
 475 983 l 1,3,-1
 418 983 l 1,4,-1
 251 845 l 1,5,-1
 377 848 l 1,6,-1
 211 983 l 1,7,-1
 145 983 l 1,8,-1
 145 959 l 1,9,-1
 271 804 l 1,0,-1
250 627 m 2,10,11
 223 627 223 627 206.5 625 c 128,-1,12
 190 623 190 623 181.5 618 c 128,-1,13
 173 613 173 613 169 604.5 c 128,-1,14
 165 596 165 596 163 582 c 2,15,-1
 152 502 l 1,16,-1
 70 502 l 1,17,-1
 70 710 l 1,18,-1
 557 710 l 1,19,-1
 557 621 l 1,20,-1
 140 22 l 1,21,-1
 119 83 l 1,22,-1
 385 83 l 2,23,24
 423 83 423 83 441.5 86.5 c 128,-1,25
 460 90 460 90 467 100 c 128,-1,26
 474 110 474 110 476 128 c 2,27,-1
 489 234 l 1,28,-1
 573 234 l 1,29,-1
 573 0 l 1,30,-1
 56 0 l 1,31,-1
 56 92 l 1,32,-1
 463 676 l 1,33,-1
 486 627 l 1,34,-1
 250 627 l 2,10,11
EndSplineSet
EndChar

StartChar: AE
Encoding: 198 198 221
Width: 1009
GlyphClass: 2
Flags: W
AnchorPoint: "Anchor-0" 622 741 basechar 0
LayerCount: 2
Fore
SplineSet
218 305 m 1,0,-1
 521 305 l 1,1,-1
 536 221 l 1,2,-1
 202 221 l 1,3,-1
 218 305 l 1,0,-1
578 404 m 1,4,5
 620 406 620 406 663.5 408.5 c 128,-1,6
 707 411 707 411 751 414 c 128,-1,7
 795 417 795 417 839 420 c 1,8,-1
 839 310 l 1,9,10
 796 313 796 313 752.5 315 c 128,-1,11
 709 317 709 317 665 320.5 c 128,-1,12
 621 324 621 324 578 326 c 1,13,-1
 578 404 l 1,4,5
408 0 m 1,14,-1
 408 84 l 1,15,-1
 415 84 l 2,16,17
 438 84 438 84 453 87 c 128,-1,18
 468 90 468 90 476 97 c 128,-1,19
 484 104 484 104 484 114 c 2,20,-1
 484 651 l 1,21,-1
 461 633 l 1,22,-1
 173 107 l 2,23,24
 173 101 173 101 178 95.5 c 128,-1,25
 183 90 183 90 196 87 c 128,-1,26
 209 84 209 84 233 84 c 2,27,-1
 241 84 l 1,28,-1
 241 0 l 1,29,-1
 5 0 l 1,30,-1
 5 84 l 1,31,-1
 11 84 l 2,32,33
 29 84 29 84 42.5 90.5 c 128,-1,34
 56 97 56 97 68 111 c 128,-1,35
 80 125 80 125 94 148 c 2,36,-1
 339 595 l 1,37,38
 339 610 339 610 335.5 616.5 c 128,-1,39
 332 623 332 623 321.5 624.5 c 128,-1,40
 311 626 311 626 291 626 c 2,41,-1
 281 626 l 1,42,-1
 281 710 l 1,43,-1
 927 710 l 1,44,-1
 927 510 l 1,45,-1
 845 510 l 1,46,-1
 834 582 l 2,47,48
 831 600 831 600 819.5 609.5 c 128,-1,49
 808 619 808 619 786 623 c 128,-1,50
 764 627 764 627 728 627 c 2,51,-1
 598 627 l 1,52,-1
 598 83 l 1,53,-1
 741 83 l 2,54,55
 769 83 769 83 789 85 c 128,-1,56
 809 87 809 87 821.5 92 c 128,-1,57
 834 97 834 97 840.5 106 c 128,-1,58
 847 115 847 115 848 128 c 2,59,-1
 862 225 l 1,60,-1
 946 225 l 1,61,-1
 946 0 l 1,62,-1
 408 0 l 1,14,-1
EndSplineSet
EndChar

StartChar: Eth
Encoding: 208 208 223
Width: 741
GlyphClass: 1
Flags: W
LayerCount: 2
Fore
SplineSet
45 402 m 1,0,-1
 417 402 l 1,1,-1
 417 319 l 1,2,-1
 45 319 l 1,3,-1
 45 402 l 1,0,-1
53 626 m 1,4,-1
 53 710 l 1,5,-1
 342 710 l 2,6,7
 422 710 422 710 486.5 689 c 128,-1,8
 551 668 551 668 596 624.5 c 128,-1,9
 641 581 641 581 664 515 c 128,-1,10
 687 449 687 449 687 359 c 0,11,12
 687 270 687 270 664 202.5 c 128,-1,13
 641 135 641 135 596 90 c 128,-1,14
 551 45 551 45 486.5 22.5 c 128,-1,15
 422 0 422 0 342 0 c 2,16,-1
 53 0 l 1,17,-1
 53 84 l 1,18,-1
 63 84 l 2,19,20
 87 84 87 84 106.5 91 c 128,-1,21
 126 98 126 98 126 120 c 2,22,-1
 126 590 l 2,23,24
 126 612 126 612 106.5 619 c 128,-1,25
 87 626 87 626 63 626 c 2,26,-1
 53 626 l 1,4,-1
336 627 m 2,27,-1
 240 627 l 1,28,-1
 240 83 l 1,29,-1
 336 83 l 2,30,31
 395 83 395 83 438.5 100 c 128,-1,32
 482 117 482 117 510.5 151 c 128,-1,33
 539 185 539 185 552.5 237 c 128,-1,34
 566 289 566 289 566 359 c 256,35,36
 566 429 566 429 552.5 479.5 c 128,-1,37
 539 530 539 530 510.5 562.5 c 128,-1,38
 482 595 482 595 438.5 611 c 128,-1,39
 395 627 395 627 336 627 c 2,27,-1
EndSplineSet
EndChar

StartChar: Oslash
Encoding: 216 216 224
Width: 751
GlyphClass: 2
Flags: W
AnchorPoint: "Anchor-0" 375 731 basechar 0
LayerCount: 2
Fore
SplineSet
376 648 m 256,0,1
 326 648 326 648 288.5 630.5 c 128,-1,2
 251 613 251 613 226 577.5 c 128,-1,3
 201 542 201 542 188.5 486.5 c 128,-1,4
 176 431 176 431 176 355 c 0,5,6
 176 274 176 274 188.5 217.5 c 128,-1,7
 201 161 201 161 226 127 c 128,-1,8
 251 93 251 93 288.5 77.5 c 128,-1,9
 326 62 326 62 376 62 c 256,10,11
 426 62 426 62 463 79 c 128,-1,12
 500 96 500 96 524.5 132 c 128,-1,13
 549 168 549 168 561.5 223 c 128,-1,14
 574 278 574 278 574 355 c 0,15,16
 574 436 574 436 562 492.5 c 128,-1,17
 550 549 550 549 525 583 c 128,-1,18
 500 617 500 617 463 632.5 c 128,-1,19
 426 648 426 648 376 648 c 256,0,1
376 -24 m 256,20,21
 304 -24 304 -24 245 2 c 128,-1,22
 186 28 186 28 143 77 c 128,-1,23
 100 126 100 126 77 196.5 c 128,-1,24
 54 267 54 267 54 355 c 0,25,26
 54 449 54 449 77 519.5 c 128,-1,27
 100 590 100 590 143 638 c 128,-1,28
 186 686 186 686 245 710 c 128,-1,29
 304 734 304 734 376 734 c 0,30,31
 447 734 447 734 506 708.5 c 128,-1,32
 565 683 565 683 607.5 634 c 128,-1,33
 650 585 650 585 673.5 514.5 c 128,-1,34
 697 444 697 444 697 355 c 0,35,36
 697 262 697 262 674 191 c 128,-1,37
 651 120 651 120 608.5 72.5 c 128,-1,38
 566 25 566 25 507 0.5 c 128,-1,39
 448 -24 448 -24 376 -24 c 256,20,21
-2 -23 m 1,40,-1
 659 733 l 1,41,-1
 753 733 l 1,42,-1
 92 -23 l 1,43,-1
 -2 -23 l 1,40,-1
EndSplineSet
EndChar

StartChar: Thorn
Encoding: 222 222 226
Width: 673
GlyphClass: 1
Flags: W
LayerCount: 2
Fore
SplineSet
340 710 m 1,0,-1
 53 710 l 1,1,-1
 53 627 l 1,2,-1
 62 627 l 2,3,4
 94 627 94 627 110 620 c 128,-1,5
 126 613 126 613 126 590 c 2,6,-1
 126 120 l 2,7,8
 126 97 126 97 110 90 c 128,-1,9
 94 83 94 83 63 83 c 2,10,-1
 53 83 l 1,11,-1
 53 0 l 1,12,-1
 340 0 l 1,13,-1
 340 84 l 1,14,-1
 321 84 l 2,15,16
 305 84 305 84 290.5 84.5 c 128,-1,17
 276 85 276 85 265 86.5 c 128,-1,18
 254 88 254 88 247 89.5 c 128,-1,19
 240 91 240 91 240 94 c 2,20,-1
 240 616 l 2,21,22
 240 619 240 619 247 620.5 c 128,-1,23
 254 622 254 622 265 623.5 c 128,-1,24
 276 625 276 625 290.5 625.5 c 128,-1,25
 305 626 305 626 321 626 c 2,26,-1
 340 626 l 1,27,-1
 340 710 l 1,0,-1
620 367 m 256,28,29
 620 429 620 429 591.5 470.5 c 128,-1,30
 563 512 563 512 511.5 532.5 c 128,-1,31
 460 553 460 553 388 553 c 2,32,-1
 204 553 l 1,33,-1
 205 472 l 1,34,-1
 379 472 l 2,35,36
 422 472 422 472 449 461 c 128,-1,37
 476 450 476 450 488.5 426.5 c 128,-1,38
 501 403 501 403 501 365 c 0,39,40
 501 329 501 329 488.5 304.5 c 128,-1,41
 476 280 476 280 448.5 268 c 128,-1,42
 421 256 421 256 378 256 c 2,43,-1
 210 256 l 1,44,-1
 210 174 l 1,45,-1
 387 174 l 2,46,47
 456 174 456 174 508.5 196.5 c 128,-1,48
 561 219 561 219 590.5 262 c 128,-1,49
 620 305 620 305 620 367 c 256,28,29
EndSplineSet
EndChar

StartChar: Hbar
Encoding: 294 294 228
Width: 793
GlyphClass: 1
Flags: W
LayerCount: 2
Fore
SplineSet
204 373 m 1,0,-1
 582 373 l 1,1,-1
 582 298 l 1,2,-1
 204 298 l 1,3,-1
 204 373 l 1,0,-1
51 0 m 1,4,-1
 51 84 l 1,5,-1
 61 84 l 2,6,7
 86 84 86 84 105 91 c 128,-1,8
 124 98 124 98 124 121 c 2,9,-1
 124 590 l 2,10,11
 124 612 124 612 105 619 c 128,-1,12
 86 626 86 626 61 626 c 2,13,-1
 51 626 l 1,14,-1
 51 710 l 1,15,-1
 320 710 l 1,16,-1
 320 627 l 1,17,-1
 312 627 l 2,18,19
 300 627 300 627 287 626 c 128,-1,20
 274 625 274 625 263 623.5 c 128,-1,21
 252 622 252 622 245.5 620.5 c 128,-1,22
 239 619 239 619 239 616 c 2,23,-1
 239 93 l 2,24,25
 239 91 239 91 245.5 89.5 c 128,-1,26
 252 88 252 88 263 86.5 c 128,-1,27
 274 85 274 85 287 84.5 c 128,-1,28
 300 84 300 84 312 84 c 2,29,-1
 320 84 l 1,30,-1
 320 0 l 1,31,-1
 51 0 l 1,4,-1
473 0 m 1,32,-1
 473 83 l 1,33,-1
 481 83 l 2,34,35
 493 83 493 83 505.5 84 c 128,-1,36
 518 85 518 85 529 86.5 c 128,-1,37
 540 88 540 88 547 89.5 c 128,-1,38
 554 91 554 91 554 94 c 2,39,-1
 554 617 l 2,40,41
 554 619 554 619 547 620.5 c 128,-1,42
 540 622 540 622 529 623.5 c 128,-1,43
 518 625 518 625 505.5 625.5 c 128,-1,44
 493 626 493 626 481 626 c 2,45,-1
 473 626 l 1,46,-1
 473 710 l 1,47,-1
 741 710 l 1,48,-1
 741 626 l 1,49,-1
 732 626 l 2,50,51
 707 626 707 626 687.5 619 c 128,-1,52
 668 612 668 612 668 589 c 2,53,-1
 668 120 l 2,54,55
 668 98 668 98 687.5 91 c 128,-1,56
 707 84 707 84 732 84 c 2,57,-1
 741 84 l 1,58,-1
 741 0 l 1,59,-1
 473 0 l 1,32,-1
41 466 m 1,60,-1
 41 540 l 1,61,-1
 751 540 l 1,62,-1
 751 466 l 1,63,-1
 41 466 l 1,60,-1
EndSplineSet
EndChar

StartChar: Ldot
Encoding: 319 319 230
Width: 617
GlyphClass: 1
Flags: W
LayerCount: 2
Fore
SplineSet
333 710 m 1,0,-1
 53 710 l 1,1,-1
 53 626 l 1,2,-1
 63 626 l 2,3,4
 87 626 87 626 106.5 619 c 128,-1,5
 126 612 126 612 126 589 c 2,6,-1
 126 120 l 2,7,8
 126 98 126 98 106.5 91 c 128,-1,9
 87 84 87 84 63 84 c 2,10,-1
 53 84 l 1,11,-1
 53 0 l 1,12,-1
 568 0 l 1,13,-1
 568 224 l 1,14,-1
 484 224 l 1,15,-1
 471 128 l 2,16,17
 469 110 469 110 458 100 c 128,-1,18
 447 90 447 90 423.5 86.5 c 128,-1,19
 400 83 400 83 363 83 c 2,20,-1
 240 83 l 1,21,-1
 240 590 l 2,22,23
 240 612 240 612 262 619 c 128,-1,24
 284 626 284 626 318 626 c 2,25,-1
 333 626 l 1,26,-1
 333 710 l 1,0,-1
509 342 m 0,27,28
 468 342 468 342 441 366.5 c 128,-1,29
 414 391 414 391 414 433 c 256,30,31
 414 475 414 475 441 499 c 128,-1,32
 468 523 468 523 509 523 c 0,33,34
 551 523 551 523 577.5 499 c 128,-1,35
 604 475 604 475 604 433 c 0,36,37
 604 392 604 392 577.5 367 c 128,-1,38
 551 342 551 342 509 342 c 0,27,28
EndSplineSet
Ligature2: "Ligature Substitution lookup 5 subtable" L periodcentered
EndChar

StartChar: Lslash
Encoding: 321 321 231
Width: 617
GlyphClass: 1
Flags: W
LayerCount: 2
Fore
SplineSet
28 178 m 1,0,-1
 478 467 l 1,1,-1
 478 556 l 1,2,-1
 28 267 l 1,3,-1
 28 178 l 1,0,-1
335 710 m 1,4,-1
 54 710 l 1,5,-1
 54 626 l 1,6,-1
 64 626 l 2,7,8
 88 626 88 626 107.5 619 c 128,-1,9
 127 612 127 612 127 589 c 2,10,-1
 127 120 l 2,11,12
 127 98 127 98 107.5 91 c 128,-1,13
 88 84 88 84 64 84 c 2,14,-1
 54 84 l 1,15,-1
 54 0 l 1,16,-1
 570 0 l 1,17,-1
 570 238 l 1,18,-1
 486 238 l 1,19,-1
 473 128 l 2,20,21
 471 110 471 110 460 100 c 128,-1,22
 449 90 449 90 426 86.5 c 128,-1,23
 403 83 403 83 365 83 c 2,24,-1
 242 83 l 1,25,-1
 242 590 l 2,26,27
 242 612 242 612 264 619 c 128,-1,28
 286 626 286 626 320 626 c 2,29,-1
 335 626 l 1,30,-1
 335 710 l 1,4,-1
EndSplineSet
EndChar

StartChar: Eng
Encoding: 330 330 232
Width: 769
GlyphClass: 1
Flags: W
LayerCount: 2
Fore
SplineSet
655 -21 m 2,0,1
 655 -82 655 -82 638 -126 c 128,-1,2
 621 -170 621 -170 590.5 -197 c 128,-1,3
 560 -224 560 -224 519.5 -237 c 128,-1,4
 479 -250 479 -250 431 -250 c 0,5,6
 392 -250 392 -250 364 -244.5 c 128,-1,7
 336 -239 336 -239 318 -231 c 1,8,-1
 318 -141 l 1,9,10
 331 -146 331 -146 347 -151 c 128,-1,11
 363 -156 363 -156 383.5 -159.5 c 128,-1,12
 404 -163 404 -163 426 -163 c 0,13,14
 473 -163 473 -163 502.5 -149.5 c 128,-1,15
 532 -136 532 -136 546.5 -102.5 c 128,-1,16
 561 -69 561 -69 561 -10 c 2,17,-1
 561 61 l 1,18,-1
 580 -42 l 1,19,-1
 178 670 l 1,20,-1
 217 670 l 1,21,-1
 217 94 l 2,22,23
 217 91 217 91 226 88.5 c 128,-1,24
 235 86 235 86 248.5 85 c 128,-1,25
 262 84 262 84 276 84 c 2,26,-1
 288 84 l 1,27,-1
 288 0 l 1,28,-1
 53 0 l 1,29,-1
 53 84 l 1,30,-1
 63 84 l 2,31,32
 84 84 84 84 97.5 87 c 128,-1,33
 111 90 111 90 118.5 98 c 128,-1,34
 126 106 126 106 126 121 c 2,35,-1
 126 590 l 2,36,37
 126 605 126 605 118.5 612.5 c 128,-1,38
 111 620 111 620 97.5 623 c 128,-1,39
 84 626 84 626 63 626 c 2,40,-1
 53 626 l 1,41,-1
 53 710 l 1,42,-1
 278 710 l 1,43,-1
 621 87 l 1,44,-1
 562 88 l 1,45,-1
 562 616 l 2,46,47
 562 620 562 620 553 622 c 128,-1,48
 544 624 544 624 531 625 c 128,-1,49
 518 626 518 626 504 626 c 2,50,-1
 492 626 l 1,51,-1
 492 710 l 1,52,-1
 726 710 l 1,53,-1
 726 626 l 1,54,-1
 716 626 l 2,55,56
 696 626 696 626 682 623 c 128,-1,57
 668 620 668 620 661.5 612.5 c 128,-1,58
 655 605 655 605 655 590 c 2,59,-1
 655 -21 l 2,0,1
EndSplineSet
Substitution2: "'ss07' Style Set 7 lookup 67 subtable" Eng.afr
EndChar

StartChar: OE
Encoding: 338 338 233
Width: 1014
GlyphClass: 1
Flags: W
LayerCount: 2
Fore
SplineSet
584 403 m 1,0,1
 627 406 627 406 670.5 408.5 c 128,-1,2
 714 411 714 411 757.5 414 c 128,-1,3
 801 417 801 417 844 419 c 1,4,-1
 844 311 l 1,5,6
 801 314 801 314 757.5 316.5 c 128,-1,7
 714 319 714 319 670.5 321.5 c 128,-1,8
 627 324 627 324 584 327 c 1,9,-1
 584 403 l 1,0,1
398 83 m 2,10,-1
 491 83 l 1,11,-1
 491 627 l 1,12,-1
 398 627 l 2,13,14
 342 627 342 627 300 611.5 c 128,-1,15
 258 596 258 596 230.5 563.5 c 128,-1,16
 203 531 203 531 189.5 478 c 128,-1,17
 176 425 176 425 176 351 c 256,18,19
 176 277 176 277 189.5 225.5 c 128,-1,20
 203 174 203 174 230.5 142.5 c 128,-1,21
 258 111 258 111 300 97 c 128,-1,22
 342 83 342 83 398 83 c 2,10,-1
395 0 m 2,23,24
 314 0 314 0 251 21 c 128,-1,25
 188 42 188 42 144 85.5 c 128,-1,26
 100 129 100 129 77 195.5 c 128,-1,27
 54 262 54 262 54 351 c 0,28,29
 54 441 54 441 77 508 c 128,-1,30
 100 575 100 575 144 620 c 128,-1,31
 188 665 188 665 251 687.5 c 128,-1,32
 314 710 314 710 395 710 c 2,33,-1
 933 710 l 1,34,-1
 933 510 l 1,35,-1
 849 510 l 1,36,-1
 839 582 l 2,37,38
 837 600 837 600 829 609.5 c 128,-1,39
 821 619 821 619 801.5 623 c 128,-1,40
 782 627 782 627 746 627 c 2,41,-1
 605 627 l 1,42,-1
 605 83 l 1,43,-1
 758 83 l 2,44,45
 786 83 786 83 804 85 c 128,-1,46
 822 87 822 87 832.5 92 c 128,-1,47
 843 97 843 97 847.5 106 c 128,-1,48
 852 115 852 115 854 128 c 2,49,-1
 866 225 l 1,50,-1
 952 225 l 1,51,-1
 952 0 l 1,52,-1
 395 0 l 2,23,24
EndSplineSet
EndChar

StartChar: Tbar
Encoding: 358 358 234
Width: 680
GlyphClass: 1
Flags: W
LayerCount: 2
Fore
SplineSet
124 344 m 1,0,-1
 554 344 l 1,1,-1
 554 261 l 1,2,-1
 124 261 l 1,3,-1
 124 344 l 1,0,-1
283 121 m 2,4,-1
 283 627 l 1,5,-1
 228 627 l 2,6,7
 190 627 190 627 172 620.5 c 128,-1,8
 154 614 154 614 148 601 c 128,-1,9
 142 588 142 588 139 568 c 2,10,-1
 128 468 l 1,11,-1
 47 468 l 1,12,-1
 47 710 l 1,13,-1
 633 710 l 1,14,-1
 633 468 l 1,15,-1
 552 468 l 1,16,-1
 541 568 l 2,17,18
 539 588 539 588 532.5 601 c 128,-1,19
 526 614 526 614 508 620.5 c 128,-1,20
 490 627 490 627 452 627 c 2,21,-1
 397 627 l 1,22,-1
 397 120 l 2,23,24
 397 98 397 98 419.5 91 c 128,-1,25
 442 84 442 84 470 84 c 2,26,-1
 488 84 l 1,27,-1
 488 0 l 1,28,-1
 193 0 l 1,29,-1
 193 84 l 1,30,-1
 211 84 l 2,31,32
 239 84 239 84 261 91 c 128,-1,33
 283 98 283 98 283 121 c 2,4,-1
EndSplineSet
EndChar

StartChar: Bhook
Encoding: 385 385 235
Width: 747
GlyphClass: 2
Flags: W
AnchorPoint: "Anchor-1" 403 0 basechar 0
AnchorPoint: "Anchor-0" 374 741 basechar 0
LayerCount: 2
Fore
SplineSet
277 412 m 1,0,-1
 434 412 l 2,1,2
 474 412 474 412 498 424.5 c 128,-1,3
 522 437 522 437 533 462 c 128,-1,4
 544 487 544 487 544 525 c 0,5,6
 544 558 544 558 533.5 580.5 c 128,-1,7
 523 603 523 603 499 615 c 128,-1,8
 475 627 475 627 435 627 c 2,9,-1
 318 627 l 1,10,-1
 318 83 l 1,11,-1
 443 83 l 2,12,13
 488 83 488 83 516 97 c 128,-1,14
 544 111 544 111 557 138.5 c 128,-1,15
 570 166 570 166 570 205 c 0,16,17
 570 245 570 245 556 273.5 c 128,-1,18
 542 302 542 302 511.5 317 c 128,-1,19
 481 332 481 332 433 332 c 2,20,-1
 277 332 l 1,21,-1
 277 412 l 1,0,-1
185 710 m 2,22,-1
 446 710 l 2,23,24
 498 710 498 710 538.5 699.5 c 128,-1,25
 579 689 579 689 606 667 c 128,-1,26
 633 645 633 645 647 611.5 c 128,-1,27
 661 578 661 578 661 533 c 256,28,29
 661 488 661 488 641.5 452.5 c 128,-1,30
 622 417 622 417 582.5 396.5 c 128,-1,31
 543 376 543 376 484 375 c 1,32,-1
 492 392 l 1,33,-1
 492 351 l 1,34,-1
 484 371 l 1,35,36
 551 368 551 368 596.5 346.5 c 128,-1,37
 642 325 642 325 665.5 287.5 c 128,-1,38
 689 250 689 250 689 197 c 0,39,40
 689 147 689 147 673.5 110 c 128,-1,41
 658 73 658 73 628 48.5 c 128,-1,42
 598 24 598 24 554.5 12 c 128,-1,43
 511 0 511 0 454 0 c 2,44,-1
 130 0 l 1,45,-1
 130 84 l 1,46,-1
 140 84 l 2,47,48
 164 84 164 84 183.5 91 c 128,-1,49
 203 98 203 98 203 120 c 2,50,-1
 203 627 l 1,51,-1
 186 627 l 2,52,53
 159 627 159 627 140.5 619 c 128,-1,54
 122 611 122 611 113.5 591.5 c 128,-1,55
 105 572 105 572 105 537 c 0,56,57
 105 514 105 514 107 496 c 128,-1,58
 109 478 109 478 114 463 c 1,59,-1
 12 463 l 1,60,61
 9 477 9 477 7.5 495.5 c 128,-1,62
 6 514 6 514 6 534 c 0,63,64
 6 594 6 594 26 632.5 c 128,-1,65
 46 671 46 671 85 690.5 c 128,-1,66
 124 710 124 710 185 710 c 2,22,-1
EndSplineSet
EndChar

StartChar: Dhook
Encoding: 394 394 236
Width: 819
GlyphClass: 2
Flags: W
AnchorPoint: "Anchor-1" 410 0 basechar 0
AnchorPoint: "Anchor-0" 385 741 basechar 0
LayerCount: 2
Fore
SplineSet
185 710 m 2,0,-1
 419 710 l 2,1,2
 500 710 500 710 564 689 c 128,-1,3
 628 668 628 668 673 624.5 c 128,-1,4
 718 581 718 581 741.5 515 c 128,-1,5
 765 449 765 449 765 359 c 0,6,7
 765 270 765 270 741.5 202.5 c 128,-1,8
 718 135 718 135 673 90 c 128,-1,9
 628 45 628 45 564 22.5 c 128,-1,10
 500 0 500 0 419 0 c 2,11,-1
 130 0 l 1,12,-1
 130 84 l 1,13,-1
 140 84 l 2,14,15
 164 84 164 84 183.5 91 c 128,-1,16
 203 98 203 98 203 120 c 2,17,-1
 203 627 l 1,18,-1
 186 627 l 2,19,20
 158 627 158 627 140 619 c 128,-1,21
 122 611 122 611 113.5 591.5 c 128,-1,22
 105 572 105 572 105 537 c 0,23,24
 105 515 105 515 107.5 497 c 128,-1,25
 110 479 110 479 114 463 c 1,26,-1
 11 463 l 1,27,28
 9 476 9 476 7.5 495.5 c 128,-1,29
 6 515 6 515 6 534 c 0,30,31
 6 594 6 594 25.5 633 c 128,-1,32
 45 672 45 672 85 691 c 128,-1,33
 125 710 125 710 185 710 c 2,0,-1
413 627 m 2,34,-1
 318 627 l 1,35,-1
 318 83 l 1,36,-1
 413 83 l 2,37,38
 472 83 472 83 515.5 100 c 128,-1,39
 559 117 559 117 587.5 151 c 128,-1,40
 616 185 616 185 630 237 c 128,-1,41
 644 289 644 289 644 359 c 256,42,43
 644 429 644 429 630 479.5 c 128,-1,44
 616 530 616 530 587.5 562.5 c 128,-1,45
 559 595 559 595 515.5 611 c 128,-1,46
 472 627 472 627 413 627 c 2,34,-1
EndSplineSet
EndChar

StartChar: Schwa
Encoding: 399 399 237
Width: 699
GlyphClass: 1
Flags: W
LayerCount: 2
Fore
SplineSet
336 748 m 0,0,1
 431 748 431 748 500 706 c 128,-1,2
 569 664 569 664 607 579.5 c 128,-1,3
 645 495 645 495 645 369 c 0,4,5
 645 278 645 278 623.5 205 c 128,-1,6
 602 132 602 132 562.5 81.5 c 128,-1,7
 523 31 523 31 467 3.5 c 128,-1,8
 411 -24 411 -24 341 -24 c 0,9,10
 240 -24 240 -24 178 23.5 c 128,-1,11
 116 71 116 71 87 165.5 c 128,-1,12
 58 260 58 260 56 401 c 1,13,-1
 576 401 l 1,14,-1
 576 315 l 1,15,-1
 153 315 l 1,16,-1
 176 341 l 1,17,18
 179 262 179 262 189.5 208.5 c 128,-1,19
 200 155 200 155 219.5 122.5 c 128,-1,20
 239 90 239 90 269 76 c 128,-1,21
 299 62 299 62 341 62 c 0,22,23
 385 62 385 62 419 78 c 128,-1,24
 453 94 453 94 476 130.5 c 128,-1,25
 499 167 499 167 511 226 c 128,-1,26
 523 285 523 285 523 369 c 0,27,28
 523 458 523 458 509.5 515 c 128,-1,29
 496 572 496 572 471 604 c 128,-1,30
 446 636 446 636 411 649 c 128,-1,31
 376 662 376 662 333 662 c 0,32,33
 283 662 283 662 247.5 651 c 128,-1,34
 212 640 212 640 184 612.5 c 128,-1,35
 156 585 156 585 127 537 c 1,36,-1
 56 585 l 1,37,38
 84 635 84 635 124 671.5 c 128,-1,39
 164 708 164 708 216.5 728 c 128,-1,40
 269 748 269 748 336 748 c 0,0,1
EndSplineSet
EndChar

StartChar: Khook
Encoding: 408 408 238
Width: 740
GlyphClass: 2
Flags: W
AnchorPoint: "Anchor-1" 378 0 basechar 0
AnchorPoint: "Anchor-0" 422 741 basechar 0
LayerCount: 2
Fore
SplineSet
53 0 m 1,0,-1
 53 84 l 1,1,-1
 63 84 l 2,2,3
 87 84 87 84 106.5 91 c 128,-1,4
 126 98 126 98 126 121 c 2,5,-1
 126 590 l 2,6,7
 126 612 126 612 106.5 619 c 128,-1,8
 87 626 87 626 63 626 c 2,9,-1
 53 626 l 1,10,-1
 53 710 l 1,11,-1
 319 710 l 1,12,-1
 319 626 l 1,13,-1
 311 626 l 2,14,15
 300 626 300 626 287 625.5 c 128,-1,16
 274 625 274 625 263.5 623.5 c 128,-1,17
 253 622 253 622 246.5 620.5 c 128,-1,18
 240 619 240 619 240 616 c 2,19,-1
 240 94 l 2,20,21
 240 91 240 91 246.5 89.5 c 128,-1,22
 253 88 253 88 263.5 86.5 c 128,-1,23
 274 85 274 85 286 84.5 c 128,-1,24
 298 84 298 84 308 84 c 2,25,-1
 316 84 l 1,26,-1
 316 0 l 1,27,-1
 53 0 l 1,0,-1
654 719 m 0,28,29
 686 719 686 719 706.5 705 c 128,-1,30
 727 691 727 691 737.5 664 c 128,-1,31
 748 637 748 637 748 598 c 0,32,33
 748 558 748 558 742.5 521.5 c 128,-1,34
 737 485 737 485 730 465 c 1,35,-1
 631 465 l 1,36,37
 637 477 637 477 642 497 c 128,-1,38
 647 517 647 517 650.5 540.5 c 128,-1,39
 654 564 654 564 654 586 c 0,40,41
 654 604 654 604 647.5 612 c 128,-1,42
 641 620 641 620 627 620 c 0,43,44
 618 620 618 620 607.5 613.5 c 128,-1,45
 597 607 597 607 577 585.5 c 128,-1,46
 557 564 557 564 518 519 c 2,47,-1
 371 354 l 1,48,-1
 373 405 l 1,49,-1
 633 107 l 2,50,51
 642 97 642 97 651.5 92 c 128,-1,52
 661 87 661 87 670.5 85.5 c 128,-1,53
 680 84 680 84 690 84 c 2,54,-1
 710 84 l 1,55,-1
 710 0 l 1,56,-1
 425 0 l 1,57,-1
 425 84 l 1,58,-1
 433 84 l 2,59,60
 451 84 451 84 466.5 85 c 128,-1,61
 482 86 482 86 492 88.5 c 128,-1,62
 502 91 502 91 502 94 c 2,63,-1
 282 346 l 1,64,-1
 282 372 l 1,65,-1
 466 578 l 2,66,67
 507 624 507 624 534.5 651.5 c 128,-1,68
 562 679 562 679 581.5 694 c 128,-1,69
 601 709 601 709 618 714 c 128,-1,70
 635 719 635 719 654 719 c 0,28,29
EndSplineSet
EndChar

StartChar: Yhook
Encoding: 435 435 239
Width: 709
GlyphClass: 2
Flags: W
AnchorPoint: "Anchor-1" 333 0 basechar 0
AnchorPoint: "Anchor-0" 362 741 basechar 0
LayerCount: 2
Fore
SplineSet
467 576 m 2,0,1
 496 630 496 630 519.5 661 c 128,-1,2
 543 692 543 692 567.5 705.5 c 128,-1,3
 592 719 592 719 623 719 c 0,4,5
 662 719 662 719 684.5 702 c 128,-1,6
 707 685 707 685 717 656 c 128,-1,7
 727 627 727 627 727 589 c 0,8,9
 727 554 727 554 721.5 518.5 c 128,-1,10
 716 483 716 483 710 465 c 1,11,-1
 611 465 l 1,12,13
 616 477 616 477 621 495 c 128,-1,14
 626 513 626 513 629.5 535 c 128,-1,15
 633 557 633 557 633 578 c 256,16,17
 633 599 633 599 627.5 609.5 c 128,-1,18
 622 620 622 620 608 620 c 0,19,20
 598 620 598 620 588.5 612 c 128,-1,21
 579 604 579 604 567.5 585.5 c 128,-1,22
 556 567 556 567 538 534 c 2,23,-1
 382 258 l 1,24,-1
 390 300 l 1,25,-1
 390 120 l 2,26,27
 390 98 390 98 411 91 c 128,-1,28
 432 84 432 84 460 84 c 2,29,-1
 479 84 l 1,30,-1
 479 0 l 1,31,-1
 186 0 l 1,32,-1
 186 84 l 1,33,-1
 205 84 l 2,34,35
 234 84 234 84 254.5 91 c 128,-1,36
 275 98 275 98 275 120 c 2,37,-1
 275 300 l 1,38,-1
 282 259 l 1,39,-1
 95 583 l 2,40,41
 86 600 86 600 77 609.5 c 128,-1,42
 68 619 68 619 58 622.5 c 128,-1,43
 48 626 48 626 36 626 c 2,44,-1
 25 626 l 1,45,-1
 25 710 l 1,46,-1
 271 710 l 1,47,-1
 271 626 l 1,48,-1
 256 626 l 2,49,50
 241 626 241 626 228 624.5 c 128,-1,51
 215 623 215 623 206.5 621 c 128,-1,52
 198 619 198 619 198 615 c 2,53,-1
 373 302 l 1,54,-1
 319 302 l 1,55,-1
 467 576 l 2,0,1
EndSplineSet
EndChar

StartChar: Germandbls
Encoding: 7838 7838 240
Width: 813
GlyphClass: 1
Flags: W
LayerCount: 2
Fore
SplineSet
556 66 m 256,0,1
 592 66 592 66 611 78 c 128,-1,2
 630 90 630 90 637 116 c 128,-1,3
 644 142 644 142 644 185 c 256,4,5
 644 228 644 228 634 254.5 c 128,-1,6
 624 281 624 281 602 298.5 c 128,-1,7
 580 316 580 316 543 330 c 128,-1,8
 506 344 506 344 452 361 c 1,9,-1
 452 442 l 1,10,-1
 590 670 l 1,11,-1
 618 624 l 1,12,-1
 376 624 l 2,13,14
 337 624 337 624 310.5 614 c 128,-1,15
 284 604 284 604 267.5 584.5 c 128,-1,16
 251 565 251 565 243.5 535 c 128,-1,17
 236 505 236 505 236 464 c 2,18,-1
 236 0 l 1,19,-1
 44 0 l 1,20,-1
 44 84 l 1,21,-1
 54 84 l 2,22,23
 85 84 85 84 103.5 91 c 128,-1,24
 122 98 122 98 122 120 c 2,25,-1
 122 462 l 2,26,27
 122 522 122 522 134.5 568 c 128,-1,28
 147 614 147 614 175 645.5 c 128,-1,29
 203 677 203 677 248.5 693.5 c 128,-1,30
 294 710 294 710 360 710 c 2,31,-1
 680 710 l 1,32,-1
 680 629 l 1,33,-1
 541 396 l 1,34,-1
 509 422 l 1,35,36
 566 405 566 405 612.5 387.5 c 128,-1,37
 659 370 659 370 691.5 345.5 c 128,-1,38
 724 321 724 321 742 282.5 c 128,-1,39
 760 244 760 244 760 186 c 0,40,41
 760 124 760 124 740 79 c 128,-1,42
 720 34 720 34 678 10 c 128,-1,43
 636 -14 636 -14 570 -14 c 0,44,45
 512 -14 512 -14 475.5 7.5 c 128,-1,46
 439 29 439 29 420.5 74 c 128,-1,47
 402 119 402 119 398 189 c 1,48,-1
 418 147 l 1,49,-1
 404 0 l 1,50,-1
 328 0 l 1,51,-1
 328 232 l 1,52,-1
 414 232 l 1,53,54
 424 193 424 193 434 162.5 c 128,-1,55
 444 132 444 132 459 110.5 c 128,-1,56
 474 89 474 89 497 77.5 c 128,-1,57
 520 66 520 66 556 66 c 256,0,1
EndSplineSet
EndChar

StartChar: Delta
Encoding: 916 916 241
Width: 704
GlyphClass: 1
Flags: W
LayerCount: 2
Fore
SplineSet
49 0 m 1,0,-1
 49 93 l 1,1,-1
 295 710 l 1,2,-1
 410 710 l 1,3,-1
 656 93 l 1,4,-1
 656 0 l 1,5,-1
 49 0 l 1,0,-1
556 61 m 1,6,-1
 309 693 l 1,7,-1
 376 695 l 1,8,-1
 125 58 l 1,9,-1
 77 98 l 1,10,-1
 600 98 l 1,11,-1
 556 61 l 1,6,-1
EndSplineSet
EndChar

StartChar: Omega
Encoding: 937 937 242
Width: 813
GlyphClass: 1
Flags: W
LayerCount: 2
Fore
SplineSet
406 735 m 256,0,1
 334 735 334 735 277 718.5 c 128,-1,2
 220 702 220 702 180.5 668.5 c 128,-1,3
 141 635 141 635 120 585.5 c 128,-1,4
 99 536 99 536 99 470 c 0,5,6
 99 432 99 432 106.5 396.5 c 128,-1,7
 114 361 114 361 130.5 324.5 c 128,-1,8
 147 288 147 288 172.5 247.5 c 128,-1,9
 198 207 198 207 234.5 161 c 128,-1,10
 271 115 271 115 318 59 c 1,11,-1
 327 79 l 1,12,-1
 231 79 l 2,13,14
 195 79 195 79 175.5 83 c 128,-1,15
 156 87 156 87 148 97.5 c 128,-1,16
 140 108 140 108 137 126 c 2,17,-1
 125 217 l 1,18,-1
 48 217 l 1,19,-1
 48 0 l 1,20,-1
 365 0 l 1,21,-1
 365 128 l 1,22,23
 328 176 328 176 300 216.5 c 128,-1,24
 272 257 272 257 253.5 295 c 128,-1,25
 235 333 235 333 226 373 c 128,-1,26
 217 413 217 413 217 459 c 0,27,28
 217 529 217 529 237.5 571.5 c 128,-1,29
 258 614 258 614 300 633 c 128,-1,30
 342 652 342 652 406 652 c 0,31,32
 471 652 471 652 512.5 633 c 128,-1,33
 554 614 554 614 575 571.5 c 128,-1,34
 596 529 596 529 596 459 c 0,35,36
 596 413 596 413 586.5 373 c 128,-1,37
 577 333 577 333 559 295 c 128,-1,38
 541 257 541 257 513 216.5 c 128,-1,39
 485 176 485 176 448 128 c 1,40,-1
 448 0 l 1,41,-1
 765 0 l 1,42,-1
 765 217 l 1,43,-1
 688 217 l 1,44,-1
 675 126 l 2,45,46
 673 108 673 108 664.5 97.5 c 128,-1,47
 656 87 656 87 636.5 83 c 128,-1,48
 617 79 617 79 580 79 c 2,49,-1
 486 79 l 1,50,-1
 495 59 l 1,51,52
 542 114 542 114 578.5 160.5 c 128,-1,53
 615 207 615 207 640.5 247.5 c 128,-1,54
 666 288 666 288 682 324.5 c 128,-1,55
 698 361 698 361 706 396.5 c 128,-1,56
 714 432 714 432 714 470 c 0,57,58
 714 536 714 536 693 585.5 c 128,-1,59
 672 635 672 635 632 668.5 c 128,-1,60
 592 702 592 702 535 718.5 c 128,-1,61
 478 735 478 735 406 735 c 256,0,1
EndSplineSet
EndChar

StartChar: Djecyr
Encoding: 1026 1026 244
Width: 829
GlyphClass: 2
Flags: W
AnchorPoint: "Anchor-0" 323 741 basechar 0
LayerCount: 2
Fore
SplineSet
776 200 m 0,0,1
 776 146 776 146 760.5 104 c 128,-1,2
 745 62 745 62 715 33 c 128,-1,3
 685 4 685 4 642 -10 c 128,-1,4
 599 -24 599 -24 544 -24 c 1,5,-1
 544 60 l 1,6,7
 581 60 581 60 606 74.5 c 128,-1,8
 631 89 631 89 644 119.5 c 128,-1,9
 657 150 657 150 657 199 c 0,10,11
 657 265 657 265 622 301.5 c 128,-1,12
 587 338 587 338 521 338 c 0,13,14
 473 338 473 338 431 327.5 c 128,-1,15
 389 317 389 317 347 293 c 1,16,-1
 347 378 l 1,17,18
 389 400 389 400 434 411.5 c 128,-1,19
 479 423 479 423 533 423 c 0,20,21
 615 423 615 423 669 395.5 c 128,-1,22
 723 368 723 368 749.5 318 c 128,-1,23
 776 268 776 268 776 200 c 0,0,1
179 0 m 1,24,-1
 179 84 l 1,25,-1
 196 84 l 2,26,27
 226 84 226 84 247.5 91 c 128,-1,28
 269 98 269 98 269 120 c 2,29,-1
 269 627 l 1,30,-1
 228 627 l 2,31,32
 190 627 190 627 172 620.5 c 128,-1,33
 154 614 154 614 148 601 c 128,-1,34
 142 588 142 588 139 568 c 2,35,-1
 128 468 l 1,36,-1
 47 468 l 1,37,-1
 47 710 l 1,38,-1
 636 710 l 1,39,-1
 636 489 l 1,40,-1
 555 489 l 1,41,-1
 544 568 l 2,42,43
 542 589 542 589 535.5 601.5 c 128,-1,44
 529 614 529 614 511 620.5 c 128,-1,45
 493 627 493 627 456 627 c 2,46,-1
 383 627 l 1,47,-1
 383 94 l 2,48,49
 383 91 383 91 393.5 88.5 c 128,-1,50
 404 86 404 86 420 85 c 128,-1,51
 436 84 436 84 451 84 c 2,52,-1
 464 84 l 1,53,-1
 464 0 l 1,54,-1
 179 0 l 1,24,-1
EndSplineSet
EndChar

StartChar: Eukrcyr
Encoding: 1028 1028 245
Width: 712
GlyphClass: 2
Flags: W
AnchorPoint: "Anchor-1" 370 0 basechar 0
AnchorPoint: "Anchor-0" 370 741 basechar 0
LayerCount: 2
Fore
SplineSet
146 403 m 1,0,1
 173 404 173 404 199.5 405.5 c 128,-1,2
 226 407 226 407 252.5 408.5 c 128,-1,3
 279 410 279 410 305.5 411.5 c 128,-1,4
 332 413 332 413 358.5 414 c 128,-1,5
 385 415 385 415 411.5 416.5 c 128,-1,6
 438 418 438 418 465 419 c 1,7,-1
 465 311 l 1,8,9
 438 312 438 312 411.5 313.5 c 128,-1,10
 385 315 385 315 358.5 316 c 128,-1,11
 332 317 332 317 305.5 318.5 c 128,-1,12
 279 320 279 320 252.5 321.5 c 128,-1,13
 226 323 226 323 199.5 324 c 128,-1,14
 173 325 173 325 146 327 c 1,15,-1
 146 403 l 1,0,1
366 649 m 0,16,17
 316 649 316 649 280 632 c 128,-1,18
 244 615 244 615 221 579.5 c 128,-1,19
 198 544 198 544 187 488.5 c 128,-1,20
 176 433 176 433 176 356 c 256,21,22
 176 279 176 279 187.5 222.5 c 128,-1,23
 199 166 199 166 223 130 c 128,-1,24
 247 94 247 94 285 77 c 128,-1,25
 323 60 323 60 376 60 c 0,26,27
 438 60 438 60 478 85 c 128,-1,28
 518 110 518 110 542.5 151 c 128,-1,29
 567 192 567 192 581 237 c 1,30,-1
 658 207 l 1,31,32
 637 136 637 136 598.5 84 c 128,-1,33
 560 32 560 32 502.5 4 c 128,-1,34
 445 -24 445 -24 368 -24 c 0,35,36
 297 -24 297 -24 239.5 0 c 128,-1,37
 182 24 182 24 140 72 c 128,-1,38
 98 120 98 120 76 191 c 128,-1,39
 54 262 54 262 54 356 c 256,40,41
 54 450 54 450 76.5 521 c 128,-1,42
 99 592 99 592 140 639.5 c 128,-1,43
 181 687 181 687 237 710.5 c 128,-1,44
 293 734 293 734 360 734 c 0,45,46
 422 734 422 734 468 708 c 128,-1,47
 514 682 514 682 541.5 630 c 128,-1,48
 569 578 569 578 576 501 c 1,49,-1
 552 540 l 1,50,-1
 567 720 l 1,51,-1
 647 720 l 1,52,-1
 647 466 l 1,53,-1
 557 466 l 1,54,55
 542 522 542 522 516.5 563 c 128,-1,56
 491 604 491 604 454 626.5 c 128,-1,57
 417 649 417 649 366 649 c 0,16,17
EndSplineSet
Substitution2: "'ss01' Style Set 1 lookup 61 subtable" Ieukran.alt1
EndChar

StartChar: Yukrcyr
Encoding: 1031 1031 248
Width: 389
GlyphClass: 2
Flags: W
AnchorPoint: "Anchor-1" 195 0 basechar 0
AnchorPoint: "Anchor-0" 195 922 basechar 0
LayerCount: 2
Fore
SplineSet
170 860 m 0,0,1
 170 821 170 821 150 804.5 c 128,-1,2
 130 788 130 788 97 788 c 256,3,4
 64 788 64 788 44 804.5 c 128,-1,5
 24 821 24 821 24 860 c 0,6,7
 24 898 24 898 44 915 c 128,-1,8
 64 932 64 932 97 932 c 256,9,10
 130 932 130 932 150 915 c 128,-1,11
 170 898 170 898 170 860 c 0,0,1
364 860 m 0,12,13
 364 821 364 821 344 804.5 c 128,-1,14
 324 788 324 788 291 788 c 0,15,16
 259 788 259 788 239 804.5 c 128,-1,17
 219 821 219 821 219 860 c 0,18,19
 219 898 219 898 239 915 c 128,-1,20
 259 932 259 932 291 932 c 0,21,22
 324 932 324 932 344 915 c 128,-1,23
 364 898 364 898 364 860 c 0,12,13
137 121 m 2,24,-1
 137 590 l 2,25,26
 137 612 137 612 117 619 c 128,-1,27
 97 626 97 626 69 626 c 2,28,-1
 51 626 l 1,29,-1
 51 710 l 1,30,-1
 337 710 l 1,31,-1
 337 626 l 1,32,-1
 319 626 l 2,33,34
 291 626 291 626 271.5 619 c 128,-1,35
 252 612 252 612 252 589 c 2,36,-1
 252 120 l 2,37,38
 252 98 252 98 271.5 91 c 128,-1,39
 291 84 291 84 319 84 c 2,40,-1
 337 84 l 1,41,-1
 337 0 l 1,42,-1
 51 0 l 1,43,-1
 51 84 l 1,44,-1
 69 84 l 2,45,46
 97 84 97 84 117 91 c 128,-1,47
 137 98 137 98 137 121 c 2,24,-1
EndSplineSet
EndChar

StartChar: Ljecyr
Encoding: 1033 1033 250
Width: 998
GlyphClass: 2
Flags: W
AnchorPoint: "Anchor-0" 399 741 basechar 0
LayerCount: 2
Fore
SplineSet
239 710 m 1,0,-1
 539 710 l 1,1,-1
 539 625 l 1,2,-1
 239 625 l 1,3,-1
 239 710 l 1,0,-1
165 280 m 2,4,-1
 187 590 l 2,5,6
 188 612 188 612 170.5 619 c 128,-1,7
 153 626 153 626 128 626 c 2,8,-1
 118 626 l 1,9,-1
 118 710 l 1,10,-1
 288 710 l 1,11,-1
 258 275 l 2,12,13
 252 172 252 172 230 108 c 128,-1,14
 208 44 208 44 170 14.5 c 128,-1,15
 132 -15 132 -15 76 -15 c 0,16,17
 56 -15 56 -15 40 -10.5 c 128,-1,18
 24 -6 24 -6 13 0 c 1,19,-1
 13 107 l 1,20,21
 22 103 22 103 37 98 c 128,-1,22
 52 93 52 93 70 93 c 0,23,24
 97 93 97 93 116 111.5 c 128,-1,25
 135 130 135 130 148 171.5 c 128,-1,26
 161 213 161 213 165 280 c 2,4,-1
715 0 m 2,27,-1
 404 0 l 1,28,-1
 404 84 l 1,29,-1
 412 84 l 2,30,31
 428 84 428 84 443.5 85 c 128,-1,32
 459 86 459 86 469.5 88.5 c 128,-1,33
 480 91 480 91 480 94 c 2,34,-1
 480 710 l 1,35,-1
 676 710 l 1,36,-1
 676 628 l 1,37,-1
 655 628 l 2,38,39
 631 628 631 628 612.5 621 c 128,-1,40
 594 614 594 614 594 592 c 2,41,-1
 594 83 l 1,42,-1
 708 83 l 2,43,44
 751 83 751 83 778 98 c 128,-1,45
 805 113 805 113 818 142.5 c 128,-1,46
 831 172 831 172 831 216 c 0,47,48
 831 264 831 264 818 294.5 c 128,-1,49
 805 325 805 325 778 340.5 c 128,-1,50
 751 356 751 356 708 356 c 2,51,-1
 542 356 l 1,52,-1
 542 439 l 1,53,-1
 716 439 l 2,54,55
 787 439 787 439 839.5 415 c 128,-1,56
 892 391 892 391 921 342 c 128,-1,57
 950 293 950 293 950 216 c 0,58,59
 950 148 950 148 920 99.5 c 128,-1,60
 890 51 890 51 837 25.5 c 128,-1,61
 784 0 784 0 715 0 c 2,27,-1
EndSplineSet
EndChar

StartChar: Njecyr
Encoding: 1034 1034 251
Width: 1037
GlyphClass: 2
Flags: W
AnchorPoint: "Anchor-0" 383 741 basechar 0
LayerCount: 2
Fore
SplineSet
206 431 m 1,0,-1
 552 431 l 1,1,-1
 552 348 l 1,2,-1
 206 348 l 1,3,-1
 206 431 l 1,0,-1
53 0 m 1,4,-1
 53 84 l 1,5,-1
 63 84 l 2,6,7
 87 84 87 84 106.5 91 c 128,-1,8
 126 98 126 98 126 121 c 2,9,-1
 126 590 l 2,10,11
 126 612 126 612 106.5 619 c 128,-1,12
 87 626 87 626 63 626 c 2,13,-1
 53 626 l 1,14,-1
 53 710 l 1,15,-1
 321 710 l 1,16,-1
 321 626 l 1,17,-1
 313 626 l 2,18,19
 297 626 297 626 280.5 625 c 128,-1,20
 264 624 264 624 252 622 c 128,-1,21
 240 620 240 620 240 616 c 2,22,-1
 240 93 l 2,23,24
 240 91 240 91 252 88.5 c 128,-1,25
 264 86 264 86 280.5 85 c 128,-1,26
 297 84 297 84 313 84 c 2,27,-1
 321 84 l 1,28,-1
 321 0 l 1,29,-1
 53 0 l 1,4,-1
443 0 m 1,30,-1
 443 84 l 1,31,-1
 450 84 l 2,32,33
 466 84 466 84 481.5 85 c 128,-1,34
 497 86 497 86 508 88.5 c 128,-1,35
 519 91 519 91 519 94 c 2,36,-1
 519 617 l 2,37,38
 519 620 519 620 508 622 c 128,-1,39
 497 624 497 624 481.5 625 c 128,-1,40
 466 626 466 626 451 626 c 2,41,-1
 443 626 l 1,42,-1
 443 710 l 1,43,-1
 720 710 l 1,44,-1
 720 626 l 1,45,-1
 701 626 l 2,46,47
 684 626 684 626 668.5 623 c 128,-1,48
 653 620 653 620 643 612.5 c 128,-1,49
 633 605 633 605 633 589 c 2,50,-1
 633 83 l 1,51,-1
 747 83 l 2,52,53
 786 83 786 83 814 97 c 128,-1,54
 842 111 842 111 856 140 c 128,-1,55
 870 169 870 169 870 212 c 0,56,57
 870 257 870 257 855.5 287.5 c 128,-1,58
 841 318 841 318 813.5 333 c 128,-1,59
 786 348 786 348 747 348 c 2,60,-1
 590 348 l 1,61,-1
 590 431 l 1,62,-1
 755 431 l 2,63,64
 826 431 826 431 878.5 406.5 c 128,-1,65
 931 382 931 382 960 333.5 c 128,-1,66
 989 285 989 285 989 212 c 0,67,68
 989 144 989 144 959 96.5 c 128,-1,69
 929 49 929 49 876 24.5 c 128,-1,70
 823 0 823 0 754 0 c 2,71,-1
 443 0 l 1,30,-1
EndSplineSet
EndChar

StartChar: Tshecyr
Encoding: 1035 1035 252
Width: 871
GlyphClass: 2
Flags: W
AnchorPoint: "Anchor-0" 314 741 basechar 0
LayerCount: 2
Fore
SplineSet
536 423 m 0,0,1
 620 423 620 423 670 400.5 c 128,-1,2
 720 378 720 378 742 332 c 128,-1,3
 764 286 764 286 764 214 c 2,4,-1
 764 120 l 2,5,6
 764 98 764 98 782.5 91 c 128,-1,7
 801 84 801 84 827 84 c 2,8,-1
 837 84 l 1,9,-1
 837 0 l 1,10,-1
 650 0 l 1,11,-1
 650 208 l 2,12,13
 650 258 650 258 634 286 c 128,-1,14
 618 314 618 314 590 325.5 c 128,-1,15
 562 337 562 337 524 337 c 0,16,17
 480 337 480 337 434 327.5 c 128,-1,18
 388 318 388 318 347 293 c 1,19,-1
 347 378 l 1,20,21
 390 401 390 401 438.5 412 c 128,-1,22
 487 423 487 423 536 423 c 0,0,1
179 0 m 1,23,-1
 179 84 l 1,24,-1
 196 84 l 2,25,26
 226 84 226 84 247.5 91 c 128,-1,27
 269 98 269 98 269 120 c 2,28,-1
 269 627 l 1,29,-1
 228 627 l 2,30,31
 190 627 190 627 172 620.5 c 128,-1,32
 154 614 154 614 148 601 c 128,-1,33
 142 588 142 588 139 568 c 2,34,-1
 128 468 l 1,35,-1
 47 468 l 1,36,-1
 47 710 l 1,37,-1
 636 710 l 1,38,-1
 636 489 l 1,39,-1
 555 489 l 1,40,-1
 544 568 l 2,41,42
 542 589 542 589 535.5 602 c 128,-1,43
 529 615 529 615 511 621 c 128,-1,44
 493 627 493 627 456 627 c 2,45,-1
 383 627 l 1,46,-1
 383 94 l 2,47,48
 383 91 383 91 394.5 88.5 c 128,-1,49
 406 86 406 86 422.5 85 c 128,-1,50
 439 84 439 84 456 84 c 2,51,-1
 474 84 l 1,52,-1
 474 0 l 1,53,-1
 179 0 l 1,23,-1
EndSplineSet
EndChar

StartChar: Dzhecyr
Encoding: 1039 1039 253
Width: 787
GlyphClass: 2
Flags: W
AnchorPoint: "Anchor-0" 394 741 basechar 0
LayerCount: 2
Fore
SplineSet
53 710 m 1,0,-1
 321 710 l 1,1,-1
 321 626 l 1,2,-1
 313 626 l 2,3,4
 297 626 297 626 280.5 625 c 128,-1,5
 264 624 264 624 252 622 c 128,-1,6
 240 620 240 620 240 616 c 2,7,-1
 240 0 l 1,8,-1
 53 0 l 1,9,-1
 53 84 l 1,10,-1
 63 84 l 2,11,12
 87 84 87 84 106.5 91 c 128,-1,13
 126 98 126 98 126 121 c 2,14,-1
 126 590 l 2,15,16
 126 612 126 612 106.5 619 c 128,-1,17
 87 626 87 626 63 626 c 2,18,-1
 53 626 l 1,19,-1
 53 710 l 1,0,-1
465 710 m 1,20,-1
 734 710 l 1,21,-1
 734 626 l 1,22,-1
 724 626 l 2,23,24
 700 626 700 626 680.5 619 c 128,-1,25
 661 612 661 612 661 589 c 2,26,-1
 661 120 l 2,27,28
 661 98 661 98 680.5 91 c 128,-1,29
 700 84 700 84 724 84 c 2,30,-1
 734 84 l 1,31,-1
 734 0 l 1,32,-1
 547 0 l 1,33,-1
 547 616 l 2,34,35
 547 620 547 620 535 622 c 128,-1,36
 523 624 523 624 506.5 625 c 128,-1,37
 490 626 490 626 473 626 c 2,38,-1
 465 626 l 1,39,-1
 465 710 l 1,20,-1
183 0 m 1,40,-1
 183 85 l 1,41,-1
 604 85 l 1,42,-1
 604 0 l 1,43,-1
 563 0 l 2,44,45
 521 0 521 0 496 -5.5 c 128,-1,46
 471 -11 471 -11 459.5 -22.5 c 128,-1,47
 448 -34 448 -34 446 -54 c 2,48,-1
 434 -184 l 1,49,-1
 353 -184 l 1,50,-1
 341 -54 l 2,51,52
 340 -35 340 -35 328 -23 c 128,-1,53
 316 -11 316 -11 291 -5.5 c 128,-1,54
 266 0 266 0 223 0 c 2,55,-1
 183 0 l 1,40,-1
EndSplineSet
EndChar

StartChar: Becyr
Encoding: 1041 1041 257
Width: 654
GlyphClass: 2
Flags: W
AnchorPoint: "Anchor-0" 334 741 basechar 0
LayerCount: 2
Fore
SplineSet
53 710 m 1,0,-1
 557 710 l 1,1,-1
 557 508 l 1,2,-1
 475 508 l 1,3,-1
 465 582 l 2,4,5
 463 600 463 600 451 609.5 c 128,-1,6
 439 619 439 619 415.5 623 c 128,-1,7
 392 627 392 627 355 627 c 2,8,-1
 241 627 l 1,9,-1
 241 83 l 1,10,-1
 358 83 l 2,11,12
 401 83 401 83 428 97 c 128,-1,13
 455 111 455 111 468 139 c 128,-1,14
 481 167 481 167 481 211 c 256,15,16
 481 255 481 255 468 284.5 c 128,-1,17
 455 314 455 314 428 329 c 128,-1,18
 401 344 401 344 358 344 c 2,19,-1
 179 344 l 1,20,-1
 179 427 l 1,21,-1
 366 427 l 2,22,23
 438 427 438 427 490.5 404 c 128,-1,24
 543 381 543 381 572 333.5 c 128,-1,25
 601 286 601 286 601 211 c 0,26,27
 601 143 601 143 571 96 c 128,-1,28
 541 49 541 49 488 24.5 c 128,-1,29
 435 0 435 0 366 0 c 2,30,-1
 53 0 l 1,31,-1
 53 84 l 1,32,-1
 63 84 l 2,33,34
 87 84 87 84 106.5 91 c 128,-1,35
 126 98 126 98 126 120 c 2,36,-1
 126 592 l 2,37,38
 126 612 126 612 106.5 619 c 128,-1,39
 87 626 87 626 63 626 c 2,40,-1
 53 626 l 1,41,-1
 53 710 l 1,0,-1
EndSplineSet
EndChar

StartChar: Gecyr
Encoding: 1043 1043 259
Width: 614
GlyphClass: 2
Flags: W
AnchorPoint: "Anchor-0" 313 741 basechar 0
LayerCount: 2
Fore
SplineSet
240 627 m 1,0,-1
 240 120 l 2,1,2
 240 106 240 106 250.5 98 c 128,-1,3
 261 90 261 90 278.5 87 c 128,-1,4
 296 84 296 84 318 84 c 2,5,-1
 340 84 l 1,6,-1
 340 0 l 1,7,-1
 53 0 l 1,8,-1
 53 84 l 1,9,-1
 63 84 l 2,10,11
 87 84 87 84 106.5 91 c 128,-1,12
 126 98 126 98 126 121 c 2,13,-1
 126 590 l 2,14,15
 126 612 126 612 106.5 619 c 128,-1,16
 87 626 87 626 63 626 c 2,17,-1
 53 626 l 1,18,-1
 53 710 l 1,19,-1
 567 710 l 1,20,-1
 567 468 l 1,21,-1
 485 468 l 1,22,-1
 475 568 l 2,23,24
 472 591 472 591 462 604 c 128,-1,25
 452 617 452 617 430 622 c 128,-1,26
 408 627 408 627 370 627 c 2,27,-1
 240 627 l 1,0,-1
EndSplineSet
EndChar

StartChar: Decyr
Encoding: 1044 1044 261
Width: 769
GlyphClass: 2
Flags: W
AnchorPoint: "Anchor-0" 415 741 basechar 0
LayerCount: 2
Fore
SplineSet
231 710 m 1,0,-1
 577 710 l 1,1,-1
 577 625 l 1,2,-1
 231 625 l 1,3,-1
 231 710 l 1,0,-1
641 0 m 1,4,-1
 527 0 l 1,5,-1
 527 710 l 1,6,-1
 714 710 l 1,7,-1
 714 626 l 1,8,-1
 704 626 l 2,9,10
 678 626 678 626 659.5 619 c 128,-1,11
 641 612 641 612 641 590 c 2,12,-1
 641 0 l 1,4,-1
633 -54 m 2,13,14
 631 -35 631 -35 619.5 -23 c 128,-1,15
 608 -11 608 -11 583 -5.5 c 128,-1,16
 558 0 558 0 516 0 c 2,17,-1
 236 0 l 2,18,19
 194 0 194 0 169 -5.5 c 128,-1,20
 144 -11 144 -11 132.5 -23 c 128,-1,21
 121 -35 121 -35 119 -53 c 2,22,-1
 107 -184 l 1,23,-1
 26 -184 l 1,24,-1
 26 85 l 1,25,-1
 726 85 l 1,26,-1
 726 -184 l 1,27,-1
 645 -184 l 1,28,-1
 633 -54 l 2,13,14
172 34 m 1,29,-1
 66 34 l 1,30,31
 87 61 87 61 102.5 91 c 128,-1,32
 118 121 118 121 130 159 c 128,-1,33
 142 197 142 197 150 249 c 128,-1,34
 158 301 158 301 164 371 c 2,35,-1
 181 590 l 2,36,37
 183 612 183 612 165.5 619 c 128,-1,38
 148 626 148 626 123 626 c 2,39,-1
 113 626 l 1,40,-1
 113 710 l 1,41,-1
 284 710 l 1,42,-1
 258 369 l 2,43,44
 251 277 251 277 239.5 214.5 c 128,-1,45
 228 152 228 152 211.5 109.5 c 128,-1,46
 195 67 195 67 172 34 c 1,29,-1
EndSplineSet
Substitution2: "'locl' Localized Forms in Cyrillic lookup 12 subtable" De.bgr
EndChar

StartChar: Zhecyr
Encoding: 1046 1046 266
Width: 1059
GlyphClass: 2
Flags: W
AnchorPoint: "Anchor-1" 519 0 basechar 0
AnchorPoint: "Anchor-0" 519 741 basechar 0
LayerCount: 2
Fore
SplineSet
753 0 m 1,0,-1
 753 84 l 1,1,-1
 761 84 l 2,2,3
 779 84 779 84 794.5 85 c 128,-1,4
 810 86 810 86 820 88.5 c 128,-1,5
 830 91 830 91 830 94 c 2,6,-1
 624 346 l 1,7,-1
 624 372 l 1,8,-1
 843 615 l 2,9,10
 843 619 843 619 833 621 c 128,-1,11
 823 623 823 623 808 624.5 c 128,-1,12
 793 626 793 626 777 626 c 2,13,-1
 768 626 l 1,14,-1
 768 710 l 1,15,-1
 1010 710 l 1,16,-1
 1010 626 l 1,17,-1
 987 626 l 2,18,19
 977 626 977 626 968 623.5 c 128,-1,20
 959 621 959 621 949.5 615 c 128,-1,21
 940 609 940 609 930 597 c 2,22,-1
 711 355 l 1,23,-1
 715 405 l 1,24,-1
 959 106 l 2,25,26
 967 96 967 96 976 91 c 128,-1,27
 985 86 985 86 995.5 85 c 128,-1,28
 1006 84 1006 84 1017 84 c 2,29,-1
 1035 84 l 1,30,-1
 1035 0 l 1,31,-1
 753 0 l 1,0,-1
301 0 m 1,32,-1
 24 0 l 1,33,-1
 24 84 l 1,34,-1
 42 84 l 2,35,36
 53 84 53 84 63.5 85 c 128,-1,37
 74 86 74 86 83 91 c 128,-1,38
 92 96 92 96 100 106 c 2,39,-1
 344 405 l 1,40,-1
 341 355 l 1,41,-1
 122 597 l 2,42,43
 112 609 112 609 102.5 615 c 128,-1,44
 93 621 93 621 84.5 623.5 c 128,-1,45
 76 626 76 626 65 626 c 2,46,-1
 42 626 l 1,47,-1
 42 710 l 1,48,-1
 286 710 l 1,49,-1
 286 626 l 1,50,-1
 277 626 l 2,51,52
 262 626 262 626 246.5 624.5 c 128,-1,53
 231 623 231 623 221 621 c 128,-1,54
 211 619 211 619 211 615 c 2,55,-1
 430 372 l 1,56,-1
 430 346 l 1,57,-1
 224 94 l 2,58,59
 224 91 224 91 234.5 88.5 c 128,-1,60
 245 86 245 86 261 85 c 128,-1,61
 277 84 277 84 293 84 c 2,62,-1
 301 84 l 1,63,-1
 301 0 l 1,32,-1
396 0 m 1,64,-1
 396 84 l 1,65,-1
 404 84 l 2,66,67
 415 84 415 84 426 84.5 c 128,-1,68
 437 85 437 85 447 86.5 c 128,-1,69
 457 88 457 88 463.5 89.5 c 128,-1,70
 470 91 470 91 470 94 c 2,71,-1
 470 617 l 2,72,73
 470 619 470 619 464 620.5 c 128,-1,74
 458 622 458 622 447.5 623.5 c 128,-1,75
 437 625 437 625 425 625.5 c 128,-1,76
 413 626 413 626 402 626 c 2,77,-1
 394 626 l 1,78,-1
 394 710 l 1,79,-1
 661 710 l 1,80,-1
 661 626 l 1,81,-1
 653 626 l 2,82,83
 642 626 642 626 629.5 625.5 c 128,-1,84
 617 625 617 625 607 623.5 c 128,-1,85
 597 622 597 622 590.5 620.5 c 128,-1,86
 584 619 584 619 584 616 c 2,87,-1
 584 93 l 2,88,89
 584 91 584 91 590 89.5 c 128,-1,90
 596 88 596 88 606.5 86.5 c 128,-1,91
 617 85 617 85 628.5 84.5 c 128,-1,92
 640 84 640 84 651 84 c 2,93,-1
 659 84 l 1,94,-1
 659 0 l 1,95,-1
 396 0 l 1,64,-1
EndSplineSet
EndChar

StartChar: Zecyr
Encoding: 1047 1047 269
Width: 671
GlyphClass: 2
Flags: W
AnchorPoint: "Anchor-1" 363 0 basechar 0
AnchorPoint: "Anchor-0" 363 741 basechar 0
LayerCount: 2
Fore
SplineSet
380 -24 m 0,0,1
 309 -24 309 -24 260 0.5 c 128,-1,2
 211 25 211 25 183 75 c 128,-1,3
 155 125 155 125 148 202 c 1,4,-1
 173 167 l 1,5,-1
 158 -10 l 1,6,-1
 78 -10 l 1,7,-1
 78 237 l 1,8,-1
 168 237 l 1,9,10
 184 183 184 183 210 144 c 128,-1,11
 236 105 236 105 275.5 83.5 c 128,-1,12
 315 62 315 62 370 62 c 0,13,14
 413 62 413 62 440 76.5 c 128,-1,15
 467 91 467 91 480 119.5 c 128,-1,16
 493 148 493 148 493 191 c 0,17,18
 493 227 493 227 480.5 256.5 c 128,-1,19
 468 286 468 286 437.5 301.5 c 128,-1,20
 407 317 407 317 352 315 c 0,21,22
 339 314 339 314 324 313.5 c 128,-1,23
 309 313 309 313 294.5 312.5 c 128,-1,24
 280 312 280 312 267 311 c 1,25,-1
 267 418 l 1,26,27
 281 418 281 418 295.5 417 c 128,-1,28
 310 416 310 416 324 415.5 c 128,-1,29
 338 415 338 415 353 415 c 0,30,31
 397 413 397 413 423.5 428.5 c 128,-1,32
 450 444 450 444 461 472.5 c 128,-1,33
 472 501 472 501 472 539 c 0,34,35
 472 572 472 572 462 596.5 c 128,-1,36
 452 621 452 621 429.5 635 c 128,-1,37
 407 649 407 649 369 649 c 0,38,39
 320 649 320 649 282.5 629.5 c 128,-1,40
 245 610 245 610 219 571.5 c 128,-1,41
 193 533 193 533 177 473 c 1,42,-1
 87 473 l 1,43,-1
 87 720 l 1,44,-1
 167 720 l 1,45,-1
 182 543 l 1,46,-1
 158 508 l 1,47,48
 163 565 163 565 180.5 608 c 128,-1,49
 198 651 198 651 226.5 678.5 c 128,-1,50
 255 706 255 706 293 720 c 128,-1,51
 331 734 331 734 378 734 c 0,52,53
 448 734 448 734 495.5 710 c 128,-1,54
 543 686 543 686 567 644.5 c 128,-1,55
 591 603 591 603 591 548 c 0,56,57
 591 496 591 496 566.5 457 c 128,-1,58
 542 418 542 418 501.5 396 c 128,-1,59
 461 374 461 374 411 371 c 1,60,-1
 419 391 l 1,61,-1
 419 342 l 1,62,-1
 411 367 l 1,63,64
 472 365 472 365 517.5 342.5 c 128,-1,65
 563 320 563 320 588 280.5 c 128,-1,66
 613 241 613 241 613 186 c 0,67,68
 613 137 613 137 597 98.5 c 128,-1,69
 581 60 581 60 551 32.5 c 128,-1,70
 521 5 521 5 478 -9.5 c 128,-1,71
 435 -24 435 -24 380 -24 c 0,0,1
EndSplineSet
EndChar

StartChar: Icyr
Encoding: 1048 1048 270
Width: 809
GlyphClass: 2
Flags: W
AnchorPoint: "Anchor-0" 405 741 basechar 0
LayerCount: 2
Fore
SplineSet
188 202 m 1,0,-1
 569 578 l 1,1,-1
 622 518 l 1,2,-1
 240 142 l 1,3,-1
 188 202 l 1,0,-1
53 0 m 1,4,-1
 53 84 l 1,5,-1
 63 84 l 2,6,7
 87 84 87 84 106.5 91 c 128,-1,8
 126 98 126 98 126 121 c 2,9,-1
 126 590 l 2,10,11
 126 612 126 612 106.5 619 c 128,-1,12
 87 626 87 626 63 626 c 2,13,-1
 53 626 l 1,14,-1
 53 710 l 1,15,-1
 321 710 l 1,16,-1
 321 626 l 1,17,-1
 313 626 l 2,18,19
 297 626 297 626 280.5 625 c 128,-1,20
 264 624 264 624 252 622 c 128,-1,21
 240 620 240 620 240 616 c 2,22,-1
 240 93 l 2,23,24
 240 91 240 91 252 88.5 c 128,-1,25
 264 86 264 86 280.5 85 c 128,-1,26
 297 84 297 84 313 84 c 2,27,-1
 321 84 l 1,28,-1
 321 0 l 1,29,-1
 53 0 l 1,4,-1
488 0 m 1,30,-1
 488 84 l 1,31,-1
 496 84 l 2,32,33
 512 84 512 84 528.5 85 c 128,-1,34
 545 86 545 86 557 88.5 c 128,-1,35
 569 91 569 91 569 94 c 2,36,-1
 569 617 l 2,37,38
 569 620 569 620 557 622 c 128,-1,39
 545 624 545 624 528.5 625 c 128,-1,40
 512 626 512 626 496 626 c 2,41,-1
 488 626 l 1,42,-1
 488 710 l 1,43,-1
 757 710 l 1,44,-1
 757 626 l 1,45,-1
 747 626 l 2,46,47
 723 626 723 626 703 619 c 128,-1,48
 683 612 683 612 683 589 c 2,49,-1
 683 120 l 2,50,51
 683 98 683 98 703 91 c 128,-1,52
 723 84 723 84 747 84 c 2,53,-1
 757 84 l 1,54,-1
 757 0 l 1,55,-1
 488 0 l 1,30,-1
EndSplineSet
EndChar

StartChar: Elcyr
Encoding: 1051 1051 276
Width: 755
GlyphClass: 2
Flags: W
AnchorPoint: "Anchor-0" 415 741 basechar 0
LayerCount: 2
Fore
SplineSet
240 710 m 1,0,-1
 573 710 l 1,1,-1
 573 625 l 1,2,-1
 240 625 l 1,3,-1
 240 710 l 1,0,-1
434 0 m 1,4,-1
 434 84 l 1,5,-1
 442 84 l 2,6,7
 458 84 458 84 474.5 85 c 128,-1,8
 491 86 491 86 503 88.5 c 128,-1,9
 515 91 515 91 515 94 c 2,10,-1
 515 710 l 1,11,-1
 702 710 l 1,12,-1
 702 626 l 1,13,-1
 692 626 l 2,14,15
 668 626 668 626 648.5 619 c 128,-1,16
 629 612 629 612 629 589 c 2,17,-1
 629 120 l 2,18,19
 629 98 629 98 648.5 91 c 128,-1,20
 668 84 668 84 692 84 c 2,21,-1
 702 84 l 1,22,-1
 702 0 l 1,23,-1
 434 0 l 1,4,-1
165 280 m 2,24,-1
 187 590 l 2,25,26
 188 612 188 612 170.5 619 c 128,-1,27
 153 626 153 626 128 626 c 2,28,-1
 118 626 l 1,29,-1
 118 710 l 1,30,-1
 288 710 l 1,31,-1
 258 275 l 2,32,33
 252 172 252 172 229.5 108 c 128,-1,34
 207 44 207 44 169.5 14.5 c 128,-1,35
 132 -15 132 -15 76 -15 c 0,36,37
 56 -15 56 -15 40 -10.5 c 128,-1,38
 24 -6 24 -6 13 0 c 1,39,-1
 13 107 l 1,40,41
 22 103 22 103 37 98 c 128,-1,42
 52 93 52 93 71 93 c 0,43,44
 97 93 97 93 116 111.5 c 128,-1,45
 135 130 135 130 148 171.5 c 128,-1,46
 161 213 161 213 165 280 c 2,24,-1
EndSplineSet
Substitution2: "'locl' Localized Forms in Cyrillic lookup 12 subtable" El.bgr
EndChar

StartChar: Pecyr
Encoding: 1055 1055 281
Width: 787
GlyphClass: 2
Flags: W
AnchorPoint: "Anchor-0" 394 741 basechar 0
LayerCount: 2
Fore
SplineSet
192 710 m 1,0,-1
 593 710 l 1,1,-1
 593 625 l 1,2,-1
 192 625 l 1,3,-1
 192 710 l 1,0,-1
53 0 m 1,4,-1
 53 84 l 1,5,-1
 63 84 l 2,6,7
 87 84 87 84 106.5 91 c 128,-1,8
 126 98 126 98 126 121 c 2,9,-1
 126 590 l 2,10,11
 126 612 126 612 106.5 619 c 128,-1,12
 87 626 87 626 63 626 c 2,13,-1
 53 626 l 1,14,-1
 53 710 l 1,15,-1
 240 710 l 1,16,-1
 240 94 l 2,17,18
 240 91 240 91 252 88.5 c 128,-1,19
 264 86 264 86 280.5 85 c 128,-1,20
 297 84 297 84 313 84 c 2,21,-1
 321 84 l 1,22,-1
 321 0 l 1,23,-1
 53 0 l 1,4,-1
465 0 m 1,24,-1
 465 84 l 1,25,-1
 473 84 l 2,26,27
 489 84 489 84 506 85 c 128,-1,28
 523 86 523 86 535 88.5 c 128,-1,29
 547 91 547 91 547 94 c 2,30,-1
 547 710 l 1,31,-1
 734 710 l 1,32,-1
 734 626 l 1,33,-1
 724 626 l 2,34,35
 700 626 700 626 680.5 619 c 128,-1,36
 661 612 661 612 661 589 c 2,37,-1
 661 120 l 2,38,39
 661 98 661 98 680.5 91 c 128,-1,40
 700 84 700 84 724 84 c 2,41,-1
 734 84 l 1,42,-1
 734 0 l 1,43,-1
 465 0 l 1,24,-1
EndSplineSet
EndChar

StartChar: Ucyr
Encoding: 1059 1059 285
Width: 658
GlyphClass: 2
Flags: W
AnchorPoint: "Anchor-1" 217 0 basechar 0
AnchorPoint: "Anchor-0" 335 741 basechar 0
LayerCount: 2
Fore
SplineSet
395 199 m 2,0,1
 369 140 369 140 346 98.5 c 128,-1,2
 323 57 323 57 300 31.5 c 128,-1,3
 277 6 277 6 251 -6.5 c 128,-1,4
 225 -19 225 -19 192 -19 c 0,5,6
 169 -19 169 -19 152.5 -14 c 128,-1,7
 136 -9 136 -9 125 -2 c 1,8,-1
 125 102 l 1,9,10
 134 96 134 96 152.5 90.5 c 128,-1,11
 171 85 171 85 191 85 c 0,12,13
 218 85 218 85 239.5 97.5 c 128,-1,14
 261 110 261 110 281 140.5 c 128,-1,15
 301 171 301 171 324 225 c 2,16,-1
 483 604 l 2,17,18
 483 611 483 611 475.5 615.5 c 128,-1,19
 468 620 468 620 456 623 c 128,-1,20
 444 626 444 626 433 626 c 2,21,-1
 424 626 l 1,22,-1
 424 710 l 1,23,-1
 633 710 l 1,24,-1
 633 626 l 1,25,-1
 622 626 l 2,26,27
 609 626 609 626 598 620.5 c 128,-1,28
 587 615 587 615 578 604 c 128,-1,29
 569 593 569 593 561 575 c 2,30,-1
 395 199 l 2,0,1
368 229 m 1,31,-1
 299 135 l 1,32,-1
 94 584 l 2,33,34
 87 601 87 601 78.5 610 c 128,-1,35
 70 619 70 619 60 622.5 c 128,-1,36
 50 626 50 626 36 626 c 2,37,-1
 25 626 l 1,38,-1
 25 710 l 1,39,-1
 270 710 l 1,40,-1
 270 626 l 1,41,-1
 257 626 l 2,42,43
 242 626 242 626 228 624.5 c 128,-1,44
 214 623 214 623 204.5 621 c 128,-1,45
 195 619 195 619 195 615 c 2,46,-1
 368 229 l 1,31,-1
EndSplineSet
EndChar

StartChar: Efcyr
Encoding: 1060 1060 290
Width: 869
GlyphClass: 2
Flags: W
AnchorPoint: "Anchor-1" 435 0 basechar 0
AnchorPoint: "Anchor-0" 435 741 basechar 0
LayerCount: 2
Fore
SplineSet
382 95 m 2,0,-1
 382 615 l 2,1,2
 382 637 382 637 361.5 644 c 128,-1,3
 341 651 341 651 309 651 c 2,4,-1
 291 651 l 1,5,-1
 291 735 l 1,6,-1
 577 735 l 1,7,-1
 577 651 l 1,8,-1
 559 651 l 2,9,10
 528 651 528 651 507.5 644 c 128,-1,11
 487 637 487 637 487 615 c 2,12,-1
 487 95 l 2,13,14
 487 73 487 73 507.5 66 c 128,-1,15
 528 59 528 59 559 59 c 2,16,-1
 577 59 l 1,17,-1
 577 -25 l 1,18,-1
 291 -25 l 1,19,-1
 291 59 l 1,20,-1
 309 59 l 2,21,22
 341 59 341 59 361.5 66 c 128,-1,23
 382 73 382 73 382 95 c 2,0,-1
389 608 m 1,24,-1
 389 523 l 1,25,26
 309 523 309 523 260 504.5 c 128,-1,27
 211 486 211 486 189 450 c 128,-1,28
 167 414 167 414 167 360 c 256,29,30
 167 306 167 306 189 269.5 c 128,-1,31
 211 233 211 233 260 214.5 c 128,-1,32
 309 196 309 196 389 196 c 1,33,-1
 389 111 l 1,34,35
 274 111 274 111 197.5 141 c 128,-1,36
 121 171 121 171 83 227 c 128,-1,37
 45 283 45 283 45 360 c 256,38,39
 45 437 45 437 83.5 492.5 c 128,-1,40
 122 548 122 548 198 578 c 128,-1,41
 274 608 274 608 389 608 c 1,24,-1
480 111 m 1,42,-1
 480 196 l 1,43,44
 561 196 561 196 610 214.5 c 128,-1,45
 659 233 659 233 680.5 269.5 c 128,-1,46
 702 306 702 306 702 360 c 256,47,48
 702 414 702 414 680.5 450 c 128,-1,49
 659 486 659 486 610 504.5 c 128,-1,50
 561 523 561 523 480 523 c 1,51,-1
 480 608 l 1,52,53
 596 608 596 608 672.5 578 c 128,-1,54
 749 548 749 548 786.5 492 c 128,-1,55
 824 436 824 436 824 359 c 0,56,57
 824 283 824 283 786 227 c 128,-1,58
 748 171 748 171 671.5 141 c 128,-1,59
 595 111 595 111 480 111 c 1,42,-1
EndSplineSet
EndChar

StartChar: Tsecyr
Encoding: 1062 1062 292
Width: 788
GlyphClass: 2
Flags: W
AnchorPoint: "Anchor-0" 394 741 basechar 0
LayerCount: 2
Fore
SplineSet
196 0 m 1,0,-1
 196 85 l 1,1,-1
 586 85 l 1,2,-1
 586 0 l 1,3,-1
 196 0 l 1,0,-1
53 710 m 1,4,-1
 321 710 l 1,5,-1
 321 626 l 1,6,-1
 313 626 l 2,7,8
 297 626 297 626 280.5 625 c 128,-1,9
 264 624 264 624 252 622 c 128,-1,10
 240 620 240 620 240 616 c 2,11,-1
 240 0 l 1,12,-1
 53 0 l 1,13,-1
 53 84 l 1,14,-1
 63 84 l 2,15,16
 87 84 87 84 106.5 91 c 128,-1,17
 126 98 126 98 126 121 c 2,18,-1
 126 590 l 2,19,20
 126 612 126 612 106.5 619 c 128,-1,21
 87 626 87 626 63 626 c 2,22,-1
 53 626 l 1,23,-1
 53 710 l 1,4,-1
465 710 m 1,24,-1
 734 710 l 1,25,-1
 734 626 l 1,26,-1
 724 626 l 2,27,28
 700 626 700 626 680.5 619 c 128,-1,29
 661 612 661 612 661 590 c 2,30,-1
 661 0 l 1,31,-1
 547 0 l 1,32,-1
 547 616 l 2,33,34
 547 620 547 620 535 622 c 128,-1,35
 523 624 523 624 506.5 625 c 128,-1,36
 490 626 490 626 473 626 c 2,37,-1
 465 626 l 1,38,-1
 465 710 l 1,24,-1
509 0 m 1,39,-1
 509 85 l 1,40,-1
 746 85 l 1,41,-1
 746 -184 l 1,42,-1
 665 -184 l 1,43,-1
 653 -54 l 2,44,45
 651 -35 651 -35 639.5 -23 c 128,-1,46
 628 -11 628 -11 602.5 -5.5 c 128,-1,47
 577 0 577 0 534 0 c 2,48,-1
 509 0 l 1,39,-1
EndSplineSet
EndChar

StartChar: Checyr
Encoding: 1063 1063 293
Width: 753
GlyphClass: 2
Flags: W
AnchorPoint: "Anchor-0" 369 741 basechar 0
LayerCount: 2
Fore
SplineSet
432 0 m 1,0,-1
 432 84 l 1,1,-1
 440 84 l 2,2,3
 456 84 456 84 473 85 c 128,-1,4
 490 86 490 86 501.5 88.5 c 128,-1,5
 513 91 513 91 513 94 c 2,6,-1
 513 617 l 2,7,8
 513 620 513 620 501 622 c 128,-1,9
 489 624 489 624 472.5 625 c 128,-1,10
 456 626 456 626 440 626 c 2,11,-1
 432 626 l 1,12,-1
 432 710 l 1,13,-1
 700 710 l 1,14,-1
 700 626 l 1,15,-1
 690 626 l 2,16,17
 666 626 666 626 646.5 619 c 128,-1,18
 627 612 627 612 627 589 c 2,19,-1
 627 120 l 2,20,21
 627 98 627 98 646.5 91 c 128,-1,22
 666 84 666 84 690 84 c 2,23,-1
 700 84 l 1,24,-1
 700 0 l 1,25,-1
 432 0 l 1,0,-1
344 268 m 0,26,27
 260 268 260 268 207.5 288 c 128,-1,28
 155 308 155 308 131 354 c 128,-1,29
 107 400 107 400 107 478 c 2,30,-1
 107 590 l 2,31,32
 107 612 107 612 87.5 619 c 128,-1,33
 68 626 68 626 44 626 c 2,34,-1
 34 626 l 1,35,-1
 34 710 l 1,36,-1
 302 710 l 1,37,-1
 302 626 l 1,38,-1
 294 626 l 2,39,40
 278 626 278 626 261 625 c 128,-1,41
 244 624 244 624 232.5 622 c 128,-1,42
 221 620 221 620 221 616 c 2,43,-1
 221 483 l 2,44,45
 221 436 221 436 234.5 407.5 c 128,-1,46
 248 379 248 379 277 366 c 128,-1,47
 306 353 306 353 357 353 c 0,48,49
 403 353 403 353 453 362.5 c 128,-1,50
 503 372 503 372 545 396 c 1,51,-1
 545 311 l 1,52,53
 500 289 500 289 448 278.5 c 128,-1,54
 396 268 396 268 344 268 c 0,26,27
EndSplineSet
EndChar

StartChar: Shacyr
Encoding: 1064 1064 294
Width: 1091
GlyphClass: 2
Flags: W
AnchorPoint: "Anchor-0" 535 741 basechar 0
LayerCount: 2
Fore
SplineSet
889 0 m 1,0,-1
 203 0 l 1,1,-1
 203 85 l 1,2,-1
 889 85 l 1,3,-1
 889 0 l 1,0,-1
1039 710 m 1,4,-1
 1039 626 l 1,5,-1
 1029 626 l 2,6,7
 1005 626 1005 626 985.5 619 c 128,-1,8
 966 612 966 612 966 589 c 2,9,-1
 966 120 l 2,10,11
 966 98 966 98 985.5 91 c 128,-1,12
 1005 84 1005 84 1029 84 c 2,13,-1
 1039 84 l 1,14,-1
 1039 0 l 1,15,-1
 851 0 l 1,16,-1
 851 616 l 2,17,18
 851 620 851 620 839.5 622 c 128,-1,19
 828 624 828 624 811 625 c 128,-1,20
 794 626 794 626 778 626 c 2,21,-1
 770 626 l 1,22,-1
 770 710 l 1,23,-1
 1039 710 l 1,4,-1
321 710 m 1,24,-1
 321 626 l 1,25,-1
 313 626 l 2,26,27
 298 626 298 626 281 625 c 128,-1,28
 264 624 264 624 252 622 c 128,-1,29
 240 620 240 620 240 616 c 2,30,-1
 240 0 l 1,31,-1
 53 0 l 1,32,-1
 53 84 l 1,33,-1
 63 84 l 2,34,35
 87 84 87 84 106.5 91 c 128,-1,36
 126 98 126 98 126 121 c 2,37,-1
 126 590 l 2,38,39
 126 612 126 612 106.5 619 c 128,-1,40
 87 626 87 626 63 626 c 2,41,-1
 53 626 l 1,42,-1
 53 710 l 1,43,-1
 321 710 l 1,24,-1
412 710 m 1,44,-1
 679 710 l 1,45,-1
 679 626 l 1,46,-1
 671 626 l 2,47,48
 656 626 656 626 641 625 c 128,-1,49
 626 624 626 624 614.5 622 c 128,-1,50
 603 620 603 620 603 616 c 2,51,-1
 603 0 l 1,52,-1
 489 0 l 1,53,-1
 489 616 l 2,54,55
 489 620 489 620 477.5 622 c 128,-1,56
 466 624 466 624 450.5 625 c 128,-1,57
 435 626 435 626 420 626 c 2,58,-1
 412 626 l 1,59,-1
 412 710 l 1,44,-1
EndSplineSet
EndChar

StartChar: Shchacyr
Encoding: 1065 1065 295
Width: 1093
GlyphClass: 2
Flags: W
AnchorPoint: "Anchor-0" 536 741 basechar 0
LayerCount: 2
Fore
SplineSet
895 0 m 1,0,-1
 203 0 l 1,1,-1
 203 85 l 1,2,-1
 895 85 l 1,3,-1
 895 0 l 1,0,-1
321 710 m 1,4,-1
 321 626 l 1,5,-1
 313 626 l 2,6,7
 297 626 297 626 280.5 625 c 128,-1,8
 264 624 264 624 252 622 c 128,-1,9
 240 620 240 620 240 616 c 2,10,-1
 240 0 l 1,11,-1
 53 0 l 1,12,-1
 53 84 l 1,13,-1
 63 84 l 2,14,15
 87 84 87 84 106.5 91 c 128,-1,16
 126 98 126 98 126 121 c 2,17,-1
 126 590 l 2,18,19
 126 612 126 612 106.5 619 c 128,-1,20
 87 626 87 626 63 626 c 2,21,-1
 53 626 l 1,22,-1
 53 710 l 1,23,-1
 321 710 l 1,4,-1
770 710 m 1,24,-1
 1039 710 l 1,25,-1
 1039 626 l 1,26,-1
 1029 626 l 2,27,28
 1005 626 1005 626 985.5 619 c 128,-1,29
 966 612 966 612 966 590 c 2,30,-1
 966 0 l 1,31,-1
 851 0 l 1,32,-1
 851 616 l 2,33,34
 851 620 851 620 839.5 622 c 128,-1,35
 828 624 828 624 811 625 c 128,-1,36
 794 626 794 626 778 626 c 2,37,-1
 770 626 l 1,38,-1
 770 710 l 1,24,-1
840 0 m 2,39,-1
 813 0 l 1,40,-1
 813 85 l 1,41,-1
 1051 85 l 1,42,-1
 1051 -184 l 1,43,-1
 969 -184 l 1,44,-1
 957 -54 l 2,45,46
 956 -35 956 -35 944.5 -23 c 128,-1,47
 933 -11 933 -11 908 -5.5 c 128,-1,48
 883 0 883 0 840 0 c 2,39,-1
412 710 m 1,49,-1
 679 710 l 1,50,-1
 679 626 l 1,51,-1
 671 626 l 2,52,53
 656 626 656 626 641 625 c 128,-1,54
 626 624 626 624 614.5 622 c 128,-1,55
 603 620 603 620 603 616 c 2,56,-1
 603 0 l 1,57,-1
 489 0 l 1,58,-1
 489 616 l 2,59,60
 489 620 489 620 477.5 622 c 128,-1,61
 466 624 466 624 450.5 625 c 128,-1,62
 435 626 435 626 420 626 c 2,63,-1
 412 626 l 1,64,-1
 412 710 l 1,49,-1
EndSplineSet
EndChar

StartChar: Hardcyr
Encoding: 1066 1066 296
Width: 773
GlyphClass: 2
Flags: W
AnchorPoint: "Anchor-0" 271 741 basechar 0
LayerCount: 2
Fore
SplineSet
491 0 m 2,0,-1
 178 0 l 1,1,-1
 178 84 l 1,2,-1
 187 84 l 2,3,4
 213 84 213 84 233 91 c 128,-1,5
 253 98 253 98 253 120 c 2,6,-1
 253 627 l 1,7,-1
 228 627 l 2,8,9
 190 627 190 627 172 620.5 c 128,-1,10
 154 614 154 614 148 601 c 128,-1,11
 142 588 142 588 139 568 c 2,12,-1
 128 468 l 1,13,-1
 47 468 l 1,14,-1
 47 710 l 1,15,-1
 465 710 l 1,16,-1
 465 626 l 1,17,-1
 446 626 l 2,18,19
 425 626 425 626 407 625 c 128,-1,20
 389 624 389 624 378.5 622 c 128,-1,21
 368 620 368 620 368 616 c 2,22,-1
 368 83 l 1,23,-1
 483 83 l 2,24,25
 526 83 526 83 553 98 c 128,-1,26
 580 113 580 113 593 142.5 c 128,-1,27
 606 172 606 172 606 217 c 0,28,29
 606 264 606 264 593 294.5 c 128,-1,30
 580 325 580 325 553 340.5 c 128,-1,31
 526 356 526 356 483 356 c 2,32,-1
 303 356 l 1,33,-1
 303 439 l 1,34,-1
 491 439 l 2,35,36
 563 439 563 439 615.5 415 c 128,-1,37
 668 391 668 391 697 342 c 128,-1,38
 726 293 726 293 726 216 c 0,39,40
 726 148 726 148 695.5 99.5 c 128,-1,41
 665 51 665 51 612 25.5 c 128,-1,42
 559 0 559 0 491 0 c 2,0,-1
EndSplineSet
EndChar

StartChar: Ylongcyr
Encoding: 1067 1067 297
Width: 954
GlyphClass: 2
Flags: W
AnchorPoint: "Anchor-1" 467 0 basechar 0
AnchorPoint: "Anchor-0" 467 741 basechar 0
LayerCount: 2
Fore
SplineSet
714 94 m 2,0,-1
 714 617 l 2,1,2
 714 620 714 620 702 622 c 128,-1,3
 690 624 690 624 673.5 625 c 128,-1,4
 657 626 657 626 641 626 c 2,5,-1
 633 626 l 1,6,-1
 633 710 l 1,7,-1
 901 710 l 1,8,-1
 901 626 l 1,9,-1
 891 626 l 2,10,11
 864 626 864 626 846 619 c 128,-1,12
 828 612 828 612 828 589 c 2,13,-1
 828 120 l 2,14,15
 828 98 828 98 846 91 c 128,-1,16
 864 84 864 84 891 84 c 2,17,-1
 901 84 l 1,18,-1
 901 0 l 1,19,-1
 633 0 l 1,20,-1
 633 84 l 1,21,-1
 641 84 l 2,22,23
 657 84 657 84 673.5 85 c 128,-1,24
 690 86 690 86 702 88.5 c 128,-1,25
 714 91 714 91 714 94 c 2,0,-1
366 0 m 2,26,-1
 53 0 l 1,27,-1
 53 84 l 1,28,-1
 62 84 l 2,29,30
 87 84 87 84 106.5 91 c 128,-1,31
 126 98 126 98 126 120 c 2,32,-1
 126 590 l 2,33,34
 126 612 126 612 106.5 619 c 128,-1,35
 87 626 87 626 63 626 c 2,36,-1
 53 626 l 1,37,-1
 53 710 l 1,38,-1
 340 710 l 1,39,-1
 340 626 l 1,40,-1
 321 626 l 2,41,42
 300 626 300 626 282 625 c 128,-1,43
 264 624 264 624 252.5 622 c 128,-1,44
 241 620 241 620 241 616 c 2,45,-1
 241 83 l 1,46,-1
 358 83 l 2,47,48
 401 83 401 83 428.5 98 c 128,-1,49
 456 113 456 113 469 142.5 c 128,-1,50
 482 172 482 172 482 217 c 0,51,52
 482 264 482 264 469 294.5 c 128,-1,53
 456 325 456 325 428.5 340.5 c 128,-1,54
 401 356 401 356 358 356 c 2,55,-1
 202 356 l 1,56,-1
 202 439 l 1,57,-1
 366 439 l 2,58,59
 438 439 438 439 490.5 415 c 128,-1,60
 543 391 543 391 572 342 c 128,-1,61
 601 293 601 293 601 217 c 0,62,63
 601 148 601 148 570.5 99.5 c 128,-1,64
 540 51 540 51 487 25.5 c 128,-1,65
 434 0 434 0 366 0 c 2,26,-1
EndSplineSet
EndChar

StartChar: Softcyr
Encoding: 1068 1068 298
Width: 648
GlyphClass: 2
Flags: W
AnchorPoint: "Anchor-0" 188 741 basechar 0
LayerCount: 2
Fore
SplineSet
366 0 m 2,0,-1
 53 0 l 1,1,-1
 53 84 l 1,2,-1
 62 84 l 2,3,4
 87 84 87 84 106.5 91 c 128,-1,5
 126 98 126 98 126 120 c 2,6,-1
 126 590 l 2,7,8
 126 612 126 612 106.5 619 c 128,-1,9
 87 626 87 626 63 626 c 2,10,-1
 53 626 l 1,11,-1
 53 710 l 1,12,-1
 340 710 l 1,13,-1
 340 626 l 1,14,-1
 321 626 l 2,15,16
 300 626 300 626 282 625 c 128,-1,17
 264 624 264 624 252.5 622 c 128,-1,18
 241 620 241 620 241 616 c 2,19,-1
 241 83 l 1,20,-1
 358 83 l 2,21,22
 401 83 401 83 428.5 98 c 128,-1,23
 456 113 456 113 469 142.5 c 128,-1,24
 482 172 482 172 482 216 c 0,25,26
 482 264 482 264 469 294.5 c 128,-1,27
 456 325 456 325 428.5 340.5 c 128,-1,28
 401 356 401 356 358 356 c 2,29,-1
 202 356 l 1,30,-1
 202 439 l 1,31,-1
 366 439 l 2,32,33
 438 439 438 439 490.5 415 c 128,-1,34
 543 391 543 391 572 342 c 128,-1,35
 601 293 601 293 601 217 c 0,36,37
 601 148 601 148 570.5 99.5 c 128,-1,38
 540 51 540 51 487 25.5 c 128,-1,39
 434 0 434 0 366 0 c 2,0,-1
EndSplineSet
EndChar

StartChar: Ereversedcyr
Encoding: 1069 1069 299
Width: 725
GlyphClass: 2
Flags: W
AnchorPoint: "Anchor-1" 348 0 basechar 0
AnchorPoint: "Anchor-0" 348 741 basechar 0
LayerCount: 2
Fore
SplineSet
579 402 m 1,0,-1
 579 325 l 1,1,2
 539 323 539 323 499.5 321 c 128,-1,3
 460 319 460 319 420 317.5 c 128,-1,4
 380 316 380 316 340.5 314 c 128,-1,5
 301 312 301 312 261 310 c 1,6,-1
 261 418 l 1,7,8
 299 416 299 416 339 414 c 128,-1,9
 379 412 379 412 419 410 c 128,-1,10
 459 408 459 408 499 406 c 128,-1,11
 539 404 539 404 579 402 c 1,0,-1
370 -24 m 0,12,13
 306 -24 306 -24 258.5 1.5 c 128,-1,14
 211 27 211 27 183 77.5 c 128,-1,15
 155 128 155 128 149 204 c 1,16,-1
 173 169 l 1,17,-1
 158 -10 l 1,18,-1
 78 -10 l 1,19,-1
 78 239 l 1,20,-1
 168 239 l 1,21,22
 183 185 183 185 209 144.5 c 128,-1,23
 235 104 235 104 273 82.5 c 128,-1,24
 311 61 311 61 362 61 c 0,25,26
 411 61 411 61 446.5 78 c 128,-1,27
 482 95 482 95 504.5 130.5 c 128,-1,28
 527 166 527 166 538 221.5 c 128,-1,29
 549 277 549 277 549 355 c 0,30,31
 549 434 549 434 535.5 490 c 128,-1,32
 522 546 522 546 497.5 581 c 128,-1,33
 473 616 473 616 439.5 632.5 c 128,-1,34
 406 649 406 649 366 649 c 0,35,36
 312 649 312 649 273 628 c 128,-1,37
 234 607 234 607 208.5 567.5 c 128,-1,38
 183 528 183 528 168 471 c 1,39,-1
 78 471 l 1,40,-1
 78 720 l 1,41,-1
 158 720 l 1,42,-1
 173 541 l 1,43,-1
 149 506 l 1,44,45
 156 582 156 582 184 632.5 c 128,-1,46
 212 683 212 683 259.5 708.5 c 128,-1,47
 307 734 307 734 370 734 c 0,48,49
 435 734 435 734 490 710.5 c 128,-1,50
 545 687 545 687 585.5 640 c 128,-1,51
 626 593 626 593 648.5 522 c 128,-1,52
 671 451 671 451 671 355 c 0,53,54
 671 264 671 264 648 193 c 128,-1,55
 625 122 625 122 585 74 c 128,-1,56
 545 26 545 26 490 1 c 128,-1,57
 435 -24 435 -24 370 -24 c 0,12,13
EndSplineSet
Substitution2: "'ss01' Style Set 1 lookup 61 subtable" Ecyr.alt1
EndChar

StartChar: Yucyr
Encoding: 1070 1070 300
Width: 1040
GlyphClass: 2
Flags: W
AnchorPoint: "Anchor-1" 540 0 basechar 0
AnchorPoint: "Anchor-0" 540 741 basechar 0
LayerCount: 2
Fore
SplineSet
191 408 m 1,0,-1
 415 408 l 1,1,-1
 415 323 l 1,2,-1
 191 323 l 1,3,-1
 191 408 l 1,0,-1
53 0 m 1,4,-1
 53 84 l 1,5,-1
 63 84 l 2,6,7
 87 84 87 84 106.5 91 c 128,-1,8
 126 98 126 98 126 121 c 2,9,-1
 126 590 l 2,10,11
 126 612 126 612 106.5 619 c 128,-1,12
 87 626 87 626 63 626 c 2,13,-1
 53 626 l 1,14,-1
 53 710 l 1,15,-1
 321 710 l 1,16,-1
 321 627 l 1,17,-1
 313 627 l 2,18,19
 302 627 302 627 289 626 c 128,-1,20
 276 625 276 625 265 623.5 c 128,-1,21
 254 622 254 622 247 620.5 c 128,-1,22
 240 619 240 619 240 616 c 2,23,-1
 240 93 l 2,24,25
 240 91 240 91 247 89.5 c 128,-1,26
 254 88 254 88 265 86.5 c 128,-1,27
 276 85 276 85 289 84.5 c 128,-1,28
 302 84 302 84 313 84 c 2,29,-1
 321 84 l 1,30,-1
 321 0 l 1,31,-1
 53 0 l 1,4,-1
673 -24 m 0,32,33
 603 -24 603 -24 545.5 0.5 c 128,-1,34
 488 25 488 25 446.5 73.5 c 128,-1,35
 405 122 405 122 382.5 192.5 c 128,-1,36
 360 263 360 263 360 355 c 0,37,38
 360 448 360 448 382.5 518.5 c 128,-1,39
 405 589 405 589 446.5 637 c 128,-1,40
 488 685 488 685 545.5 709.5 c 128,-1,41
 603 734 603 734 673 734 c 0,42,43
 744 734 744 734 801.5 709.5 c 128,-1,44
 859 685 859 685 900.5 637 c 128,-1,45
 942 589 942 589 964 518.5 c 128,-1,46
 986 448 986 448 986 355 c 0,47,48
 986 263 986 263 964 192.5 c 128,-1,49
 942 122 942 122 900.5 73.5 c 128,-1,50
 859 25 859 25 801.5 0.5 c 128,-1,51
 744 -24 744 -24 673 -24 c 0,32,33
673 62 m 0,52,53
 721 62 721 62 757 79 c 128,-1,54
 793 96 793 96 816.5 131.5 c 128,-1,55
 840 167 840 167 852 222.5 c 128,-1,56
 864 278 864 278 864 355 c 256,57,58
 864 432 864 432 852 487.5 c 128,-1,59
 840 543 840 543 816.5 578.5 c 128,-1,60
 793 614 793 614 757 631 c 128,-1,61
 721 648 721 648 673 648 c 256,62,63
 625 648 625 648 589 631 c 128,-1,64
 553 614 553 614 529.5 578.5 c 128,-1,65
 506 543 506 543 494 487.5 c 128,-1,66
 482 432 482 432 482 355 c 256,67,68
 482 278 482 278 494 222.5 c 128,-1,69
 506 167 506 167 530 131.5 c 128,-1,70
 554 96 554 96 590 79 c 128,-1,71
 626 62 626 62 673 62 c 0,52,53
EndSplineSet
EndChar

StartChar: Yacyr
Encoding: 1071 1071 301
Width: 708
GlyphClass: 2
Flags: W
AnchorPoint: "Anchor-1" 354 0 basechar 0
AnchorPoint: "Anchor-0" 390 741 basechar 0
LayerCount: 2
Fore
SplineSet
347 322 m 1,0,-1
 183 0 l 1,1,-1
 30 0 l 1,2,-1
 30 84 l 1,3,-1
 38 84 l 2,4,5
 60 84 60 84 76.5 89 c 128,-1,6
 93 94 93 94 107.5 107.5 c 128,-1,7
 122 121 122 121 136 146 c 2,8,-1
 255 371 l 1,9,-1
 347 322 l 1,0,-1
468 94 m 2,10,-1
 468 627 l 1,11,-1
 348 627 l 2,12,13
 306 627 306 627 277.5 612.5 c 128,-1,14
 249 598 249 598 235 570.5 c 128,-1,15
 221 543 221 543 221 503 c 0,16,17
 221 462 221 462 234.5 432 c 128,-1,18
 248 402 248 402 276.5 386 c 128,-1,19
 305 370 305 370 352 370 c 2,20,-1
 481 370 l 1,21,-1
 481 287 l 1,22,-1
 311 287 l 1,23,-1
 286 298 l 1,24,25
 232 306 232 306 191.5 331 c 128,-1,26
 151 356 151 356 128 399 c 128,-1,27
 105 442 105 442 105 504 c 0,28,29
 105 570 105 570 133 616 c 128,-1,30
 161 662 161 662 213.5 686 c 128,-1,31
 266 710 266 710 339 710 c 2,32,-1
 656 710 l 1,33,-1
 656 626 l 1,34,-1
 646 626 l 2,35,36
 621 626 621 626 602 619 c 128,-1,37
 583 612 583 612 583 589 c 2,38,-1
 583 120 l 2,39,40
 583 98 583 98 602 91 c 128,-1,41
 621 84 621 84 646 84 c 2,42,-1
 656 84 l 1,43,-1
 656 0 l 1,44,-1
 370 0 l 1,45,-1
 370 84 l 1,46,-1
 388 84 l 2,47,48
 403 84 403 84 417.5 84.5 c 128,-1,49
 432 85 432 85 443 86.5 c 128,-1,50
 454 88 454 88 461 89.5 c 128,-1,51
 468 91 468 91 468 94 c 2,10,-1
EndSplineSet
EndChar

StartChar: Geupcyr
Encoding: 1168 1168 302
Width: 609
GlyphClass: 2
Flags: W
AnchorPoint: "Anchor-0" 287 741 basechar 0
LayerCount: 2
Fore
SplineSet
240 627 m 1,0,-1
 240 120 l 2,1,2
 240 106 240 106 250.5 98 c 128,-1,3
 261 90 261 90 278.5 87 c 128,-1,4
 296 84 296 84 318 84 c 2,5,-1
 340 84 l 1,6,-1
 340 0 l 1,7,-1
 53 0 l 1,8,-1
 53 84 l 1,9,-1
 63 84 l 2,10,11
 87 84 87 84 106.5 91 c 128,-1,12
 126 98 126 98 126 121 c 2,13,-1
 126 590 l 2,14,15
 126 612 126 612 106.5 619 c 128,-1,16
 87 626 87 626 63 626 c 2,17,-1
 53 626 l 1,18,-1
 53 710 l 1,19,-1
 354 710 l 2,20,21
 396 710 396 710 422 715 c 128,-1,22
 448 720 448 720 459.5 732.5 c 128,-1,23
 471 745 471 745 473 765 c 2,24,-1
 485 894 l 1,25,-1
 567 894 l 1,26,-1
 567 627 l 1,27,-1
 240 627 l 1,0,-1
EndSplineSet
EndChar

StartChar: Gestrokecyr
Encoding: 1170 1170 303
Width: 614
GlyphClass: 2
Flags: W
AnchorPoint: "Anchor-0" 313 741 basechar 0
LayerCount: 2
Fore
SplineSet
49 402 m 1,0,-1
 403 402 l 1,1,-1
 403 319 l 1,2,-1
 49 319 l 1,3,-1
 49 402 l 1,0,-1
240 627 m 1,4,-1
 240 120 l 2,5,6
 240 106 240 106 250.5 98 c 128,-1,7
 261 90 261 90 278.5 87 c 128,-1,8
 296 84 296 84 318 84 c 2,9,-1
 340 84 l 1,10,-1
 340 0 l 1,11,-1
 53 0 l 1,12,-1
 53 84 l 1,13,-1
 63 84 l 2,14,15
 87 84 87 84 106.5 91 c 128,-1,16
 126 98 126 98 126 121 c 2,17,-1
 126 590 l 2,18,19
 126 612 126 612 106.5 619 c 128,-1,20
 87 626 87 626 63 626 c 2,21,-1
 53 626 l 1,22,-1
 53 710 l 1,23,-1
 567 710 l 1,24,-1
 567 477 l 1,25,-1
 485 477 l 1,26,-1
 475 570 l 2,27,28
 472 593 472 593 462 605.5 c 128,-1,29
 452 618 452 618 430 622.5 c 128,-1,30
 408 627 408 627 370 627 c 2,31,-1
 240 627 l 1,4,-1
EndSplineSet
EndChar

StartChar: Zhetailcyr
Encoding: 1174 1174 304
Width: 1059
GlyphClass: 2
Flags: W
AnchorPoint: "Anchor-0" 519 741 basechar 0
LayerCount: 2
Fore
SplineSet
753 0 m 1,0,-1
 753 84 l 1,1,-1
 761 84 l 2,2,3
 778 84 778 84 794 85 c 128,-1,4
 810 86 810 86 820 88.5 c 128,-1,5
 830 91 830 91 830 94 c 2,6,-1
 624 346 l 1,7,-1
 624 372 l 1,8,-1
 843 615 l 2,9,10
 843 619 843 619 833 621 c 128,-1,11
 823 623 823 623 808 624.5 c 128,-1,12
 793 626 793 626 777 626 c 2,13,-1
 768 626 l 1,14,-1
 768 710 l 1,15,-1
 1010 710 l 1,16,-1
 1010 626 l 1,17,-1
 987 626 l 2,18,19
 977 626 977 626 968 623.5 c 128,-1,20
 959 621 959 621 949.5 615 c 128,-1,21
 940 609 940 609 930 597 c 2,22,-1
 711 355 l 1,23,-1
 715 405 l 1,24,-1
 976 85 l 1,25,-1
 976 0 l 1,26,-1
 753 0 l 1,0,-1
301 0 m 1,27,-1
 24 0 l 1,28,-1
 24 84 l 1,29,-1
 42 84 l 2,30,31
 53 84 53 84 63.5 85 c 128,-1,32
 74 86 74 86 83 91 c 128,-1,33
 92 96 92 96 100 106 c 2,34,-1
 344 405 l 1,35,-1
 341 355 l 1,36,-1
 122 597 l 2,37,38
 112 609 112 609 102.5 615 c 128,-1,39
 93 621 93 621 84.5 623.5 c 128,-1,40
 76 626 76 626 65 626 c 2,41,-1
 42 626 l 1,42,-1
 42 710 l 1,43,-1
 286 710 l 1,44,-1
 286 626 l 1,45,-1
 277 626 l 2,46,47
 262 626 262 626 246.5 624.5 c 128,-1,48
 231 623 231 623 221 621 c 128,-1,49
 211 619 211 619 211 615 c 2,50,-1
 430 372 l 1,51,-1
 430 346 l 1,52,-1
 224 94 l 2,53,54
 224 91 224 91 234.5 88.5 c 128,-1,55
 245 86 245 86 261 85 c 128,-1,56
 277 84 277 84 293 84 c 2,57,-1
 301 84 l 1,58,-1
 301 0 l 1,27,-1
835 0 m 2,59,-1
 823 0 l 1,60,-1
 841 85 l 1,61,-1
 1046 85 l 1,62,-1
 1046 -184 l 1,63,-1
 964 -184 l 1,64,-1
 952 -54 l 2,65,66
 951 -35 951 -35 939.5 -23 c 128,-1,67
 928 -11 928 -11 902.5 -5.5 c 128,-1,68
 877 0 877 0 835 0 c 2,59,-1
396 0 m 1,69,-1
 396 84 l 1,70,-1
 404 84 l 2,71,72
 415 84 415 84 426 84.5 c 128,-1,73
 437 85 437 85 447 86.5 c 128,-1,74
 457 88 457 88 463.5 89.5 c 128,-1,75
 470 91 470 91 470 94 c 2,76,-1
 470 617 l 2,77,78
 470 619 470 619 464 620.5 c 128,-1,79
 458 622 458 622 447.5 623.5 c 128,-1,80
 437 625 437 625 425 625.5 c 128,-1,81
 413 626 413 626 402 626 c 2,82,-1
 394 626 l 1,83,-1
 394 710 l 1,84,-1
 661 710 l 1,85,-1
 661 626 l 1,86,-1
 653 626 l 2,87,88
 642 626 642 626 629.5 625.5 c 128,-1,89
 617 625 617 625 607 623.5 c 128,-1,90
 597 622 597 622 590.5 620.5 c 128,-1,91
 584 619 584 619 584 616 c 2,92,-1
 584 93 l 2,93,94
 584 91 584 91 590 89.5 c 128,-1,95
 596 88 596 88 606.5 86.5 c 128,-1,96
 617 85 617 85 628.5 84.5 c 128,-1,97
 640 84 640 84 651 84 c 2,98,-1
 659 84 l 1,99,-1
 659 0 l 1,100,-1
 396 0 l 1,69,-1
EndSplineSet
EndChar

StartChar: Katailcyr
Encoding: 1178 1178 306
Width: 734
GlyphClass: 2
Flags: W
AnchorPoint: "Anchor-0" 374 741 basechar 0
LayerCount: 2
Fore
SplineSet
53 0 m 1,0,-1
 53 84 l 1,1,-1
 63 84 l 2,2,3
 87 84 87 84 106.5 91 c 128,-1,4
 126 98 126 98 126 121 c 2,5,-1
 126 590 l 2,6,7
 126 612 126 612 106.5 619 c 128,-1,8
 87 626 87 626 63 626 c 2,9,-1
 53 626 l 1,10,-1
 53 710 l 1,11,-1
 319 710 l 1,12,-1
 319 626 l 1,13,-1
 311 626 l 2,14,15
 300 626 300 626 287 625.5 c 128,-1,16
 274 625 274 625 263.5 623.5 c 128,-1,17
 253 622 253 622 246.5 620.5 c 128,-1,18
 240 619 240 619 240 616 c 2,19,-1
 240 94 l 2,20,21
 240 91 240 91 246.5 89.5 c 128,-1,22
 253 88 253 88 263.5 86.5 c 128,-1,23
 274 85 274 85 286 84.5 c 128,-1,24
 298 84 298 84 308 84 c 2,25,-1
 316 84 l 1,26,-1
 316 0 l 1,27,-1
 53 0 l 1,0,-1
425 0 m 1,28,-1
 425 84 l 1,29,-1
 433 84 l 2,30,31
 451 84 451 84 466.5 85 c 128,-1,32
 482 86 482 86 492 88.5 c 128,-1,33
 502 91 502 91 502 94 c 2,34,-1
 282 346 l 1,35,-1
 282 372 l 1,36,-1
 515 615 l 2,37,38
 515 619 515 619 505.5 621 c 128,-1,39
 496 623 496 623 480.5 624.5 c 128,-1,40
 465 626 465 626 449 626 c 2,41,-1
 440 626 l 1,42,-1
 440 710 l 1,43,-1
 684 710 l 1,44,-1
 684 626 l 1,45,-1
 662 626 l 2,46,47
 652 626 652 626 643.5 623.5 c 128,-1,48
 635 621 635 621 625.5 615 c 128,-1,49
 616 609 616 609 605 597 c 2,50,-1
 371 355 l 1,51,-1
 373 405 l 1,52,-1
 652 85 l 1,53,-1
 652 0 l 1,54,-1
 425 0 l 1,28,-1
510 0 m 2,55,-1
 498 0 l 1,56,-1
 516 85 l 1,57,-1
 720 85 l 1,58,-1
 720 -184 l 1,59,-1
 638 -184 l 1,60,-1
 627 -54 l 2,61,62
 625 -35 625 -35 613.5 -23 c 128,-1,63
 602 -11 602 -11 577 -5.5 c 128,-1,64
 552 0 552 0 510 0 c 2,55,-1
EndSplineSet
EndChar

StartChar: Kaverticalstrokecyr
Encoding: 1180 1180 307
Width: 825
GlyphClass: 2
Flags: W
AnchorPoint: "Anchor-0" 429 741 basechar 0
LayerCount: 2
Fore
SplineSet
309 171 m 1,0,-1
 309 544 l 1,1,-1
 394 544 l 1,2,-1
 394 171 l 1,3,-1
 309 171 l 1,0,-1
53 0 m 1,4,-1
 53 84 l 1,5,-1
 63 84 l 2,6,7
 87 84 87 84 106.5 91 c 128,-1,8
 126 98 126 98 126 121 c 2,9,-1
 126 590 l 2,10,11
 126 612 126 612 106.5 619 c 128,-1,12
 87 626 87 626 63 626 c 2,13,-1
 53 626 l 1,14,-1
 53 710 l 1,15,-1
 319 710 l 1,16,-1
 319 626 l 1,17,-1
 311 626 l 2,18,19
 300 626 300 626 287 625.5 c 128,-1,20
 274 625 274 625 263.5 623.5 c 128,-1,21
 253 622 253 622 246.5 620.5 c 128,-1,22
 240 619 240 619 240 616 c 2,23,-1
 240 94 l 2,24,25
 240 91 240 91 246.5 89.5 c 128,-1,26
 253 88 253 88 263.5 86.5 c 128,-1,27
 274 85 274 85 286 84.5 c 128,-1,28
 298 84 298 84 308 84 c 2,29,-1
 316 84 l 1,30,-1
 316 0 l 1,31,-1
 53 0 l 1,4,-1
524 0 m 1,32,-1
 524 84 l 1,33,-1
 532 84 l 2,34,35
 551 84 551 84 567 85 c 128,-1,36
 583 86 583 86 592.5 88.5 c 128,-1,37
 602 91 602 91 602 94 c 2,38,-1
 425 346 l 1,39,-1
 425 372 l 1,40,-1
 618 615 l 2,41,42
 619 619 619 619 609 621 c 128,-1,43
 599 623 599 623 582.5 624.5 c 128,-1,44
 566 626 566 626 549 626 c 2,45,-1
 540 626 l 1,46,-1
 540 710 l 1,47,-1
 780 710 l 1,48,-1
 780 626 l 1,49,-1
 756 626 l 2,50,51
 743 626 743 626 729.5 620.5 c 128,-1,52
 716 615 716 615 703 597 c 2,53,-1
 509 355 l 1,54,-1
 516 405 l 1,55,-1
 724 107 l 2,56,57
 731 96 731 96 741 91.5 c 128,-1,58
 751 87 751 87 762.5 85.5 c 128,-1,59
 774 84 774 84 784 84 c 2,60,-1
 801 84 l 1,61,-1
 801 0 l 1,62,-1
 524 0 l 1,32,-1
EndSplineSet
EndChar

StartChar: Kabashkcyr
Encoding: 1184 1184 308
Width: 872
GlyphClass: 2
Flags: W
AnchorPoint: "Anchor-0" 515 741 basechar 0
LayerCount: 2
Fore
SplineSet
564 0 m 1,0,-1
 564 84 l 1,1,-1
 572 84 l 2,2,3
 590 84 590 84 605.5 85 c 128,-1,4
 621 86 621 86 631 88.5 c 128,-1,5
 641 91 641 91 641 94 c 2,6,-1
 421 346 l 1,7,-1
 421 372 l 1,8,-1
 654 615 l 2,9,10
 654 619 654 619 644.5 621 c 128,-1,11
 635 623 635 623 619.5 624.5 c 128,-1,12
 604 626 604 626 588 626 c 2,13,-1
 579 626 l 1,14,-1
 579 710 l 1,15,-1
 823 710 l 1,16,-1
 823 626 l 1,17,-1
 801 626 l 2,18,19
 791 626 791 626 782 623.5 c 128,-1,20
 773 621 773 621 764 615 c 128,-1,21
 755 609 755 609 744 597 c 2,22,-1
 510 355 l 1,23,-1
 512 405 l 1,24,-1
 772 107 l 2,25,26
 781 97 781 97 790 92 c 128,-1,27
 799 87 799 87 809 85.5 c 128,-1,28
 819 84 819 84 829 84 c 2,29,-1
 848 84 l 1,30,-1
 848 0 l 1,31,-1
 564 0 l 1,0,-1
192 0 m 1,32,-1
 192 84 l 1,33,-1
 202 84 l 2,34,35
 226 84 226 84 245.5 91 c 128,-1,36
 265 98 265 98 265 121 c 2,37,-1
 265 627 l 1,38,-1
 228 627 l 2,39,40
 190 627 190 627 172 620.5 c 128,-1,41
 154 614 154 614 148 601 c 128,-1,42
 142 588 142 588 139 568 c 2,43,-1
 128 468 l 1,44,-1
 47 468 l 1,45,-1
 47 710 l 1,46,-1
 458 710 l 1,47,-1
 458 626 l 1,48,-1
 450 626 l 2,49,50
 435 626 435 626 418.5 625 c 128,-1,51
 402 624 402 624 390.5 622 c 128,-1,52
 379 620 379 620 379 616 c 2,53,-1
 379 94 l 2,54,55
 379 91 379 91 390.5 88.5 c 128,-1,56
 402 86 402 86 418 85 c 128,-1,57
 434 84 434 84 447 84 c 2,58,-1
 455 84 l 1,59,-1
 455 0 l 1,60,-1
 192 0 l 1,32,-1
EndSplineSet
EndChar

StartChar: Entailcyr
Encoding: 1186 1186 309
Width: 797
GlyphClass: 2
Flags: W
AnchorPoint: "Anchor-0" 399 741 basechar 0
LayerCount: 2
Fore
SplineSet
206 408 m 1,0,-1
 584 408 l 1,1,-1
 584 323 l 1,2,-1
 206 323 l 1,3,-1
 206 408 l 1,0,-1
53 0 m 1,4,-1
 53 84 l 1,5,-1
 63 84 l 2,6,7
 87 84 87 84 106.5 91 c 128,-1,8
 126 98 126 98 126 121 c 2,9,-1
 126 590 l 2,10,11
 126 612 126 612 106.5 619 c 128,-1,12
 87 626 87 626 63 626 c 2,13,-1
 53 626 l 1,14,-1
 53 710 l 1,15,-1
 321 710 l 1,16,-1
 321 627 l 1,17,-1
 313 627 l 2,18,19
 302 627 302 627 289 626 c 128,-1,20
 276 625 276 625 265 623.5 c 128,-1,21
 254 622 254 622 247 620.5 c 128,-1,22
 240 619 240 619 240 616 c 2,23,-1
 240 93 l 2,24,25
 240 91 240 91 247 89.5 c 128,-1,26
 254 88 254 88 265 86.5 c 128,-1,27
 276 85 276 85 289 84.5 c 128,-1,28
 302 84 302 84 313 84 c 2,29,-1
 321 84 l 1,30,-1
 321 0 l 1,31,-1
 53 0 l 1,4,-1
475 0 m 1,32,-1
 475 83 l 1,33,-1
 482 83 l 2,34,35
 494 83 494 83 507 84 c 128,-1,36
 520 85 520 85 531 86.5 c 128,-1,37
 542 88 542 88 549 89.5 c 128,-1,38
 556 91 556 91 556 94 c 2,39,-1
 556 617 l 2,40,41
 556 619 556 619 549 620.5 c 128,-1,42
 542 622 542 622 531 623.5 c 128,-1,43
 520 625 520 625 507 625.5 c 128,-1,44
 494 626 494 626 483 626 c 2,45,-1
 475 626 l 1,46,-1
 475 710 l 1,47,-1
 743 710 l 1,48,-1
 743 626 l 1,49,-1
 733 626 l 2,50,51
 709 626 709 626 689.5 619 c 128,-1,52
 670 612 670 612 670 590 c 2,53,-1
 670 0 l 1,54,-1
 475 0 l 1,32,-1
545 0 m 2,55,-1
 536 0 l 1,56,-1
 555 85 l 1,57,-1
 755 85 l 1,58,-1
 755 -184 l 1,59,-1
 673 -184 l 1,60,-1
 662 -54 l 2,61,62
 660 -35 660 -35 648.5 -23 c 128,-1,63
 637 -11 637 -11 612 -5.5 c 128,-1,64
 587 0 587 0 545 0 c 2,55,-1
EndSplineSet
EndChar

StartChar: Tetailcyr
Encoding: 1196 1196 311
Width: 680
GlyphClass: 2
Flags: W
AnchorPoint: "Anchor-0" 333 741 basechar 0
LayerCount: 2
Fore
SplineSet
283 120 m 2,0,-1
 283 627 l 1,1,-1
 228 627 l 2,2,3
 190 627 190 627 172 620.5 c 128,-1,4
 154 614 154 614 148 601 c 128,-1,5
 142 588 142 588 139 568 c 2,6,-1
 128 468 l 1,7,-1
 47 468 l 1,8,-1
 47 710 l 1,9,-1
 633 710 l 1,10,-1
 633 468 l 1,11,-1
 552 468 l 1,12,-1
 541 568 l 2,13,14
 539 588 539 588 532.5 601 c 128,-1,15
 526 614 526 614 508 620.5 c 128,-1,16
 490 627 490 627 452 627 c 2,17,-1
 397 627 l 1,18,-1
 397 0 l 1,19,-1
 193 0 l 1,20,-1
 193 84 l 1,21,-1
 211 84 l 2,22,23
 239 84 239 84 261 91 c 128,-1,24
 283 98 283 98 283 120 c 2,0,-1
287 0 m 2,25,-1
 274 0 l 1,26,-1
 287 85 l 1,27,-1
 497 85 l 1,28,-1
 497 -184 l 1,29,-1
 415 -184 l 1,30,-1
 404 -54 l 2,31,32
 402 -35 402 -35 390.5 -23 c 128,-1,33
 379 -11 379 -11 354 -5.5 c 128,-1,34
 329 0 329 0 287 0 c 2,25,-1
EndSplineSet
EndChar

StartChar: Ustraightstrokecyr
Encoding: 1200 1200 313
Width: 660
GlyphClass: 2
Flags: W
AnchorPoint: "Anchor-1" 330 0 basechar 0
AnchorPoint: "Anchor-0" 330 741 basechar 0
LayerCount: 2
Fore
SplineSet
147 278 m 1,0,-1
 517 278 l 1,1,-1
 517 193 l 1,2,-1
 147 193 l 1,3,-1
 147 278 l 1,0,-1
275 303 m 1,4,-1
 281 266 l 1,5,-1
 95 583 l 2,6,7
 86 600 86 600 77 609.5 c 128,-1,8
 68 619 68 619 58 622.5 c 128,-1,9
 48 626 48 626 36 626 c 2,10,-1
 25 626 l 1,11,-1
 25 710 l 1,12,-1
 271 710 l 1,13,-1
 271 626 l 1,14,-1
 256 626 l 2,15,16
 241 626 241 626 228 624.5 c 128,-1,17
 215 623 215 623 206.5 621 c 128,-1,18
 198 619 198 619 198 615 c 2,19,-1
 372 309 l 1,20,-1
 319 309 l 1,21,-1
 481 603 l 2,22,23
 481 611 481 611 472.5 615.5 c 128,-1,24
 464 620 464 620 453.5 623 c 128,-1,25
 443 626 443 626 434 626 c 2,26,-1
 423 626 l 1,27,-1
 423 710 l 1,28,-1
 633 710 l 1,29,-1
 633 626 l 1,30,-1
 622 626 l 2,31,32
 612 626 612 626 602 621.5 c 128,-1,33
 592 617 592 617 581.5 605.5 c 128,-1,34
 571 594 571 594 560 574 c 2,35,-1
 382 266 l 1,36,-1
 389 303 l 1,37,-1
 389 120 l 2,38,39
 389 98 389 98 410 91 c 128,-1,40
 431 84 431 84 460 84 c 2,41,-1
 479 84 l 1,42,-1
 479 0 l 1,43,-1
 186 0 l 1,44,-1
 186 84 l 1,45,-1
 205 84 l 2,46,47
 234 84 234 84 254.5 91 c 128,-1,48
 275 98 275 98 275 120 c 2,49,-1
 275 303 l 1,4,-1
EndSplineSet
EndChar

StartChar: Xatailcyr
Encoding: 1202 1202 314
Width: 705
GlyphClass: 2
Flags: W
AnchorPoint: "Anchor-0" 360 741 basechar 0
LayerCount: 2
Fore
SplineSet
37 626 m 1,0,-1
 37 710 l 1,1,-1
 307 710 l 1,2,-1
 307 626 l 1,3,-1
 292 626 l 2,4,5
 276 626 276 626 262 625 c 128,-1,6
 248 624 248 624 239.5 622 c 128,-1,7
 231 620 231 620 231 616 c 2,8,-1
 390 392 l 1,9,-1
 404 388 l 1,10,-1
 617 85 l 1,11,-1
 617 0 l 1,12,-1
 402 0 l 1,13,-1
 402 84 l 1,14,-1
 417 84 l 2,15,16
 433 84 433 84 447 85 c 128,-1,17
 461 86 461 86 469.5 88.5 c 128,-1,18
 478 91 478 91 478 94 c 2,19,-1
 306 339 l 1,20,-1
 292 343 l 1,21,-1
 115 592 l 2,22,23
 100 615 100 615 83.5 620.5 c 128,-1,24
 67 626 67 626 49 626 c 2,25,-1
 37 626 l 1,0,-1
26 0 m 1,26,-1
 26 84 l 1,27,-1
 44 84 l 2,28,29
 59 84 59 84 73.5 93.5 c 128,-1,30
 88 103 88 103 106 130 c 2,31,-1
 281 381 l 1,32,-1
 353 339 l 1,33,-1
 189 101 l 2,34,35
 189 97 189 97 198.5 93 c 128,-1,36
 208 89 208 89 220.5 86.5 c 128,-1,37
 233 84 233 84 244 84 c 2,38,-1
 261 84 l 1,39,-1
 261 0 l 1,40,-1
 26 0 l 1,26,-1
415 350 m 1,41,-1
 346 395 l 1,42,-1
 501 609 l 2,43,44
 501 614 501 614 491 618 c 128,-1,45
 481 622 481 622 468 624 c 128,-1,46
 455 626 455 626 442 626 c 2,47,-1
 430 626 l 1,48,-1
 430 710 l 1,49,-1
 661 710 l 1,50,-1
 661 626 l 1,51,-1
 648 626 l 2,52,53
 633 626 633 626 618 617 c 128,-1,54
 603 608 603 608 583 581 c 2,55,-1
 415 350 l 1,41,-1
481 0 m 2,56,-1
 474 0 l 1,57,-1
 492 85 l 1,58,-1
 691 85 l 1,59,-1
 691 -184 l 1,60,-1
 610 -184 l 1,61,-1
 598 -54 l 2,62,63
 596 -35 596 -35 584.5 -23 c 128,-1,64
 573 -11 573 -11 548.5 -5.5 c 128,-1,65
 524 0 524 0 481 0 c 2,56,-1
EndSplineSet
EndChar

StartChar: Chetailcyr
Encoding: 1206 1206 315
Width: 755
GlyphClass: 2
Flags: W
AnchorPoint: "Anchor-0" 370 741 basechar 0
LayerCount: 2
Fore
SplineSet
344 268 m 0,0,1
 260 268 260 268 207.5 288 c 128,-1,2
 155 308 155 308 131 354 c 128,-1,3
 107 400 107 400 107 478 c 2,4,-1
 107 590 l 2,5,6
 107 612 107 612 87.5 619 c 128,-1,7
 68 626 68 626 44 626 c 2,8,-1
 34 626 l 1,9,-1
 34 710 l 1,10,-1
 302 710 l 1,11,-1
 302 626 l 1,12,-1
 294 626 l 2,13,14
 278 626 278 626 261 625 c 128,-1,15
 244 624 244 624 232.5 622 c 128,-1,16
 221 620 221 620 221 616 c 2,17,-1
 221 483 l 2,18,19
 221 437 221 437 234.5 408 c 128,-1,20
 248 379 248 379 277.5 366 c 128,-1,21
 307 353 307 353 356 353 c 0,22,23
 403 353 403 353 452.5 362.5 c 128,-1,24
 502 372 502 372 545 397 c 1,25,-1
 545 312 l 1,26,27
 500 290 500 290 448 279 c 128,-1,28
 396 268 396 268 344 268 c 0,0,1
432 0 m 1,29,-1
 432 84 l 1,30,-1
 440 84 l 2,31,32
 456 84 456 84 472.5 85 c 128,-1,33
 489 86 489 86 501 88.5 c 128,-1,34
 513 91 513 91 513 94 c 2,35,-1
 513 616 l 2,36,37
 513 620 513 620 501 622 c 128,-1,38
 489 624 489 624 472.5 625 c 128,-1,39
 456 626 456 626 440 626 c 2,40,-1
 432 626 l 1,41,-1
 432 710 l 1,42,-1
 700 710 l 1,43,-1
 700 626 l 1,44,-1
 690 626 l 2,45,46
 666 626 666 626 646.5 619 c 128,-1,47
 627 612 627 612 627 590 c 2,48,-1
 627 0 l 1,49,-1
 432 0 l 1,29,-1
502 0 m 2,50,-1
 494 0 l 1,51,-1
 512 85 l 1,52,-1
 712 85 l 1,53,-1
 712 -184 l 1,54,-1
 631 -184 l 1,55,-1
 619 -54 l 2,56,57
 617 -35 617 -35 605.5 -23 c 128,-1,58
 594 -11 594 -11 569 -5.5 c 128,-1,59
 544 0 544 0 502 0 c 2,50,-1
EndSplineSet
EndChar

StartChar: Chevertcyr
Encoding: 1208 1208 316
Width: 777
GlyphClass: 2
Flags: W
AnchorPoint: "Anchor-0" 380 741 basechar 0
LayerCount: 2
Fore
SplineSet
456 0 m 1,0,-1
 456 84 l 1,1,-1
 464 84 l 2,2,3
 480 84 480 84 496.5 85 c 128,-1,4
 513 86 513 86 525 88.5 c 128,-1,5
 537 91 537 91 537 94 c 2,6,-1
 537 616 l 2,7,8
 537 620 537 620 525 622 c 128,-1,9
 513 624 513 624 496.5 625 c 128,-1,10
 480 626 480 626 464 626 c 2,11,-1
 456 626 l 1,12,-1
 456 710 l 1,13,-1
 724 710 l 1,14,-1
 724 626 l 1,15,-1
 714 626 l 2,16,17
 690 626 690 626 670.5 619 c 128,-1,18
 651 612 651 612 651 589 c 2,19,-1
 651 120 l 2,20,21
 651 98 651 98 670.5 91 c 128,-1,22
 690 84 690 84 714 84 c 2,23,-1
 724 84 l 1,24,-1
 724 0 l 1,25,-1
 456 0 l 1,0,-1
356 268 m 0,26,27
 267 268 267 268 212 288 c 128,-1,28
 157 308 157 308 132 354 c 128,-1,29
 107 400 107 400 107 478 c 2,30,-1
 107 590 l 2,31,32
 107 612 107 612 87.5 619 c 128,-1,33
 68 626 68 626 44 626 c 2,34,-1
 34 626 l 1,35,-1
 34 710 l 1,36,-1
 302 710 l 1,37,-1
 302 626 l 1,38,-1
 294 626 l 2,39,40
 278 626 278 626 261 625 c 128,-1,41
 244 624 244 624 232.5 622 c 128,-1,42
 221 620 221 620 221 616 c 2,43,-1
 221 483 l 2,44,45
 221 437 221 437 235.5 408 c 128,-1,46
 250 379 250 379 282 366 c 128,-1,47
 314 353 314 353 367 353 c 0,48,49
 417 353 417 353 470.5 362 c 128,-1,50
 524 371 524 371 569 397 c 1,51,-1
 569 312 l 1,52,53
 522 289 522 289 466 278.5 c 128,-1,54
 410 268 410 268 356 268 c 0,26,27
339 158 m 1,55,-1
 339 531 l 1,56,-1
 424 531 l 1,57,-1
 424 158 l 1,58,-1
 339 158 l 1,55,-1
EndSplineSet
EndChar

StartChar: Shhacyr
Encoding: 1210 1210 317
Width: 753
GlyphClass: 1
Flags: W
LayerCount: 2
Fore
SplineSet
321 710 m 1,0,-1
 321 626 l 1,1,-1
 313 626 l 2,2,3
 297 626 297 626 280.5 625 c 128,-1,4
 264 624 264 624 252 622 c 128,-1,5
 240 620 240 620 240 616 c 2,6,-1
 240 93 l 2,7,8
 240 91 240 91 252 88.5 c 128,-1,9
 264 86 264 86 280.5 85 c 128,-1,10
 297 84 297 84 313 84 c 2,11,-1
 321 84 l 1,12,-1
 321 0 l 1,13,-1
 53 0 l 1,14,-1
 53 84 l 1,15,-1
 63 84 l 2,16,17
 87 84 87 84 106.5 91 c 128,-1,18
 126 98 126 98 126 121 c 2,19,-1
 126 590 l 2,20,21
 126 612 126 612 106.5 619 c 128,-1,22
 87 626 87 626 63 626 c 2,23,-1
 53 626 l 1,24,-1
 53 710 l 1,25,-1
 321 710 l 1,0,-1
409 442 m 0,26,27
 492 442 492 442 545 422 c 128,-1,28
 598 402 598 402 622 356 c 128,-1,29
 646 310 646 310 646 232 c 2,30,-1
 646 120 l 2,31,32
 646 98 646 98 665.5 91 c 128,-1,33
 685 84 685 84 710 84 c 2,34,-1
 720 84 l 1,35,-1
 720 0 l 1,36,-1
 451 0 l 1,37,-1
 451 84 l 1,38,-1
 459 84 l 2,39,40
 475 84 475 84 492 85 c 128,-1,41
 509 86 509 86 520.5 88.5 c 128,-1,42
 532 91 532 91 532 94 c 2,43,-1
 532 227 l 2,44,45
 532 274 532 274 519 302.5 c 128,-1,46
 506 331 506 331 476 344 c 128,-1,47
 446 357 446 357 397 357 c 0,48,49
 351 357 351 357 300.5 347.5 c 128,-1,50
 250 338 250 338 208 314 c 1,51,-1
 208 399 l 1,52,53
 253 421 253 421 305 431.5 c 128,-1,54
 357 442 357 442 409 442 c 0,26,27
EndSplineSet
EndChar

StartChar: Obarcyr
Encoding: 1256 1256 320
Width: 751
GlyphClass: 2
Flags: W
AnchorPoint: "Anchor-1" 368 0 basechar 0
AnchorPoint: "Anchor-0" 368 741 basechar 0
LayerCount: 2
Fore
SplineSet
112 408 m 1,0,-1
 638 408 l 1,1,-1
 638 323 l 1,2,-1
 112 323 l 1,3,-1
 112 408 l 1,0,-1
376 -24 m 256,4,5
 303 -24 303 -24 244 0.5 c 128,-1,6
 185 25 185 25 142.5 73.5 c 128,-1,7
 100 122 100 122 77 192.5 c 128,-1,8
 54 263 54 263 54 355 c 0,9,10
 54 448 54 448 77 518.5 c 128,-1,11
 100 589 100 589 142.5 637 c 128,-1,12
 185 685 185 685 244 709.5 c 128,-1,13
 303 734 303 734 376 734 c 256,14,15
 449 734 449 734 508 709.5 c 128,-1,16
 567 685 567 685 609 637 c 128,-1,17
 651 589 651 589 674 518.5 c 128,-1,18
 697 448 697 448 697 355 c 0,19,20
 697 263 697 263 674 192.5 c 128,-1,21
 651 122 651 122 609 73.5 c 128,-1,22
 567 25 567 25 508 0.5 c 128,-1,23
 449 -24 449 -24 376 -24 c 256,4,5
376 62 m 256,24,25
 426 62 426 62 463.5 79 c 128,-1,26
 501 96 501 96 525.5 131.5 c 128,-1,27
 550 167 550 167 562.5 222.5 c 128,-1,28
 575 278 575 278 575 355 c 256,29,30
 575 432 575 432 562.5 487.5 c 128,-1,31
 550 543 550 543 525.5 578.5 c 128,-1,32
 501 614 501 614 463.5 631 c 128,-1,33
 426 648 426 648 376 648 c 256,34,35
 326 648 326 648 288 631 c 128,-1,36
 250 614 250 614 225.5 578.5 c 128,-1,37
 201 543 201 543 188.5 487.5 c 128,-1,38
 176 432 176 432 176 355 c 256,39,40
 176 278 176 278 188.5 222.5 c 128,-1,41
 201 167 201 167 226 131.5 c 128,-1,42
 251 96 251 96 288.5 79 c 128,-1,43
 326 62 326 62 376 62 c 256,24,25
EndSplineSet
EndChar

StartChar: Hastrokecyr
Encoding: 1278 1278 321
Width: 702
GlyphClass: 2
Flags: W
AnchorPoint: "Anchor-1" 330 0 basechar 0
AnchorPoint: "Anchor-0" 358 741 basechar 0
LayerCount: 2
Fore
SplineSet
151 410 m 1,0,-1
 547 410 l 1,1,-1
 547 325 l 1,2,-1
 151 325 l 1,3,-1
 151 410 l 1,0,-1
37 626 m 1,4,-1
 37 710 l 1,5,-1
 307 710 l 1,6,-1
 307 626 l 1,7,-1
 292 626 l 2,8,9
 276 626 276 626 262 625 c 128,-1,10
 248 624 248 624 239.5 622 c 128,-1,11
 231 620 231 620 231 616 c 2,12,-1
 390 392 l 1,13,-1
 403 388 l 1,14,-1
 594 118 l 2,15,16
 609 96 609 96 625 90 c 128,-1,17
 641 84 641 84 659 84 c 2,18,-1
 676 84 l 1,19,-1
 676 0 l 1,20,-1
 402 0 l 1,21,-1
 402 84 l 1,22,-1
 417 84 l 2,23,24
 433 84 433 84 447 85 c 128,-1,25
 461 86 461 86 469.5 88.5 c 128,-1,26
 478 91 478 91 478 94 c 2,27,-1
 306 339 l 1,28,-1
 293 343 l 1,29,-1
 116 592 l 2,30,31
 100 615 100 615 83.5 620.5 c 128,-1,32
 67 626 67 626 49 626 c 2,33,-1
 37 626 l 1,4,-1
26 0 m 1,34,-1
 26 84 l 1,35,-1
 44 84 l 2,36,37
 59 84 59 84 73.5 93.5 c 128,-1,38
 88 103 88 103 106 130 c 2,39,-1
 282 381 l 1,40,-1
 353 339 l 1,41,-1
 189 101 l 2,42,43
 189 97 189 97 198.5 93 c 128,-1,44
 208 89 208 89 220.5 86.5 c 128,-1,45
 233 84 233 84 244 84 c 2,46,-1
 261 84 l 1,47,-1
 261 0 l 1,48,-1
 26 0 l 1,34,-1
414 350 m 1,49,-1
 346 395 l 1,50,-1
 501 609 l 2,51,52
 501 614 501 614 491 618 c 128,-1,53
 481 622 481 622 468 624 c 128,-1,54
 455 626 455 626 442 626 c 2,55,-1
 430 626 l 1,56,-1
 430 710 l 1,57,-1
 661 710 l 1,58,-1
 661 626 l 1,59,-1
 648 626 l 2,60,61
 633 626 633 626 618 617 c 128,-1,62
 603 608 603 608 583 581 c 2,63,-1
 414 350 l 1,49,-1
EndSplineSet
EndChar

StartChar: a
Encoding: 97 97 322
Width: 576
GlyphClass: 2
Flags: W
AnchorPoint: "Anchor-2" 433 -10 basechar 0
AnchorPoint: "Anchor-1" 297 0 basechar 0
AnchorPoint: "Anchor-0" 267 565 basechar 0
LayerCount: 2
Fore
SplineSet
383 349 m 1,0,-1
 383 282 l 1,1,2
 324 272 324 272 284 261 c 128,-1,3
 244 250 244 250 220 237.5 c 128,-1,4
 196 225 196 225 184 211 c 128,-1,5
 172 197 172 197 168 179.5 c 128,-1,6
 164 162 164 162 164 141 c 0,7,8
 164 112 164 112 173 96 c 128,-1,9
 182 80 182 80 198 74 c 128,-1,10
 214 68 214 68 234 68 c 0,11,12
 259 68 259 68 282.5 78 c 128,-1,13
 306 88 306 88 330.5 111.5 c 128,-1,14
 355 135 355 135 382 177 c 1,15,-1
 387 115 l 1,16,17
 366 74 366 74 340.5 45.5 c 128,-1,18
 315 17 315 17 283.5 2.5 c 128,-1,19
 252 -12 252 -12 213 -12 c 0,20,21
 163 -12 163 -12 128 4.5 c 128,-1,22
 93 21 93 21 75 54 c 128,-1,23
 57 87 57 87 57 138 c 0,24,25
 57 182 57 182 71.5 215 c 128,-1,26
 86 248 86 248 122.5 272 c 128,-1,27
 159 296 159 296 222.5 314.5 c 128,-1,28
 286 333 286 333 383 349 c 1,0,-1
402 0 m 1,29,-1
 378 118 l 1,30,-1
 376 126 l 1,31,-1
 376 410 l 2,32,33
 376 437 376 437 369.5 455 c 128,-1,34
 363 473 363 473 342 483 c 128,-1,35
 321 493 321 493 277 493 c 0,36,37
 218 493 218 493 178.5 480.5 c 128,-1,38
 139 468 139 468 123 456 c 1,39,40
 122 460 122 460 127 470.5 c 128,-1,41
 132 481 132 481 141 491.5 c 128,-1,42
 150 502 150 502 162 509.5 c 128,-1,43
 174 517 174 517 188 516 c 1,44,-1
 188 389 l 1,45,-1
 85 389 l 1,46,-1
 85 527 l 1,47,48
 100 537 100 537 126.5 548.5 c 128,-1,49
 153 560 153 560 192 568 c 128,-1,50
 231 576 231 576 282 576 c 0,51,52
 328 576 328 576 365.5 568 c 128,-1,53
 403 560 403 560 429.5 542.5 c 128,-1,54
 456 525 456 525 470.5 497.5 c 128,-1,55
 485 470 485 470 485 431 c 2,56,-1
 485 126 l 2,57,58
 485 111 485 111 490.5 102.5 c 128,-1,59
 496 94 496 94 509.5 88.5 c 128,-1,60
 523 83 523 83 544 78 c 2,61,-1
 553 76 l 1,62,-1
 553 0 l 1,63,-1
 402 0 l 1,29,-1
EndSplineSet
Substitution2: "'ss06' Style Set 6 lookup 66 subtable" a.alt
EndChar

StartChar: aogonek
Encoding: 261 261 331
Width: 576
GlyphClass: 1
Flags: W
LayerCount: 2
Fore
SplineSet
239 -160 m 0,0,1
 239 -136 239 -136 247 -117 c 128,-1,2
 255 -98 255 -98 276.5 -78 c 128,-1,3
 298 -58 298 -58 336 -30.5 c 128,-1,4
 374 -3 374 -3 433 38 c 1,5,-1
 466 1 l 1,6,7
 431 -29 431 -29 408 -50.5 c 128,-1,8
 385 -72 385 -72 373 -88 c 128,-1,9
 361 -104 361 -104 356 -117.5 c 128,-1,10
 351 -131 351 -131 351 -148 c 0,11,12
 351 -164 351 -164 360.5 -175 c 128,-1,13
 370 -186 370 -186 390 -186 c 0,14,15
 415 -186 415 -186 434 -171.5 c 128,-1,16
 453 -157 453 -157 465 -142 c 1,17,-1
 506 -183 l 1,18,19
 482 -213 482 -213 449 -232.5 c 128,-1,20
 416 -252 416 -252 362 -252 c 0,21,22
 309 -252 309 -252 274 -230 c 128,-1,23
 239 -208 239 -208 239 -160 c 0,0,1
553 0 m 1,24,-1
 403 0 l 1,25,-1
 380 118 l 1,26,-1
 373 126 l 1,27,-1
 373 414 l 2,28,29
 373 441 373 441 366.5 458.5 c 128,-1,30
 360 476 360 476 339.5 485.5 c 128,-1,31
 319 495 319 495 277 495 c 0,32,33
 217 495 217 495 176.5 486 c 128,-1,34
 136 477 136 477 121 466 c 1,35,36
 121 471 121 471 125.5 479 c 128,-1,37
 130 487 130 487 138.5 496 c 128,-1,38
 147 505 147 505 158.5 511 c 128,-1,39
 170 517 170 517 184 516 c 1,40,-1
 184 389 l 1,41,-1
 82 389 l 1,42,-1
 82 527 l 1,43,44
 97 538 97 538 124 549 c 128,-1,45
 151 560 151 560 190.5 568 c 128,-1,46
 230 576 230 576 282 576 c 0,47,48
 327 576 327 576 363.5 568 c 128,-1,49
 400 560 400 560 426.5 542.5 c 128,-1,50
 453 525 453 525 467.5 497.5 c 128,-1,51
 482 470 482 470 482 431 c 2,52,-1
 482 122 l 2,53,54
 482 108 482 108 488 100.5 c 128,-1,55
 494 93 494 93 507.5 88.5 c 128,-1,56
 521 84 521 84 544 78 c 2,57,-1
 553 76 l 1,58,-1
 553 0 l 1,24,-1
51 138 m 0,59,60
 51 184 51 184 66 217 c 128,-1,61
 81 250 81 250 117.5 273.5 c 128,-1,62
 154 297 154 297 218 315.5 c 128,-1,63
 282 334 282 334 382 350 c 1,64,-1
 382 283 l 1,65,66
 321 272 321 272 280 261 c 128,-1,67
 239 250 239 250 215 238 c 128,-1,68
 191 226 191 226 179 211.5 c 128,-1,69
 167 197 167 197 163 180 c 128,-1,70
 159 163 159 163 159 142 c 0,71,72
 159 112 159 112 168.5 96 c 128,-1,73
 178 80 178 80 194 74 c 128,-1,74
 210 68 210 68 231 68 c 0,75,76
 255 68 255 68 279.5 77 c 128,-1,77
 304 86 304 86 329 108.5 c 128,-1,78
 354 131 354 131 380 172 c 1,79,-1
 385 111 l 1,80,81
 366 71 366 71 339.5 43 c 128,-1,82
 313 15 313 15 280 1.5 c 128,-1,83
 247 -12 247 -12 208 -12 c 0,84,85
 158 -12 158 -12 122.5 4.5 c 128,-1,86
 87 21 87 21 69 54 c 128,-1,87
 51 87 51 87 51 138 c 0,59,60
EndSplineSet
Substitution2: "'ss06' Style Set 6 lookup 66 subtable" aogonek.alt
EndChar

StartChar: acaron
Encoding: 462 462 332
Width: 576
GlyphClass: 1
Flags: W
LayerCount: 2
Fore
SplineSet
240 653 m 1,0,-1
 314 653 l 1,1,-1
 444 823 l 1,2,-1
 444 847 l 1,3,-1
 384 847 l 1,4,-1
 218 705 l 1,5,-1
 336 709 l 1,6,-1
 173 847 l 1,7,-1
 108 847 l 1,8,-1
 108 823 l 1,9,-1
 240 653 l 1,0,-1
383 349 m 1,10,-1
 383 282 l 1,11,12
 324 272 324 272 284 261 c 128,-1,13
 244 250 244 250 220 237.5 c 128,-1,14
 196 225 196 225 184 211 c 128,-1,15
 172 197 172 197 168 179.5 c 128,-1,16
 164 162 164 162 164 141 c 0,17,18
 164 112 164 112 173 96 c 128,-1,19
 182 80 182 80 198 74 c 128,-1,20
 214 68 214 68 234 68 c 0,21,22
 259 68 259 68 282.5 78 c 128,-1,23
 306 88 306 88 330.5 111.5 c 128,-1,24
 355 135 355 135 382 177 c 1,25,-1
 387 115 l 1,26,27
 366 74 366 74 340.5 45.5 c 128,-1,28
 315 17 315 17 283.5 2.5 c 128,-1,29
 252 -12 252 -12 213 -12 c 0,30,31
 163 -12 163 -12 128 4.5 c 128,-1,32
 93 21 93 21 75 54 c 128,-1,33
 57 87 57 87 57 138 c 0,34,35
 57 182 57 182 71.5 215 c 128,-1,36
 86 248 86 248 122.5 272 c 128,-1,37
 159 296 159 296 222.5 314.5 c 128,-1,38
 286 333 286 333 383 349 c 1,10,-1
402 0 m 1,39,-1
 378 118 l 1,40,-1
 376 126 l 1,41,-1
 376 410 l 2,42,43
 376 437 376 437 369.5 455 c 128,-1,44
 363 473 363 473 342 483 c 128,-1,45
 321 493 321 493 277 493 c 0,46,47
 218 493 218 493 178.5 480.5 c 128,-1,48
 139 468 139 468 123 456 c 1,49,50
 122 460 122 460 127 470.5 c 128,-1,51
 132 481 132 481 141 491.5 c 128,-1,52
 150 502 150 502 162 509.5 c 128,-1,53
 174 517 174 517 188 516 c 1,54,-1
 188 389 l 1,55,-1
 85 389 l 1,56,-1
 85 527 l 1,57,58
 100 537 100 537 126.5 548.5 c 128,-1,59
 153 560 153 560 192 568 c 128,-1,60
 231 576 231 576 282 576 c 0,61,62
 328 576 328 576 365.5 568 c 128,-1,63
 403 560 403 560 429.5 542.5 c 128,-1,64
 456 525 456 525 470.5 497.5 c 128,-1,65
 485 470 485 470 485 431 c 2,66,-1
 485 126 l 2,67,68
 485 111 485 111 490.5 102.5 c 128,-1,69
 496 94 496 94 509.5 88.5 c 128,-1,70
 523 83 523 83 544 78 c 2,71,-1
 553 76 l 1,72,-1
 553 0 l 1,73,-1
 402 0 l 1,39,-1
EndSplineSet
Substitution2: "'ss06' Style Set 6 lookup 66 subtable" acaron.alt
EndChar

StartChar: adblgrave
Encoding: 513 513 334
Width: 576
GlyphClass: 1
Flags: W
LayerCount: 2
Fore
SplineSet
387 803 m 2,0,-1
 416 691 l 1,1,-1
 413 659 l 1,2,-1
 371 659 l 1,3,-1
 298 740 l 2,4,5
 280 760 280 760 270 777.5 c 128,-1,6
 260 795 260 795 260 816 c 0,7,8
 260 841 260 841 274.5 856.5 c 128,-1,9
 289 872 289 872 314 872 c 0,10,11
 344 872 344 872 362 852.5 c 128,-1,12
 380 833 380 833 387 803 c 2,0,-1
199 803 m 2,13,-1
 225 691 l 1,14,-1
 225 659 l 1,15,-1
 182 659 l 1,16,-1
 109 740 l 2,17,18
 91 760 91 760 81.5 777.5 c 128,-1,19
 72 795 72 795 72 816 c 0,20,21
 72 841 72 841 86.5 856.5 c 128,-1,22
 101 872 101 872 126 872 c 0,23,24
 155 872 155 872 173.5 852.5 c 128,-1,25
 192 833 192 833 199 803 c 2,13,-1
383 349 m 1,26,-1
 383 282 l 1,27,28
 324 272 324 272 284 261 c 128,-1,29
 244 250 244 250 220 237.5 c 128,-1,30
 196 225 196 225 184 211 c 128,-1,31
 172 197 172 197 168 179.5 c 128,-1,32
 164 162 164 162 164 141 c 0,33,34
 164 112 164 112 173 96 c 128,-1,35
 182 80 182 80 198 74 c 128,-1,36
 214 68 214 68 234 68 c 0,37,38
 259 68 259 68 282.5 78 c 128,-1,39
 306 88 306 88 330.5 111.5 c 128,-1,40
 355 135 355 135 382 177 c 1,41,-1
 387 115 l 1,42,43
 366 74 366 74 340.5 45.5 c 128,-1,44
 315 17 315 17 283.5 2.5 c 128,-1,45
 252 -12 252 -12 213 -12 c 0,46,47
 163 -12 163 -12 128 4.5 c 128,-1,48
 93 21 93 21 75 54 c 128,-1,49
 57 87 57 87 57 138 c 0,50,51
 57 182 57 182 71.5 215 c 128,-1,52
 86 248 86 248 122.5 272 c 128,-1,53
 159 296 159 296 222.5 314.5 c 128,-1,54
 286 333 286 333 383 349 c 1,26,-1
402 0 m 1,55,-1
 378 118 l 1,56,-1
 376 126 l 1,57,-1
 376 410 l 2,58,59
 376 437 376 437 369.5 455 c 128,-1,60
 363 473 363 473 342 483 c 128,-1,61
 321 493 321 493 277 493 c 0,62,63
 218 493 218 493 178.5 480.5 c 128,-1,64
 139 468 139 468 123 456 c 1,65,66
 122 460 122 460 127 470.5 c 128,-1,67
 132 481 132 481 141 491.5 c 128,-1,68
 150 502 150 502 162 509.5 c 128,-1,69
 174 517 174 517 188 516 c 1,70,-1
 188 389 l 1,71,-1
 85 389 l 1,72,-1
 85 527 l 1,73,74
 100 537 100 537 126.5 548.5 c 128,-1,75
 153 560 153 560 192 568 c 128,-1,76
 231 576 231 576 282 576 c 0,77,78
 328 576 328 576 365.5 568 c 128,-1,79
 403 560 403 560 429.5 542.5 c 128,-1,80
 456 525 456 525 470.5 497.5 c 128,-1,81
 485 470 485 470 485 431 c 2,82,-1
 485 126 l 2,83,84
 485 111 485 111 490.5 102.5 c 128,-1,85
 496 94 496 94 509.5 88.5 c 128,-1,86
 523 83 523 83 544 78 c 2,87,-1
 553 76 l 1,88,-1
 553 0 l 1,89,-1
 402 0 l 1,55,-1
EndSplineSet
Substitution2: "'ss06' Style Set 6 lookup 66 subtable" adblgrave.alt
EndChar

StartChar: ainvertedbreve
Encoding: 515 515 335
Width: 576
GlyphClass: 1
Flags: W
LayerCount: 2
Fore
SplineSet
272 832 m 256,0,1
 216 832 216 832 180.5 816 c 128,-1,2
 145 800 145 800 128.5 763.5 c 128,-1,3
 112 727 112 727 112 663 c 1,4,-1
 194 663 l 1,5,6
 196 701 196 701 201.5 720 c 128,-1,7
 207 739 207 739 222.5 745.5 c 128,-1,8
 238 752 238 752 269 752 c 0,9,10
 301 752 301 752 316.5 745.5 c 128,-1,11
 332 739 332 739 338 720 c 128,-1,12
 344 701 344 701 345 663 c 1,13,-1
 432 663 l 1,14,15
 433 727 433 727 416.5 763.5 c 128,-1,16
 400 800 400 800 364 816 c 128,-1,17
 328 832 328 832 272 832 c 256,0,1
383 349 m 1,18,-1
 383 282 l 1,19,20
 324 272 324 272 284 261 c 128,-1,21
 244 250 244 250 220 237.5 c 128,-1,22
 196 225 196 225 184 211 c 128,-1,23
 172 197 172 197 168 179.5 c 128,-1,24
 164 162 164 162 164 141 c 0,25,26
 164 112 164 112 173 96 c 128,-1,27
 182 80 182 80 198 74 c 128,-1,28
 214 68 214 68 234 68 c 0,29,30
 259 68 259 68 282.5 78 c 128,-1,31
 306 88 306 88 330.5 111.5 c 128,-1,32
 355 135 355 135 382 177 c 1,33,-1
 387 115 l 1,34,35
 366 74 366 74 340.5 45.5 c 128,-1,36
 315 17 315 17 283.5 2.5 c 128,-1,37
 252 -12 252 -12 213 -12 c 0,38,39
 163 -12 163 -12 128 4.5 c 128,-1,40
 93 21 93 21 75 54 c 128,-1,41
 57 87 57 87 57 138 c 0,42,43
 57 182 57 182 71.5 215 c 128,-1,44
 86 248 86 248 122.5 272 c 128,-1,45
 159 296 159 296 222.5 314.5 c 128,-1,46
 286 333 286 333 383 349 c 1,18,-1
402 0 m 1,47,-1
 378 118 l 1,48,-1
 376 126 l 1,49,-1
 376 410 l 2,50,51
 376 437 376 437 369.5 455 c 128,-1,52
 363 473 363 473 342 483 c 128,-1,53
 321 493 321 493 277 493 c 0,54,55
 218 493 218 493 178.5 480.5 c 128,-1,56
 139 468 139 468 123 456 c 1,57,58
 122 460 122 460 127 470.5 c 128,-1,59
 132 481 132 481 141 491.5 c 128,-1,60
 150 502 150 502 162 509.5 c 128,-1,61
 174 517 174 517 188 516 c 1,62,-1
 188 389 l 1,63,-1
 85 389 l 1,64,-1
 85 527 l 1,65,66
 100 537 100 537 126.5 548.5 c 128,-1,67
 153 560 153 560 192 568 c 128,-1,68
 231 576 231 576 282 576 c 0,69,70
 328 576 328 576 365.5 568 c 128,-1,71
 403 560 403 560 429.5 542.5 c 128,-1,72
 456 525 456 525 470.5 497.5 c 128,-1,73
 485 470 485 470 485 431 c 2,74,-1
 485 126 l 2,75,76
 485 111 485 111 490.5 102.5 c 128,-1,77
 496 94 496 94 509.5 88.5 c 128,-1,78
 523 83 523 83 544 78 c 2,79,-1
 553 76 l 1,80,-1
 553 0 l 1,81,-1
 402 0 l 1,47,-1
EndSplineSet
Substitution2: "'ss06' Style Set 6 lookup 66 subtable" ainvertedbreve.alt
EndChar

StartChar: b
Encoding: 98 98 348
Width: 636
GlyphClass: 2
Flags: W
AnchorPoint: "Anchor-1" 349 0 basechar 0
AnchorPoint: "Anchor-0" 329 755 basechar 0
LayerCount: 2
Fore
SplineSet
364 -13 m 0,0,1
 320 -13 320 -13 285 3.5 c 128,-1,2
 250 20 250 20 223 51.5 c 128,-1,3
 196 83 196 83 174 127 c 1,4,-1
 180 185 l 1,5,6
 205 148 205 148 231 124 c 128,-1,7
 257 100 257 100 286 89 c 128,-1,8
 315 78 315 78 349 78 c 0,9,10
 380 78 380 78 404.5 90 c 128,-1,11
 429 102 429 102 445 127.5 c 128,-1,12
 461 153 461 153 469.5 192.5 c 128,-1,13
 478 232 478 232 478 286 c 0,14,15
 478 339 478 339 470 376.5 c 128,-1,16
 462 414 462 414 447 438 c 128,-1,17
 432 462 432 462 409 473.5 c 128,-1,18
 386 485 386 485 356 485 c 0,19,20
 320 485 320 485 290 474 c 128,-1,21
 260 463 260 463 233 438 c 128,-1,22
 206 413 206 413 178 372 c 1,23,-1
 176 430 l 1,24,25
 198 476 198 476 226.5 508.5 c 128,-1,26
 255 541 255 541 292 558.5 c 128,-1,27
 329 576 329 576 374 576 c 0,28,29
 447 576 447 576 495 539 c 128,-1,30
 543 502 543 502 567.5 437 c 128,-1,31
 592 372 592 372 592 286 c 256,32,33
 592 200 592 200 565.5 132 c 128,-1,34
 539 64 539 64 488 25.5 c 128,-1,35
 437 -13 437 -13 364 -13 c 0,0,1
88 654 m 2,36,37
 88 668 88 668 81 676 c 128,-1,38
 74 684 74 684 60.5 689 c 128,-1,39
 47 694 47 694 29 697 c 2,40,-1
 20 699 l 1,41,-1
 20 780 l 1,42,-1
 198 780 l 1,43,-1
 198 123 l 1,44,-1
 199 122 l 1,45,-1
 164 -17 l 1,46,-1
 88 -17 l 1,47,-1
 88 654 l 2,36,37
EndSplineSet
EndChar

StartChar: c
Encoding: 99 99 349
Width: 545
GlyphClass: 2
Flags: W
AnchorPoint: "Anchor-1" 301 0 basechar 0
AnchorPoint: "Anchor-0" 291 565 basechar 0
LayerCount: 2
Fore
SplineSet
308 73 m 0,0,1
 343 73 343 73 367.5 82 c 128,-1,2
 392 91 392 91 409.5 109 c 128,-1,3
 427 127 427 127 442 155 c 1,4,-1
 505 114 l 1,5,6
 488 74 488 74 458.5 45.5 c 128,-1,7
 429 17 429 17 389.5 2 c 128,-1,8
 350 -13 350 -13 304 -13 c 0,9,10
 222 -13 222 -13 164 21.5 c 128,-1,11
 106 56 106 56 75 122 c 128,-1,12
 44 188 44 188 44 282 c 0,13,14
 44 375 44 375 74.5 440.5 c 128,-1,15
 105 506 105 506 163.5 541 c 128,-1,16
 222 576 222 576 305 576 c 0,17,18
 354 576 354 576 390.5 570 c 128,-1,19
 427 564 427 564 451.5 556 c 128,-1,20
 476 548 476 548 486 543 c 1,21,-1
 486 367 l 1,22,-1
 379 367 l 1,23,-1
 379 513 l 1,24,25
 389 513 389 513 398.5 506.5 c 128,-1,26
 408 500 408 500 415.5 491 c 128,-1,27
 423 482 423 482 428 474 c 128,-1,28
 433 466 433 466 434 462 c 1,29,30
 413 472 413 472 381 481 c 128,-1,31
 349 490 349 490 308 490 c 0,32,33
 253 490 253 490 220 467 c 128,-1,34
 187 444 187 444 172.5 398 c 128,-1,35
 158 352 158 352 158 282 c 0,36,37
 158 227 158 227 166 187 c 128,-1,38
 174 147 174 147 191.5 121.5 c 128,-1,39
 209 96 209 96 238 84.5 c 128,-1,40
 267 73 267 73 308 73 c 0,0,1
EndSplineSet
EndChar

StartChar: ccaron
Encoding: 269 269 354
Width: 545
GlyphClass: 1
Flags: W
LayerCount: 2
Fore
SplineSet
254 653 m 1,0,-1
 328 653 l 1,1,-1
 458 823 l 1,2,-1
 458 847 l 1,3,-1
 398 847 l 1,4,-1
 232 705 l 1,5,-1
 351 709 l 1,6,-1
 187 847 l 1,7,-1
 123 847 l 1,8,-1
 123 823 l 1,9,-1
 254 653 l 1,0,-1
308 73 m 0,10,11
 343 73 343 73 367.5 82 c 128,-1,12
 392 91 392 91 409.5 109 c 128,-1,13
 427 127 427 127 442 155 c 1,14,-1
 505 114 l 1,15,16
 488 74 488 74 458.5 45.5 c 128,-1,17
 429 17 429 17 389.5 2 c 128,-1,18
 350 -13 350 -13 304 -13 c 0,19,20
 222 -13 222 -13 164 21.5 c 128,-1,21
 106 56 106 56 75 122 c 128,-1,22
 44 188 44 188 44 282 c 0,23,24
 44 375 44 375 74.5 440.5 c 128,-1,25
 105 506 105 506 163.5 541 c 128,-1,26
 222 576 222 576 305 576 c 0,27,28
 354 576 354 576 390.5 570 c 128,-1,29
 427 564 427 564 451.5 556 c 128,-1,30
 476 548 476 548 486 543 c 1,31,-1
 486 367 l 1,32,-1
 379 367 l 1,33,-1
 379 513 l 1,34,35
 389 513 389 513 398.5 506.5 c 128,-1,36
 408 500 408 500 415.5 491 c 128,-1,37
 423 482 423 482 428 474 c 128,-1,38
 433 466 433 466 434 462 c 1,39,40
 413 472 413 472 381 481 c 128,-1,41
 349 490 349 490 308 490 c 0,42,43
 253 490 253 490 220 467 c 128,-1,44
 187 444 187 444 172.5 398 c 128,-1,45
 158 352 158 352 158 282 c 0,46,47
 158 227 158 227 166 187 c 128,-1,48
 174 147 174 147 191.5 121.5 c 128,-1,49
 209 96 209 96 238 84.5 c 128,-1,50
 267 73 267 73 308 73 c 0,10,11
EndSplineSet
EndChar

StartChar: d
Encoding: 100 100 356
Width: 642
GlyphClass: 2
Flags: W
AnchorPoint: "Anchor-2" 608 735 basechar 0
AnchorPoint: "Anchor-1" 300 0 basechar 0
LayerCount: 2
Fore
SplineSet
547 122 m 2,0,1
 547 100 547 100 563 93 c 128,-1,2
 579 86 579 86 606 78 c 2,3,-1
 615 76 l 1,4,-1
 615 0 l 1,5,-1
 470 0 l 1,6,-1
 447 126 l 1,7,-1
 438 121 l 1,8,-1
 438 654 l 2,9,10
 438 668 438 668 430.5 675.5 c 128,-1,11
 423 683 423 683 407.5 688 c 128,-1,12
 392 693 392 693 370 697 c 2,13,-1
 361 699 l 1,14,-1
 361 780 l 1,15,-1
 547 780 l 1,16,-1
 547 122 l 2,0,1
272 576 m 0,17,18
 314 576 314 576 348.5 559.5 c 128,-1,19
 383 543 383 543 411 512 c 128,-1,20
 439 481 439 481 460 435 c 1,21,-1
 456 380 l 1,22,23
 431 417 431 417 404.5 440 c 128,-1,24
 378 463 378 463 349.5 474 c 128,-1,25
 321 485 321 485 288 485 c 0,26,27
 256 485 256 485 232 473 c 128,-1,28
 208 461 208 461 191.5 435.5 c 128,-1,29
 175 410 175 410 166.5 371 c 128,-1,30
 158 332 158 332 158 277 c 0,31,32
 158 224 158 224 166 186 c 128,-1,33
 174 148 174 148 189 124 c 128,-1,34
 204 100 204 100 227 89 c 128,-1,35
 250 78 250 78 280 78 c 0,36,37
 316 78 316 78 346 89 c 128,-1,38
 376 100 376 100 403.5 125 c 128,-1,39
 431 150 431 150 458 189 c 1,40,-1
 460 133 l 1,41,42
 438 87 438 87 409 54.5 c 128,-1,43
 380 22 380 22 343.5 4.5 c 128,-1,44
 307 -13 307 -13 262 -13 c 0,45,46
 190 -13 190 -13 141.5 24 c 128,-1,47
 93 61 93 61 68.5 126.5 c 128,-1,48
 44 192 44 192 44 277 c 0,49,50
 44 364 44 364 70.5 431 c 128,-1,51
 97 498 97 498 148 537 c 128,-1,52
 199 576 199 576 272 576 c 0,17,18
EndSplineSet
EndChar

StartChar: e
Encoding: 101 101 360
Width: 555
GlyphClass: 2
Flags: W
AnchorPoint: "Anchor-2" 438 1 basechar 0
AnchorPoint: "Anchor-1" 304 0 basechar 0
AnchorPoint: "Anchor-0" 283 565 basechar 0
LayerCount: 2
Fore
SplineSet
153 276 m 0,0,1
 153 215 153 215 165 175 c 128,-1,2
 177 135 177 135 198.5 112.5 c 128,-1,3
 220 90 220 90 248 81.5 c 128,-1,4
 276 73 276 73 309 73 c 0,5,6
 345 73 345 73 370 82 c 128,-1,7
 395 91 395 91 413.5 109.5 c 128,-1,8
 432 128 432 128 448 154 c 1,9,-1
 511 113 l 1,10,11
 494 74 494 74 463 45.5 c 128,-1,12
 432 17 432 17 391.5 2 c 128,-1,13
 351 -13 351 -13 302 -13 c 0,14,15
 228 -13 228 -13 169.5 18.5 c 128,-1,16
 111 50 111 50 77.5 115 c 128,-1,17
 44 180 44 180 44 276 c 0,18,19
 44 369 44 369 74 436 c 128,-1,20
 104 503 104 503 159 539.5 c 128,-1,21
 214 576 214 576 288 576 c 0,22,23
 346 576 346 576 387.5 556 c 128,-1,24
 429 536 429 536 456 495.5 c 128,-1,25
 483 455 483 455 496.5 393 c 128,-1,26
 510 331 510 331 511 246 c 1,27,-1
 113 246 l 1,28,-1
 113 325 l 1,29,-1
 427 325 l 1,30,-1
 404 293 l 1,31,32
 403 351 403 351 396 389.5 c 128,-1,33
 389 428 389 428 375 450.5 c 128,-1,34
 361 473 361 473 339.5 482.5 c 128,-1,35
 318 492 318 492 289 492 c 0,36,37
 257 492 257 492 232 480.5 c 128,-1,38
 207 469 207 469 189.5 444 c 128,-1,39
 172 419 172 419 162.5 377.5 c 128,-1,40
 153 336 153 336 153 276 c 0,0,1
EndSplineSet
EndChar

StartChar: eogonek
Encoding: 281 281 368
Width: 555
GlyphClass: 1
Flags: W
LayerCount: 2
Fore
SplineSet
384 41 m 1,0,-1
 384 0 l 1,1,2
 365 -6 365 -6 345.5 -9.5 c 128,-1,3
 326 -13 326 -13 304 -13 c 0,4,5
 228 -13 228 -13 169.5 18.5 c 128,-1,6
 111 50 111 50 77.5 115 c 128,-1,7
 44 180 44 180 44 276 c 0,8,9
 44 369 44 369 74 436 c 128,-1,10
 104 503 104 503 159 539.5 c 128,-1,11
 214 576 214 576 289 576 c 0,12,13
 346 576 346 576 387.5 556 c 128,-1,14
 429 536 429 536 456 496 c 128,-1,15
 483 456 483 456 496.5 394 c 128,-1,16
 510 332 510 332 511 249 c 1,17,-1
 114 249 l 1,18,-1
 114 325 l 1,19,-1
 425 325 l 1,20,-1
 405 293 l 1,21,22
 403 351 403 351 396 389.5 c 128,-1,23
 389 428 389 428 375 451 c 128,-1,24
 361 474 361 474 340 483.5 c 128,-1,25
 319 493 319 493 289 493 c 0,26,27
 258 493 258 493 232.5 481.5 c 128,-1,28
 207 470 207 470 189.5 444.5 c 128,-1,29
 172 419 172 419 162.5 377.5 c 128,-1,30
 153 336 153 336 153 276 c 0,31,32
 153 215 153 215 165 175 c 128,-1,33
 177 135 177 135 198 112.5 c 128,-1,34
 219 90 219 90 247.5 81.5 c 128,-1,35
 276 73 276 73 308 73 c 0,36,37
 346 73 346 73 372 82 c 128,-1,38
 398 91 398 91 416 110 c 128,-1,39
 434 129 434 129 449 156 c 1,40,-1
 511 113 l 1,41,42
 501 89 501 89 484 68.5 c 128,-1,43
 467 48 467 48 437 25 c 0,44,45
 406 -1 406 -1 381 -25 c 128,-1,46
 356 -49 356 -49 338.5 -71.5 c 128,-1,47
 321 -94 321 -94 311.5 -113.5 c 128,-1,48
 302 -133 302 -133 302 -148 c 0,49,50
 302 -164 302 -164 312 -175 c 128,-1,51
 322 -186 322 -186 341 -186 c 0,52,53
 365 -186 365 -186 383 -171.5 c 128,-1,54
 401 -157 401 -157 414 -142 c 1,55,-1
 455 -183 l 1,56,57
 430 -213 430 -213 397.5 -232.5 c 128,-1,58
 365 -252 365 -252 315 -252 c 0,59,60
 280 -252 280 -252 251.5 -242 c 128,-1,61
 223 -232 223 -232 206.5 -211.5 c 128,-1,62
 190 -191 190 -191 190 -160 c 0,63,64
 190 -136 190 -136 199 -116 c 128,-1,65
 208 -96 208 -96 229 -75 c 128,-1,66
 250 -54 250 -54 287.5 -26.5 c 128,-1,67
 325 1 325 1 384 41 c 1,0,-1
EndSplineSet
EndChar

